<mxfile host="app.diagrams.net" agent="Mozilla/5.0 (Windows NT 10.0; Win64; x64) AppleWebKit/537.36 (KHTML, like Gecko) Chrome/131.0.0.0 Safari/537.36" version="24.8.8" pages="9">
  <diagram name="Page-1" id="IZRQpdRIQNyceV-wh31e">
    <mxGraphModel dx="1221" dy="759" grid="1" gridSize="10" guides="1" tooltips="1" connect="1" arrows="1" fold="1" page="1" pageScale="1" pageWidth="850" pageHeight="1100" math="0" shadow="0">
      <root>
        <mxCell id="0" />
        <mxCell id="1" parent="0" />
        <mxCell id="_wsHeFZLS5RoO2i9bFP7-1" value="&lt;font style=&quot;font-size: 24px;&quot;&gt;Entity relationship diagram&lt;/font&gt;" style="text;html=1;align=center;verticalAlign=middle;resizable=0;points=[];autosize=1;strokeColor=none;fillColor=none;" parent="1" vertex="1">
          <mxGeometry x="270" y="10" width="310" height="40" as="geometry" />
        </mxCell>
        <mxCell id="_wsHeFZLS5RoO2i9bFP7-118" style="edgeStyle=orthogonalEdgeStyle;rounded=0;orthogonalLoop=1;jettySize=auto;html=1;exitX=1;exitY=0.5;exitDx=0;exitDy=0;entryX=1;entryY=0.5;entryDx=0;entryDy=0;" parent="1" source="_wsHeFZLS5RoO2i9bFP7-106" target="_wsHeFZLS5RoO2i9bFP7-103" edge="1">
          <mxGeometry relative="1" as="geometry" />
        </mxCell>
        <mxCell id="_wsHeFZLS5RoO2i9bFP7-2" value="&lt;font style=&quot;font-size: 18px;&quot;&gt;&lt;u&gt;One to one relationship chen&#39;s notation&amp;nbsp;&lt;/u&gt;&lt;/font&gt;" style="text;html=1;align=center;verticalAlign=middle;resizable=0;points=[];autosize=1;strokeColor=none;fillColor=none;" parent="1" vertex="1">
          <mxGeometry x="10" y="65" width="340" height="40" as="geometry" />
        </mxCell>
        <mxCell id="_wsHeFZLS5RoO2i9bFP7-5" value="Principle&amp;nbsp;" style="whiteSpace=wrap;html=1;align=center;" parent="1" vertex="1">
          <mxGeometry x="150" y="260" width="100" height="40" as="geometry" />
        </mxCell>
        <mxCell id="_wsHeFZLS5RoO2i9bFP7-6" value="School" style="whiteSpace=wrap;html=1;align=center;" parent="1" vertex="1">
          <mxGeometry x="600" y="260" width="100" height="40" as="geometry" />
        </mxCell>
        <mxCell id="_wsHeFZLS5RoO2i9bFP7-7" value="manage" style="shape=rhombus;perimeter=rhombusPerimeter;whiteSpace=wrap;html=1;align=center;" parent="1" vertex="1">
          <mxGeometry x="370" y="250" width="120" height="60" as="geometry" />
        </mxCell>
        <mxCell id="_wsHeFZLS5RoO2i9bFP7-9" value="" style="endArrow=none;html=1;rounded=0;entryX=0;entryY=0.5;entryDx=0;entryDy=0;" parent="1" target="_wsHeFZLS5RoO2i9bFP7-7" edge="1">
          <mxGeometry relative="1" as="geometry">
            <mxPoint x="250" y="280" as="sourcePoint" />
            <mxPoint x="410" y="280" as="targetPoint" />
          </mxGeometry>
        </mxCell>
        <mxCell id="_wsHeFZLS5RoO2i9bFP7-32" value="&lt;font style=&quot;font-size: 18px;&quot;&gt;1&lt;/font&gt;" style="edgeLabel;html=1;align=center;verticalAlign=middle;resizable=0;points=[];" parent="_wsHeFZLS5RoO2i9bFP7-9" vertex="1" connectable="0">
          <mxGeometry x="-0.8056" relative="1" as="geometry">
            <mxPoint as="offset" />
          </mxGeometry>
        </mxCell>
        <mxCell id="_wsHeFZLS5RoO2i9bFP7-10" value="" style="endArrow=none;html=1;rounded=0;entryX=0;entryY=0.5;entryDx=0;entryDy=0;" parent="1" target="_wsHeFZLS5RoO2i9bFP7-6" edge="1">
          <mxGeometry relative="1" as="geometry">
            <mxPoint x="490" y="279.5" as="sourcePoint" />
            <mxPoint x="590" y="280" as="targetPoint" />
          </mxGeometry>
        </mxCell>
        <mxCell id="_wsHeFZLS5RoO2i9bFP7-33" value="&lt;font style=&quot;font-size: 18px;&quot;&gt;1&lt;/font&gt;" style="edgeLabel;html=1;align=center;verticalAlign=middle;resizable=0;points=[];" parent="_wsHeFZLS5RoO2i9bFP7-10" vertex="1" connectable="0">
          <mxGeometry x="0.703" relative="1" as="geometry">
            <mxPoint as="offset" />
          </mxGeometry>
        </mxCell>
        <mxCell id="_wsHeFZLS5RoO2i9bFP7-13" value="PrincipleID" style="ellipse;whiteSpace=wrap;html=1;align=center;fontStyle=4;" parent="1" vertex="1">
          <mxGeometry x="30" y="160" width="100" height="40" as="geometry" />
        </mxCell>
        <mxCell id="_wsHeFZLS5RoO2i9bFP7-14" value="Email" style="ellipse;whiteSpace=wrap;html=1;align=center;" parent="1" vertex="1">
          <mxGeometry x="30" y="360" width="100" height="40" as="geometry" />
        </mxCell>
        <mxCell id="_wsHeFZLS5RoO2i9bFP7-15" value="Name" style="ellipse;whiteSpace=wrap;html=1;align=center;" parent="1" vertex="1">
          <mxGeometry x="190" y="160" width="100" height="40" as="geometry" />
        </mxCell>
        <mxCell id="_wsHeFZLS5RoO2i9bFP7-16" value="Contacts" style="ellipse;whiteSpace=wrap;html=1;align=center;" parent="1" vertex="1">
          <mxGeometry x="180" y="360" width="100" height="40" as="geometry" />
        </mxCell>
        <mxCell id="_wsHeFZLS5RoO2i9bFP7-17" value="" style="endArrow=none;html=1;rounded=0;entryX=0;entryY=1;entryDx=0;entryDy=0;" parent="1" source="_wsHeFZLS5RoO2i9bFP7-14" target="_wsHeFZLS5RoO2i9bFP7-5" edge="1">
          <mxGeometry relative="1" as="geometry">
            <mxPoint x="90" y="480" as="sourcePoint" />
            <mxPoint x="250" y="480" as="targetPoint" />
          </mxGeometry>
        </mxCell>
        <mxCell id="_wsHeFZLS5RoO2i9bFP7-18" value="" style="endArrow=none;html=1;rounded=0;entryX=0.5;entryY=1;entryDx=0;entryDy=0;exitX=0.5;exitY=0;exitDx=0;exitDy=0;" parent="1" source="_wsHeFZLS5RoO2i9bFP7-16" target="_wsHeFZLS5RoO2i9bFP7-5" edge="1">
          <mxGeometry relative="1" as="geometry">
            <mxPoint x="107" y="371" as="sourcePoint" />
            <mxPoint x="160" y="310" as="targetPoint" />
          </mxGeometry>
        </mxCell>
        <mxCell id="_wsHeFZLS5RoO2i9bFP7-19" value="" style="endArrow=none;html=1;rounded=0;exitX=0;exitY=0;exitDx=0;exitDy=0;" parent="1" source="_wsHeFZLS5RoO2i9bFP7-5" target="_wsHeFZLS5RoO2i9bFP7-13" edge="1">
          <mxGeometry relative="1" as="geometry">
            <mxPoint x="82.5" y="260" as="sourcePoint" />
            <mxPoint x="77.5" y="200" as="targetPoint" />
          </mxGeometry>
        </mxCell>
        <mxCell id="_wsHeFZLS5RoO2i9bFP7-20" value="" style="endArrow=none;html=1;rounded=0;entryX=0.5;entryY=1;entryDx=0;entryDy=0;exitX=0.5;exitY=0;exitDx=0;exitDy=0;" parent="1" source="_wsHeFZLS5RoO2i9bFP7-5" target="_wsHeFZLS5RoO2i9bFP7-15" edge="1">
          <mxGeometry relative="1" as="geometry">
            <mxPoint x="255" y="270" as="sourcePoint" />
            <mxPoint x="250" y="210" as="targetPoint" />
          </mxGeometry>
        </mxCell>
        <mxCell id="_wsHeFZLS5RoO2i9bFP7-21" value="Name" style="ellipse;whiteSpace=wrap;html=1;align=center;" parent="1" vertex="1">
          <mxGeometry x="590" y="160" width="100" height="40" as="geometry" />
        </mxCell>
        <mxCell id="_wsHeFZLS5RoO2i9bFP7-22" value="StudentID" style="ellipse;whiteSpace=wrap;html=1;align=center;" parent="1" vertex="1">
          <mxGeometry x="740" y="160" width="100" height="40" as="geometry" />
        </mxCell>
        <mxCell id="_wsHeFZLS5RoO2i9bFP7-24" value="Address" style="ellipse;whiteSpace=wrap;html=1;align=center;" parent="1" vertex="1">
          <mxGeometry x="740" y="360" width="100" height="40" as="geometry" />
        </mxCell>
        <mxCell id="_wsHeFZLS5RoO2i9bFP7-26" value="" style="endArrow=none;html=1;rounded=0;entryX=1;entryY=1;entryDx=0;entryDy=0;exitX=0.5;exitY=0;exitDx=0;exitDy=0;" parent="1" source="_wsHeFZLS5RoO2i9bFP7-24" target="_wsHeFZLS5RoO2i9bFP7-6" edge="1">
          <mxGeometry relative="1" as="geometry">
            <mxPoint x="705" y="370" as="sourcePoint" />
            <mxPoint x="700" y="310" as="targetPoint" />
          </mxGeometry>
        </mxCell>
        <mxCell id="_wsHeFZLS5RoO2i9bFP7-28" value="" style="endArrow=none;html=1;rounded=0;entryX=0.5;entryY=1;entryDx=0;entryDy=0;exitX=1;exitY=0;exitDx=0;exitDy=0;" parent="1" source="_wsHeFZLS5RoO2i9bFP7-6" target="_wsHeFZLS5RoO2i9bFP7-22" edge="1">
          <mxGeometry relative="1" as="geometry">
            <mxPoint x="795" y="270" as="sourcePoint" />
            <mxPoint x="790" y="210" as="targetPoint" />
          </mxGeometry>
        </mxCell>
        <mxCell id="_wsHeFZLS5RoO2i9bFP7-29" value="" style="endArrow=none;html=1;rounded=0;entryX=0.5;entryY=1;entryDx=0;entryDy=0;exitX=0.5;exitY=0;exitDx=0;exitDy=0;" parent="1" source="_wsHeFZLS5RoO2i9bFP7-6" target="_wsHeFZLS5RoO2i9bFP7-21" edge="1">
          <mxGeometry relative="1" as="geometry">
            <mxPoint x="535" y="250" as="sourcePoint" />
            <mxPoint x="530" y="190" as="targetPoint" />
          </mxGeometry>
        </mxCell>
        <mxCell id="_wsHeFZLS5RoO2i9bFP7-34" value="&lt;i&gt;PrincipleID&lt;/i&gt;" style="ellipse;whiteSpace=wrap;html=1;align=center;fontStyle=4;" parent="1" vertex="1">
          <mxGeometry x="590" y="370" width="100" height="40" as="geometry" />
        </mxCell>
        <mxCell id="_wsHeFZLS5RoO2i9bFP7-35" value="" style="endArrow=none;html=1;rounded=0;entryX=0.5;entryY=1;entryDx=0;entryDy=0;exitX=0.5;exitY=0;exitDx=0;exitDy=0;" parent="1" source="_wsHeFZLS5RoO2i9bFP7-34" target="_wsHeFZLS5RoO2i9bFP7-6" edge="1">
          <mxGeometry relative="1" as="geometry">
            <mxPoint x="440" y="390" as="sourcePoint" />
            <mxPoint x="600" y="390" as="targetPoint" />
          </mxGeometry>
        </mxCell>
        <mxCell id="_wsHeFZLS5RoO2i9bFP7-36" value="&lt;font style=&quot;font-size: 18px;&quot;&gt;&lt;u&gt;One to one relationship crow&#39;s foot notation&lt;/u&gt;&lt;/font&gt;" style="text;html=1;align=center;verticalAlign=middle;resizable=0;points=[];autosize=1;strokeColor=none;fillColor=none;" parent="1" vertex="1">
          <mxGeometry x="10" y="530" width="370" height="40" as="geometry" />
        </mxCell>
        <mxCell id="_wsHeFZLS5RoO2i9bFP7-37" value="Table" style="shape=table;startSize=30;container=1;collapsible=1;childLayout=tableLayout;fixedRows=1;rowLines=0;fontStyle=1;align=center;resizeLast=1;html=1;" parent="1" vertex="1">
          <mxGeometry x="110" y="660" width="180" height="180" as="geometry" />
        </mxCell>
        <mxCell id="_wsHeFZLS5RoO2i9bFP7-38" value="" style="shape=tableRow;horizontal=0;startSize=0;swimlaneHead=0;swimlaneBody=0;fillColor=none;collapsible=0;dropTarget=0;points=[[0,0.5],[1,0.5]];portConstraint=eastwest;top=0;left=0;right=0;bottom=1;" parent="_wsHeFZLS5RoO2i9bFP7-37" vertex="1">
          <mxGeometry y="30" width="180" height="30" as="geometry" />
        </mxCell>
        <mxCell id="_wsHeFZLS5RoO2i9bFP7-39" value="PK" style="shape=partialRectangle;connectable=0;fillColor=none;top=0;left=0;bottom=0;right=0;fontStyle=1;overflow=hidden;whiteSpace=wrap;html=1;" parent="_wsHeFZLS5RoO2i9bFP7-38" vertex="1">
          <mxGeometry width="30" height="30" as="geometry">
            <mxRectangle width="30" height="30" as="alternateBounds" />
          </mxGeometry>
        </mxCell>
        <mxCell id="_wsHeFZLS5RoO2i9bFP7-40" value="SchoolID" style="shape=partialRectangle;connectable=0;fillColor=none;top=0;left=0;bottom=0;right=0;align=left;spacingLeft=6;fontStyle=5;overflow=hidden;whiteSpace=wrap;html=1;" parent="_wsHeFZLS5RoO2i9bFP7-38" vertex="1">
          <mxGeometry x="30" width="150" height="30" as="geometry">
            <mxRectangle width="150" height="30" as="alternateBounds" />
          </mxGeometry>
        </mxCell>
        <mxCell id="_wsHeFZLS5RoO2i9bFP7-41" value="" style="shape=tableRow;horizontal=0;startSize=0;swimlaneHead=0;swimlaneBody=0;fillColor=none;collapsible=0;dropTarget=0;points=[[0,0.5],[1,0.5]];portConstraint=eastwest;top=0;left=0;right=0;bottom=0;" parent="_wsHeFZLS5RoO2i9bFP7-37" vertex="1">
          <mxGeometry y="60" width="180" height="30" as="geometry" />
        </mxCell>
        <mxCell id="_wsHeFZLS5RoO2i9bFP7-42" value="" style="shape=partialRectangle;connectable=0;fillColor=none;top=0;left=0;bottom=0;right=0;editable=1;overflow=hidden;whiteSpace=wrap;html=1;" parent="_wsHeFZLS5RoO2i9bFP7-41" vertex="1">
          <mxGeometry width="30" height="30" as="geometry">
            <mxRectangle width="30" height="30" as="alternateBounds" />
          </mxGeometry>
        </mxCell>
        <mxCell id="_wsHeFZLS5RoO2i9bFP7-43" value="Name" style="shape=partialRectangle;connectable=0;fillColor=none;top=0;left=0;bottom=0;right=0;align=left;spacingLeft=6;overflow=hidden;whiteSpace=wrap;html=1;" parent="_wsHeFZLS5RoO2i9bFP7-41" vertex="1">
          <mxGeometry x="30" width="150" height="30" as="geometry">
            <mxRectangle width="150" height="30" as="alternateBounds" />
          </mxGeometry>
        </mxCell>
        <mxCell id="_wsHeFZLS5RoO2i9bFP7-44" value="" style="shape=tableRow;horizontal=0;startSize=0;swimlaneHead=0;swimlaneBody=0;fillColor=none;collapsible=0;dropTarget=0;points=[[0,0.5],[1,0.5]];portConstraint=eastwest;top=0;left=0;right=0;bottom=0;" parent="_wsHeFZLS5RoO2i9bFP7-37" vertex="1">
          <mxGeometry y="90" width="180" height="30" as="geometry" />
        </mxCell>
        <mxCell id="_wsHeFZLS5RoO2i9bFP7-45" value="" style="shape=partialRectangle;connectable=0;fillColor=none;top=0;left=0;bottom=0;right=0;editable=1;overflow=hidden;whiteSpace=wrap;html=1;" parent="_wsHeFZLS5RoO2i9bFP7-44" vertex="1">
          <mxGeometry width="30" height="30" as="geometry">
            <mxRectangle width="30" height="30" as="alternateBounds" />
          </mxGeometry>
        </mxCell>
        <mxCell id="_wsHeFZLS5RoO2i9bFP7-46" value="StudentID" style="shape=partialRectangle;connectable=0;fillColor=none;top=0;left=0;bottom=0;right=0;align=left;spacingLeft=6;overflow=hidden;whiteSpace=wrap;html=1;" parent="_wsHeFZLS5RoO2i9bFP7-44" vertex="1">
          <mxGeometry x="30" width="150" height="30" as="geometry">
            <mxRectangle width="150" height="30" as="alternateBounds" />
          </mxGeometry>
        </mxCell>
        <mxCell id="_wsHeFZLS5RoO2i9bFP7-47" value="" style="shape=tableRow;horizontal=0;startSize=0;swimlaneHead=0;swimlaneBody=0;fillColor=none;collapsible=0;dropTarget=0;points=[[0,0.5],[1,0.5]];portConstraint=eastwest;top=0;left=0;right=0;bottom=0;" parent="_wsHeFZLS5RoO2i9bFP7-37" vertex="1">
          <mxGeometry y="120" width="180" height="30" as="geometry" />
        </mxCell>
        <mxCell id="_wsHeFZLS5RoO2i9bFP7-48" value="" style="shape=partialRectangle;connectable=0;fillColor=none;top=0;left=0;bottom=0;right=0;editable=1;overflow=hidden;whiteSpace=wrap;html=1;" parent="_wsHeFZLS5RoO2i9bFP7-47" vertex="1">
          <mxGeometry width="30" height="30" as="geometry">
            <mxRectangle width="30" height="30" as="alternateBounds" />
          </mxGeometry>
        </mxCell>
        <mxCell id="_wsHeFZLS5RoO2i9bFP7-49" value="Address" style="shape=partialRectangle;connectable=0;fillColor=none;top=0;left=0;bottom=0;right=0;align=left;spacingLeft=6;overflow=hidden;whiteSpace=wrap;html=1;" parent="_wsHeFZLS5RoO2i9bFP7-47" vertex="1">
          <mxGeometry x="30" width="150" height="30" as="geometry">
            <mxRectangle width="150" height="30" as="alternateBounds" />
          </mxGeometry>
        </mxCell>
        <mxCell id="_wsHeFZLS5RoO2i9bFP7-63" value="" style="shape=tableRow;horizontal=0;startSize=0;swimlaneHead=0;swimlaneBody=0;fillColor=none;collapsible=0;dropTarget=0;points=[[0,0.5],[1,0.5]];portConstraint=eastwest;top=0;left=0;right=0;bottom=0;" parent="_wsHeFZLS5RoO2i9bFP7-37" vertex="1">
          <mxGeometry y="150" width="180" height="30" as="geometry" />
        </mxCell>
        <mxCell id="_wsHeFZLS5RoO2i9bFP7-64" value="FK" style="shape=partialRectangle;connectable=0;fillColor=none;top=0;left=0;bottom=0;right=0;editable=1;overflow=hidden;whiteSpace=wrap;html=1;" parent="_wsHeFZLS5RoO2i9bFP7-63" vertex="1">
          <mxGeometry width="30" height="30" as="geometry">
            <mxRectangle width="30" height="30" as="alternateBounds" />
          </mxGeometry>
        </mxCell>
        <mxCell id="_wsHeFZLS5RoO2i9bFP7-65" value="&lt;i&gt;PrincipleID&lt;/i&gt;" style="shape=partialRectangle;connectable=0;fillColor=none;top=0;left=0;bottom=0;right=0;align=left;spacingLeft=6;overflow=hidden;whiteSpace=wrap;html=1;" parent="_wsHeFZLS5RoO2i9bFP7-63" vertex="1">
          <mxGeometry x="30" width="150" height="30" as="geometry">
            <mxRectangle width="150" height="30" as="alternateBounds" />
          </mxGeometry>
        </mxCell>
        <mxCell id="_wsHeFZLS5RoO2i9bFP7-50" value="Principle" style="shape=table;startSize=30;container=1;collapsible=1;childLayout=tableLayout;fixedRows=1;rowLines=0;fontStyle=1;align=center;resizeLast=1;html=1;" parent="1" vertex="1">
          <mxGeometry x="550" y="660" width="180" height="150" as="geometry" />
        </mxCell>
        <mxCell id="_wsHeFZLS5RoO2i9bFP7-51" value="" style="shape=tableRow;horizontal=0;startSize=0;swimlaneHead=0;swimlaneBody=0;fillColor=none;collapsible=0;dropTarget=0;points=[[0,0.5],[1,0.5]];portConstraint=eastwest;top=0;left=0;right=0;bottom=1;" parent="_wsHeFZLS5RoO2i9bFP7-50" vertex="1">
          <mxGeometry y="30" width="180" height="30" as="geometry" />
        </mxCell>
        <mxCell id="_wsHeFZLS5RoO2i9bFP7-52" value="PK" style="shape=partialRectangle;connectable=0;fillColor=none;top=0;left=0;bottom=0;right=0;fontStyle=1;overflow=hidden;whiteSpace=wrap;html=1;" parent="_wsHeFZLS5RoO2i9bFP7-51" vertex="1">
          <mxGeometry width="30" height="30" as="geometry">
            <mxRectangle width="30" height="30" as="alternateBounds" />
          </mxGeometry>
        </mxCell>
        <mxCell id="_wsHeFZLS5RoO2i9bFP7-53" value="Principle" style="shape=partialRectangle;connectable=0;fillColor=none;top=0;left=0;bottom=0;right=0;align=left;spacingLeft=6;fontStyle=5;overflow=hidden;whiteSpace=wrap;html=1;" parent="_wsHeFZLS5RoO2i9bFP7-51" vertex="1">
          <mxGeometry x="30" width="150" height="30" as="geometry">
            <mxRectangle width="150" height="30" as="alternateBounds" />
          </mxGeometry>
        </mxCell>
        <mxCell id="_wsHeFZLS5RoO2i9bFP7-54" value="" style="shape=tableRow;horizontal=0;startSize=0;swimlaneHead=0;swimlaneBody=0;fillColor=none;collapsible=0;dropTarget=0;points=[[0,0.5],[1,0.5]];portConstraint=eastwest;top=0;left=0;right=0;bottom=0;" parent="_wsHeFZLS5RoO2i9bFP7-50" vertex="1">
          <mxGeometry y="60" width="180" height="30" as="geometry" />
        </mxCell>
        <mxCell id="_wsHeFZLS5RoO2i9bFP7-55" value="" style="shape=partialRectangle;connectable=0;fillColor=none;top=0;left=0;bottom=0;right=0;editable=1;overflow=hidden;whiteSpace=wrap;html=1;" parent="_wsHeFZLS5RoO2i9bFP7-54" vertex="1">
          <mxGeometry width="30" height="30" as="geometry">
            <mxRectangle width="30" height="30" as="alternateBounds" />
          </mxGeometry>
        </mxCell>
        <mxCell id="_wsHeFZLS5RoO2i9bFP7-56" value="Name" style="shape=partialRectangle;connectable=0;fillColor=none;top=0;left=0;bottom=0;right=0;align=left;spacingLeft=6;overflow=hidden;whiteSpace=wrap;html=1;" parent="_wsHeFZLS5RoO2i9bFP7-54" vertex="1">
          <mxGeometry x="30" width="150" height="30" as="geometry">
            <mxRectangle width="150" height="30" as="alternateBounds" />
          </mxGeometry>
        </mxCell>
        <mxCell id="_wsHeFZLS5RoO2i9bFP7-57" value="" style="shape=tableRow;horizontal=0;startSize=0;swimlaneHead=0;swimlaneBody=0;fillColor=none;collapsible=0;dropTarget=0;points=[[0,0.5],[1,0.5]];portConstraint=eastwest;top=0;left=0;right=0;bottom=0;" parent="_wsHeFZLS5RoO2i9bFP7-50" vertex="1">
          <mxGeometry y="90" width="180" height="30" as="geometry" />
        </mxCell>
        <mxCell id="_wsHeFZLS5RoO2i9bFP7-58" value="" style="shape=partialRectangle;connectable=0;fillColor=none;top=0;left=0;bottom=0;right=0;editable=1;overflow=hidden;whiteSpace=wrap;html=1;" parent="_wsHeFZLS5RoO2i9bFP7-57" vertex="1">
          <mxGeometry width="30" height="30" as="geometry">
            <mxRectangle width="30" height="30" as="alternateBounds" />
          </mxGeometry>
        </mxCell>
        <mxCell id="_wsHeFZLS5RoO2i9bFP7-59" value="Email" style="shape=partialRectangle;connectable=0;fillColor=none;top=0;left=0;bottom=0;right=0;align=left;spacingLeft=6;overflow=hidden;whiteSpace=wrap;html=1;" parent="_wsHeFZLS5RoO2i9bFP7-57" vertex="1">
          <mxGeometry x="30" width="150" height="30" as="geometry">
            <mxRectangle width="150" height="30" as="alternateBounds" />
          </mxGeometry>
        </mxCell>
        <mxCell id="_wsHeFZLS5RoO2i9bFP7-60" value="" style="shape=tableRow;horizontal=0;startSize=0;swimlaneHead=0;swimlaneBody=0;fillColor=none;collapsible=0;dropTarget=0;points=[[0,0.5],[1,0.5]];portConstraint=eastwest;top=0;left=0;right=0;bottom=0;" parent="_wsHeFZLS5RoO2i9bFP7-50" vertex="1">
          <mxGeometry y="120" width="180" height="30" as="geometry" />
        </mxCell>
        <mxCell id="_wsHeFZLS5RoO2i9bFP7-61" value="" style="shape=partialRectangle;connectable=0;fillColor=none;top=0;left=0;bottom=0;right=0;editable=1;overflow=hidden;whiteSpace=wrap;html=1;" parent="_wsHeFZLS5RoO2i9bFP7-60" vertex="1">
          <mxGeometry width="30" height="30" as="geometry">
            <mxRectangle width="30" height="30" as="alternateBounds" />
          </mxGeometry>
        </mxCell>
        <mxCell id="_wsHeFZLS5RoO2i9bFP7-62" value="Contacts" style="shape=partialRectangle;connectable=0;fillColor=none;top=0;left=0;bottom=0;right=0;align=left;spacingLeft=6;overflow=hidden;whiteSpace=wrap;html=1;" parent="_wsHeFZLS5RoO2i9bFP7-60" vertex="1">
          <mxGeometry x="30" width="150" height="30" as="geometry">
            <mxRectangle width="150" height="30" as="alternateBounds" />
          </mxGeometry>
        </mxCell>
        <mxCell id="_wsHeFZLS5RoO2i9bFP7-84" value="" style="edgeStyle=entityRelationEdgeStyle;fontSize=12;html=1;endArrow=ERmandOne;startArrow=ERmandOne;rounded=0;exitX=1;exitY=0.5;exitDx=0;exitDy=0;" parent="1" source="_wsHeFZLS5RoO2i9bFP7-44" target="_wsHeFZLS5RoO2i9bFP7-57" edge="1">
          <mxGeometry width="100" height="100" relative="1" as="geometry">
            <mxPoint x="310" y="770" as="sourcePoint" />
            <mxPoint x="550" y="770" as="targetPoint" />
          </mxGeometry>
        </mxCell>
        <mxCell id="_wsHeFZLS5RoO2i9bFP7-122" value="&lt;font style=&quot;font-size: 14px;&quot;&gt;Manage&lt;/font&gt;" style="edgeLabel;html=1;align=center;verticalAlign=middle;resizable=0;points=[];" parent="_wsHeFZLS5RoO2i9bFP7-84" vertex="1" connectable="0">
          <mxGeometry x="0.0231" y="2" relative="1" as="geometry">
            <mxPoint as="offset" />
          </mxGeometry>
        </mxCell>
        <mxCell id="_wsHeFZLS5RoO2i9bFP7-86" value="Table" style="shape=table;startSize=30;container=1;collapsible=1;childLayout=tableLayout;fixedRows=1;rowLines=0;fontStyle=1;align=center;resizeLast=1;html=1;" parent="1" vertex="1">
          <mxGeometry x="80" y="1190" width="180" height="180" as="geometry" />
        </mxCell>
        <mxCell id="_wsHeFZLS5RoO2i9bFP7-87" value="" style="shape=tableRow;horizontal=0;startSize=0;swimlaneHead=0;swimlaneBody=0;fillColor=none;collapsible=0;dropTarget=0;points=[[0,0.5],[1,0.5]];portConstraint=eastwest;top=0;left=0;right=0;bottom=1;" parent="_wsHeFZLS5RoO2i9bFP7-86" vertex="1">
          <mxGeometry y="30" width="180" height="30" as="geometry" />
        </mxCell>
        <mxCell id="_wsHeFZLS5RoO2i9bFP7-88" value="PK" style="shape=partialRectangle;connectable=0;fillColor=none;top=0;left=0;bottom=0;right=0;fontStyle=1;overflow=hidden;whiteSpace=wrap;html=1;" parent="_wsHeFZLS5RoO2i9bFP7-87" vertex="1">
          <mxGeometry width="30" height="30" as="geometry">
            <mxRectangle width="30" height="30" as="alternateBounds" />
          </mxGeometry>
        </mxCell>
        <mxCell id="_wsHeFZLS5RoO2i9bFP7-89" value="SchoolID" style="shape=partialRectangle;connectable=0;fillColor=none;top=0;left=0;bottom=0;right=0;align=left;spacingLeft=6;fontStyle=5;overflow=hidden;whiteSpace=wrap;html=1;" parent="_wsHeFZLS5RoO2i9bFP7-87" vertex="1">
          <mxGeometry x="30" width="150" height="30" as="geometry">
            <mxRectangle width="150" height="30" as="alternateBounds" />
          </mxGeometry>
        </mxCell>
        <mxCell id="_wsHeFZLS5RoO2i9bFP7-90" value="" style="shape=tableRow;horizontal=0;startSize=0;swimlaneHead=0;swimlaneBody=0;fillColor=none;collapsible=0;dropTarget=0;points=[[0,0.5],[1,0.5]];portConstraint=eastwest;top=0;left=0;right=0;bottom=0;" parent="_wsHeFZLS5RoO2i9bFP7-86" vertex="1">
          <mxGeometry y="60" width="180" height="30" as="geometry" />
        </mxCell>
        <mxCell id="_wsHeFZLS5RoO2i9bFP7-91" value="" style="shape=partialRectangle;connectable=0;fillColor=none;top=0;left=0;bottom=0;right=0;editable=1;overflow=hidden;whiteSpace=wrap;html=1;" parent="_wsHeFZLS5RoO2i9bFP7-90" vertex="1">
          <mxGeometry width="30" height="30" as="geometry">
            <mxRectangle width="30" height="30" as="alternateBounds" />
          </mxGeometry>
        </mxCell>
        <mxCell id="_wsHeFZLS5RoO2i9bFP7-92" value="Name" style="shape=partialRectangle;connectable=0;fillColor=none;top=0;left=0;bottom=0;right=0;align=left;spacingLeft=6;overflow=hidden;whiteSpace=wrap;html=1;" parent="_wsHeFZLS5RoO2i9bFP7-90" vertex="1">
          <mxGeometry x="30" width="150" height="30" as="geometry">
            <mxRectangle width="150" height="30" as="alternateBounds" />
          </mxGeometry>
        </mxCell>
        <mxCell id="_wsHeFZLS5RoO2i9bFP7-93" value="" style="shape=tableRow;horizontal=0;startSize=0;swimlaneHead=0;swimlaneBody=0;fillColor=none;collapsible=0;dropTarget=0;points=[[0,0.5],[1,0.5]];portConstraint=eastwest;top=0;left=0;right=0;bottom=0;" parent="_wsHeFZLS5RoO2i9bFP7-86" vertex="1">
          <mxGeometry y="90" width="180" height="30" as="geometry" />
        </mxCell>
        <mxCell id="_wsHeFZLS5RoO2i9bFP7-94" value="" style="shape=partialRectangle;connectable=0;fillColor=none;top=0;left=0;bottom=0;right=0;editable=1;overflow=hidden;whiteSpace=wrap;html=1;" parent="_wsHeFZLS5RoO2i9bFP7-93" vertex="1">
          <mxGeometry width="30" height="30" as="geometry">
            <mxRectangle width="30" height="30" as="alternateBounds" />
          </mxGeometry>
        </mxCell>
        <mxCell id="_wsHeFZLS5RoO2i9bFP7-95" value="StudentID" style="shape=partialRectangle;connectable=0;fillColor=none;top=0;left=0;bottom=0;right=0;align=left;spacingLeft=6;overflow=hidden;whiteSpace=wrap;html=1;" parent="_wsHeFZLS5RoO2i9bFP7-93" vertex="1">
          <mxGeometry x="30" width="150" height="30" as="geometry">
            <mxRectangle width="150" height="30" as="alternateBounds" />
          </mxGeometry>
        </mxCell>
        <mxCell id="_wsHeFZLS5RoO2i9bFP7-96" value="" style="shape=tableRow;horizontal=0;startSize=0;swimlaneHead=0;swimlaneBody=0;fillColor=none;collapsible=0;dropTarget=0;points=[[0,0.5],[1,0.5]];portConstraint=eastwest;top=0;left=0;right=0;bottom=0;" parent="_wsHeFZLS5RoO2i9bFP7-86" vertex="1">
          <mxGeometry y="120" width="180" height="30" as="geometry" />
        </mxCell>
        <mxCell id="_wsHeFZLS5RoO2i9bFP7-97" value="" style="shape=partialRectangle;connectable=0;fillColor=none;top=0;left=0;bottom=0;right=0;editable=1;overflow=hidden;whiteSpace=wrap;html=1;" parent="_wsHeFZLS5RoO2i9bFP7-96" vertex="1">
          <mxGeometry width="30" height="30" as="geometry">
            <mxRectangle width="30" height="30" as="alternateBounds" />
          </mxGeometry>
        </mxCell>
        <mxCell id="_wsHeFZLS5RoO2i9bFP7-98" value="Address" style="shape=partialRectangle;connectable=0;fillColor=none;top=0;left=0;bottom=0;right=0;align=left;spacingLeft=6;overflow=hidden;whiteSpace=wrap;html=1;" parent="_wsHeFZLS5RoO2i9bFP7-96" vertex="1">
          <mxGeometry x="30" width="150" height="30" as="geometry">
            <mxRectangle width="150" height="30" as="alternateBounds" />
          </mxGeometry>
        </mxCell>
        <mxCell id="_wsHeFZLS5RoO2i9bFP7-99" value="" style="shape=tableRow;horizontal=0;startSize=0;swimlaneHead=0;swimlaneBody=0;fillColor=none;collapsible=0;dropTarget=0;points=[[0,0.5],[1,0.5]];portConstraint=eastwest;top=0;left=0;right=0;bottom=0;" parent="_wsHeFZLS5RoO2i9bFP7-86" vertex="1">
          <mxGeometry y="150" width="180" height="30" as="geometry" />
        </mxCell>
        <mxCell id="_wsHeFZLS5RoO2i9bFP7-100" value="FK" style="shape=partialRectangle;connectable=0;fillColor=none;top=0;left=0;bottom=0;right=0;editable=1;overflow=hidden;whiteSpace=wrap;html=1;" parent="_wsHeFZLS5RoO2i9bFP7-99" vertex="1">
          <mxGeometry width="30" height="30" as="geometry">
            <mxRectangle width="30" height="30" as="alternateBounds" />
          </mxGeometry>
        </mxCell>
        <mxCell id="_wsHeFZLS5RoO2i9bFP7-101" value="&lt;i&gt;PrincipleID&lt;/i&gt;" style="shape=partialRectangle;connectable=0;fillColor=none;top=0;left=0;bottom=0;right=0;align=left;spacingLeft=6;overflow=hidden;whiteSpace=wrap;html=1;" parent="_wsHeFZLS5RoO2i9bFP7-99" vertex="1">
          <mxGeometry x="30" width="150" height="30" as="geometry">
            <mxRectangle width="150" height="30" as="alternateBounds" />
          </mxGeometry>
        </mxCell>
        <mxCell id="_wsHeFZLS5RoO2i9bFP7-102" value="Principle" style="shape=table;startSize=30;container=1;collapsible=1;childLayout=tableLayout;fixedRows=1;rowLines=0;fontStyle=1;align=center;resizeLast=1;html=1;" parent="1" vertex="1">
          <mxGeometry x="90" y="920" width="180" height="150" as="geometry" />
        </mxCell>
        <mxCell id="_wsHeFZLS5RoO2i9bFP7-103" value="" style="shape=tableRow;horizontal=0;startSize=0;swimlaneHead=0;swimlaneBody=0;fillColor=none;collapsible=0;dropTarget=0;points=[[0,0.5],[1,0.5]];portConstraint=eastwest;top=0;left=0;right=0;bottom=1;" parent="_wsHeFZLS5RoO2i9bFP7-102" vertex="1">
          <mxGeometry y="30" width="180" height="30" as="geometry" />
        </mxCell>
        <mxCell id="_wsHeFZLS5RoO2i9bFP7-104" value="PK" style="shape=partialRectangle;connectable=0;fillColor=none;top=0;left=0;bottom=0;right=0;fontStyle=1;overflow=hidden;whiteSpace=wrap;html=1;" parent="_wsHeFZLS5RoO2i9bFP7-103" vertex="1">
          <mxGeometry width="30" height="30" as="geometry">
            <mxRectangle width="30" height="30" as="alternateBounds" />
          </mxGeometry>
        </mxCell>
        <mxCell id="_wsHeFZLS5RoO2i9bFP7-105" value="Principle" style="shape=partialRectangle;connectable=0;fillColor=none;top=0;left=0;bottom=0;right=0;align=left;spacingLeft=6;fontStyle=5;overflow=hidden;whiteSpace=wrap;html=1;" parent="_wsHeFZLS5RoO2i9bFP7-103" vertex="1">
          <mxGeometry x="30" width="150" height="30" as="geometry">
            <mxRectangle width="150" height="30" as="alternateBounds" />
          </mxGeometry>
        </mxCell>
        <mxCell id="_wsHeFZLS5RoO2i9bFP7-106" value="" style="shape=tableRow;horizontal=0;startSize=0;swimlaneHead=0;swimlaneBody=0;fillColor=none;collapsible=0;dropTarget=0;points=[[0,0.5],[1,0.5]];portConstraint=eastwest;top=0;left=0;right=0;bottom=0;" parent="_wsHeFZLS5RoO2i9bFP7-102" vertex="1">
          <mxGeometry y="60" width="180" height="30" as="geometry" />
        </mxCell>
        <mxCell id="_wsHeFZLS5RoO2i9bFP7-107" value="" style="shape=partialRectangle;connectable=0;fillColor=none;top=0;left=0;bottom=0;right=0;editable=1;overflow=hidden;whiteSpace=wrap;html=1;" parent="_wsHeFZLS5RoO2i9bFP7-106" vertex="1">
          <mxGeometry width="30" height="30" as="geometry">
            <mxRectangle width="30" height="30" as="alternateBounds" />
          </mxGeometry>
        </mxCell>
        <mxCell id="_wsHeFZLS5RoO2i9bFP7-108" value="Name" style="shape=partialRectangle;connectable=0;fillColor=none;top=0;left=0;bottom=0;right=0;align=left;spacingLeft=6;overflow=hidden;whiteSpace=wrap;html=1;" parent="_wsHeFZLS5RoO2i9bFP7-106" vertex="1">
          <mxGeometry x="30" width="150" height="30" as="geometry">
            <mxRectangle width="150" height="30" as="alternateBounds" />
          </mxGeometry>
        </mxCell>
        <mxCell id="_wsHeFZLS5RoO2i9bFP7-109" value="" style="shape=tableRow;horizontal=0;startSize=0;swimlaneHead=0;swimlaneBody=0;fillColor=none;collapsible=0;dropTarget=0;points=[[0,0.5],[1,0.5]];portConstraint=eastwest;top=0;left=0;right=0;bottom=0;" parent="_wsHeFZLS5RoO2i9bFP7-102" vertex="1">
          <mxGeometry y="90" width="180" height="30" as="geometry" />
        </mxCell>
        <mxCell id="_wsHeFZLS5RoO2i9bFP7-110" value="" style="shape=partialRectangle;connectable=0;fillColor=none;top=0;left=0;bottom=0;right=0;editable=1;overflow=hidden;whiteSpace=wrap;html=1;" parent="_wsHeFZLS5RoO2i9bFP7-109" vertex="1">
          <mxGeometry width="30" height="30" as="geometry">
            <mxRectangle width="30" height="30" as="alternateBounds" />
          </mxGeometry>
        </mxCell>
        <mxCell id="_wsHeFZLS5RoO2i9bFP7-111" value="Email" style="shape=partialRectangle;connectable=0;fillColor=none;top=0;left=0;bottom=0;right=0;align=left;spacingLeft=6;overflow=hidden;whiteSpace=wrap;html=1;" parent="_wsHeFZLS5RoO2i9bFP7-109" vertex="1">
          <mxGeometry x="30" width="150" height="30" as="geometry">
            <mxRectangle width="150" height="30" as="alternateBounds" />
          </mxGeometry>
        </mxCell>
        <mxCell id="_wsHeFZLS5RoO2i9bFP7-112" value="" style="shape=tableRow;horizontal=0;startSize=0;swimlaneHead=0;swimlaneBody=0;fillColor=none;collapsible=0;dropTarget=0;points=[[0,0.5],[1,0.5]];portConstraint=eastwest;top=0;left=0;right=0;bottom=0;" parent="_wsHeFZLS5RoO2i9bFP7-102" vertex="1">
          <mxGeometry y="120" width="180" height="30" as="geometry" />
        </mxCell>
        <mxCell id="_wsHeFZLS5RoO2i9bFP7-113" value="" style="shape=partialRectangle;connectable=0;fillColor=none;top=0;left=0;bottom=0;right=0;editable=1;overflow=hidden;whiteSpace=wrap;html=1;" parent="_wsHeFZLS5RoO2i9bFP7-112" vertex="1">
          <mxGeometry width="30" height="30" as="geometry">
            <mxRectangle width="30" height="30" as="alternateBounds" />
          </mxGeometry>
        </mxCell>
        <mxCell id="_wsHeFZLS5RoO2i9bFP7-114" value="Contacts" style="shape=partialRectangle;connectable=0;fillColor=none;top=0;left=0;bottom=0;right=0;align=left;spacingLeft=6;overflow=hidden;whiteSpace=wrap;html=1;" parent="_wsHeFZLS5RoO2i9bFP7-112" vertex="1">
          <mxGeometry x="30" width="150" height="30" as="geometry">
            <mxRectangle width="150" height="30" as="alternateBounds" />
          </mxGeometry>
        </mxCell>
        <mxCell id="_wsHeFZLS5RoO2i9bFP7-116" value="" style="fontSize=12;html=1;endArrow=ERmandOne;startArrow=ERmandOne;rounded=0;entryX=0.431;entryY=1.011;entryDx=0;entryDy=0;exitX=0.5;exitY=0;exitDx=0;exitDy=0;entryPerimeter=0;" parent="1" source="_wsHeFZLS5RoO2i9bFP7-86" target="_wsHeFZLS5RoO2i9bFP7-112" edge="1">
          <mxGeometry width="100" height="100" relative="1" as="geometry">
            <mxPoint x="290" y="1355" as="sourcePoint" />
            <mxPoint x="550" y="1235" as="targetPoint" />
          </mxGeometry>
        </mxCell>
        <mxCell id="_wsHeFZLS5RoO2i9bFP7-119" value="Text" style="edgeLabel;html=1;align=center;verticalAlign=middle;resizable=0;points=[];" parent="_wsHeFZLS5RoO2i9bFP7-116" vertex="1" connectable="0">
          <mxGeometry x="-0.0085" relative="1" as="geometry">
            <mxPoint as="offset" />
          </mxGeometry>
        </mxCell>
        <mxCell id="_wsHeFZLS5RoO2i9bFP7-121" value="&lt;font style=&quot;font-size: 14px;&quot;&gt;Manage&lt;/font&gt;" style="edgeLabel;html=1;align=center;verticalAlign=middle;resizable=0;points=[];" parent="_wsHeFZLS5RoO2i9bFP7-116" vertex="1" connectable="0">
          <mxGeometry x="-0.0258" y="-2" relative="1" as="geometry">
            <mxPoint as="offset" />
          </mxGeometry>
        </mxCell>
      </root>
    </mxGraphModel>
  </diagram>
  <diagram id="LYFyq-WHO3GMI2HX_MtZ" name="Page-2">
    <mxGraphModel dx="1221" dy="759" grid="1" gridSize="10" guides="1" tooltips="1" connect="1" arrows="1" fold="1" page="1" pageScale="1" pageWidth="850" pageHeight="1100" math="0" shadow="0">
      <root>
        <mxCell id="0" />
        <mxCell id="1" parent="0" />
        <mxCell id="j-DOlCZ1fkCH3H0b3F_s-1" value="&lt;font style=&quot;font-size: 18px;&quot;&gt;One to many relationship - chen&#39;s notation&lt;/font&gt;" style="text;html=1;align=center;verticalAlign=middle;resizable=0;points=[];autosize=1;strokeColor=none;fillColor=none;" parent="1" vertex="1">
          <mxGeometry x="20" y="20" width="360" height="40" as="geometry" />
        </mxCell>
        <mxCell id="j-DOlCZ1fkCH3H0b3F_s-2" value="Patient" style="whiteSpace=wrap;html=1;align=center;" parent="1" vertex="1">
          <mxGeometry x="375" y="110" width="100" height="40" as="geometry" />
        </mxCell>
        <mxCell id="j-DOlCZ1fkCH3H0b3F_s-3" value="Relationship" style="shape=rhombus;perimeter=rhombusPerimeter;whiteSpace=wrap;html=1;align=center;" parent="1" vertex="1">
          <mxGeometry x="365" y="260" width="120" height="60" as="geometry" />
        </mxCell>
        <mxCell id="j-DOlCZ1fkCH3H0b3F_s-4" value="Appointment" style="whiteSpace=wrap;html=1;align=center;" parent="1" vertex="1">
          <mxGeometry x="375" y="450" width="100" height="40" as="geometry" />
        </mxCell>
        <mxCell id="j-DOlCZ1fkCH3H0b3F_s-5" value="" style="endArrow=none;html=1;rounded=0;" parent="1" source="j-DOlCZ1fkCH3H0b3F_s-2" target="j-DOlCZ1fkCH3H0b3F_s-3" edge="1">
          <mxGeometry relative="1" as="geometry">
            <mxPoint x="340" y="390" as="sourcePoint" />
            <mxPoint x="500" y="390" as="targetPoint" />
          </mxGeometry>
        </mxCell>
        <mxCell id="j-DOlCZ1fkCH3H0b3F_s-31" value="&lt;font style=&quot;font-size: 14px;&quot;&gt;1&lt;/font&gt;" style="edgeLabel;html=1;align=center;verticalAlign=middle;resizable=0;points=[];" parent="j-DOlCZ1fkCH3H0b3F_s-5" vertex="1" connectable="0">
          <mxGeometry x="-0.7515" relative="1" as="geometry">
            <mxPoint as="offset" />
          </mxGeometry>
        </mxCell>
        <mxCell id="j-DOlCZ1fkCH3H0b3F_s-6" value="" style="endArrow=none;html=1;rounded=0;exitX=0.5;exitY=1;exitDx=0;exitDy=0;" parent="1" source="j-DOlCZ1fkCH3H0b3F_s-3" target="j-DOlCZ1fkCH3H0b3F_s-4" edge="1">
          <mxGeometry relative="1" as="geometry">
            <mxPoint x="424" y="330" as="sourcePoint" />
            <mxPoint x="424" y="440" as="targetPoint" />
          </mxGeometry>
        </mxCell>
        <mxCell id="j-DOlCZ1fkCH3H0b3F_s-32" value="&lt;span style=&quot;font-size: 14px;&quot;&gt;1..M&lt;/span&gt;" style="edgeLabel;html=1;align=center;verticalAlign=middle;resizable=0;points=[];" parent="j-DOlCZ1fkCH3H0b3F_s-6" vertex="1" connectable="0">
          <mxGeometry x="0.6462" y="-1" relative="1" as="geometry">
            <mxPoint as="offset" />
          </mxGeometry>
        </mxCell>
        <mxCell id="j-DOlCZ1fkCH3H0b3F_s-8" value="PatientID" style="ellipse;whiteSpace=wrap;html=1;align=center;fontStyle=4;" parent="1" vertex="1">
          <mxGeometry x="210" y="100" width="100" height="40" as="geometry" />
        </mxCell>
        <mxCell id="j-DOlCZ1fkCH3H0b3F_s-9" value="" style="endArrow=none;html=1;rounded=0;exitX=1;exitY=0.5;exitDx=0;exitDy=0;entryX=0;entryY=0.5;entryDx=0;entryDy=0;" parent="1" source="j-DOlCZ1fkCH3H0b3F_s-8" target="j-DOlCZ1fkCH3H0b3F_s-2" edge="1">
          <mxGeometry relative="1" as="geometry">
            <mxPoint x="445" y="170" as="sourcePoint" />
            <mxPoint x="445" y="280" as="targetPoint" />
          </mxGeometry>
        </mxCell>
        <mxCell id="j-DOlCZ1fkCH3H0b3F_s-11" value="" style="endArrow=none;html=1;rounded=0;exitX=0;exitY=0.5;exitDx=0;exitDy=0;entryX=1;entryY=0.5;entryDx=0;entryDy=0;" parent="1" target="j-DOlCZ1fkCH3H0b3F_s-2" edge="1">
          <mxGeometry relative="1" as="geometry">
            <mxPoint x="540" y="120" as="sourcePoint" />
            <mxPoint x="385" y="140" as="targetPoint" />
          </mxGeometry>
        </mxCell>
        <mxCell id="j-DOlCZ1fkCH3H0b3F_s-15" value="" style="endArrow=none;html=1;rounded=0;exitX=0;exitY=0.5;exitDx=0;exitDy=0;entryX=1;entryY=0.5;entryDx=0;entryDy=0;" parent="1" target="j-DOlCZ1fkCH3H0b3F_s-2" edge="1">
          <mxGeometry relative="1" as="geometry">
            <mxPoint x="540" y="180" as="sourcePoint" />
            <mxPoint x="485" y="140" as="targetPoint" />
          </mxGeometry>
        </mxCell>
        <mxCell id="j-DOlCZ1fkCH3H0b3F_s-19" value="AccountID" style="ellipse;whiteSpace=wrap;html=1;align=center;fontStyle=4;" parent="1" vertex="1">
          <mxGeometry x="200" y="420" width="100" height="40" as="geometry" />
        </mxCell>
        <mxCell id="j-DOlCZ1fkCH3H0b3F_s-20" value="" style="endArrow=none;html=1;rounded=0;exitX=1;exitY=0.5;exitDx=0;exitDy=0;entryX=0;entryY=0.5;entryDx=0;entryDy=0;" parent="1" source="j-DOlCZ1fkCH3H0b3F_s-4" edge="1">
          <mxGeometry relative="1" as="geometry">
            <mxPoint x="510" y="545" as="sourcePoint" />
            <mxPoint x="550" y="520" as="targetPoint" />
          </mxGeometry>
        </mxCell>
        <mxCell id="j-DOlCZ1fkCH3H0b3F_s-21" value="" style="endArrow=none;html=1;rounded=0;exitX=1;exitY=0.5;exitDx=0;exitDy=0;entryX=0;entryY=0.5;entryDx=0;entryDy=0;" parent="1" source="j-DOlCZ1fkCH3H0b3F_s-4" edge="1">
          <mxGeometry relative="1" as="geometry">
            <mxPoint x="500" y="465" as="sourcePoint" />
            <mxPoint x="550" y="440" as="targetPoint" />
          </mxGeometry>
        </mxCell>
        <mxCell id="j-DOlCZ1fkCH3H0b3F_s-22" value="" style="endArrow=none;html=1;rounded=0;exitX=1;exitY=0.5;exitDx=0;exitDy=0;entryX=0;entryY=0.5;entryDx=0;entryDy=0;" parent="1" source="j-DOlCZ1fkCH3H0b3F_s-19" target="j-DOlCZ1fkCH3H0b3F_s-4" edge="1">
          <mxGeometry relative="1" as="geometry">
            <mxPoint x="299.99999999999994" y="443.68000000000006" as="sourcePoint" />
            <mxPoint x="366.7" y="460" as="targetPoint" />
          </mxGeometry>
        </mxCell>
        <mxCell id="j-DOlCZ1fkCH3H0b3F_s-26" value="Name" style="ellipse;whiteSpace=wrap;html=1;align=center;" parent="1" vertex="1">
          <mxGeometry x="540" y="100" width="100" height="40" as="geometry" />
        </mxCell>
        <mxCell id="j-DOlCZ1fkCH3H0b3F_s-27" value="ContactNo." style="ellipse;whiteSpace=wrap;html=1;align=center;" parent="1" vertex="1">
          <mxGeometry x="540" y="160" width="100" height="40" as="geometry" />
        </mxCell>
        <mxCell id="j-DOlCZ1fkCH3H0b3F_s-28" value="Time" style="ellipse;whiteSpace=wrap;html=1;align=center;" parent="1" vertex="1">
          <mxGeometry x="550" y="420" width="100" height="40" as="geometry" />
        </mxCell>
        <mxCell id="j-DOlCZ1fkCH3H0b3F_s-29" value="Name" style="ellipse;whiteSpace=wrap;html=1;align=center;" parent="1" vertex="1">
          <mxGeometry x="550" y="500" width="100" height="40" as="geometry" />
        </mxCell>
        <mxCell id="j-DOlCZ1fkCH3H0b3F_s-33" value="PatientID" style="ellipse;whiteSpace=wrap;html=1;align=center;" parent="1" vertex="1">
          <mxGeometry x="200" y="500" width="100" height="40" as="geometry" />
        </mxCell>
        <mxCell id="j-DOlCZ1fkCH3H0b3F_s-34" value="" style="endArrow=none;html=1;rounded=0;exitX=1;exitY=0.5;exitDx=0;exitDy=0;entryX=0;entryY=0.5;entryDx=0;entryDy=0;" parent="1" source="j-DOlCZ1fkCH3H0b3F_s-33" target="j-DOlCZ1fkCH3H0b3F_s-4" edge="1">
          <mxGeometry relative="1" as="geometry">
            <mxPoint x="310" y="450" as="sourcePoint" />
            <mxPoint x="385" y="480" as="targetPoint" />
          </mxGeometry>
        </mxCell>
        <mxCell id="j-DOlCZ1fkCH3H0b3F_s-35" value="Appointment" style="shape=table;startSize=30;container=1;collapsible=1;childLayout=tableLayout;fixedRows=1;rowLines=0;fontStyle=1;align=center;resizeLast=1;html=1;" parent="1" vertex="1">
          <mxGeometry x="510" y="750" width="180" height="150" as="geometry" />
        </mxCell>
        <mxCell id="j-DOlCZ1fkCH3H0b3F_s-36" value="" style="shape=tableRow;horizontal=0;startSize=0;swimlaneHead=0;swimlaneBody=0;fillColor=none;collapsible=0;dropTarget=0;points=[[0,0.5],[1,0.5]];portConstraint=eastwest;top=0;left=0;right=0;bottom=1;" parent="j-DOlCZ1fkCH3H0b3F_s-35" vertex="1">
          <mxGeometry y="30" width="180" height="30" as="geometry" />
        </mxCell>
        <mxCell id="j-DOlCZ1fkCH3H0b3F_s-37" value="PK" style="shape=partialRectangle;connectable=0;fillColor=none;top=0;left=0;bottom=0;right=0;fontStyle=1;overflow=hidden;whiteSpace=wrap;html=1;" parent="j-DOlCZ1fkCH3H0b3F_s-36" vertex="1">
          <mxGeometry width="30" height="30" as="geometry">
            <mxRectangle width="30" height="30" as="alternateBounds" />
          </mxGeometry>
        </mxCell>
        <mxCell id="j-DOlCZ1fkCH3H0b3F_s-38" value="AppointID" style="shape=partialRectangle;connectable=0;fillColor=none;top=0;left=0;bottom=0;right=0;align=left;spacingLeft=6;fontStyle=5;overflow=hidden;whiteSpace=wrap;html=1;" parent="j-DOlCZ1fkCH3H0b3F_s-36" vertex="1">
          <mxGeometry x="30" width="150" height="30" as="geometry">
            <mxRectangle width="150" height="30" as="alternateBounds" />
          </mxGeometry>
        </mxCell>
        <mxCell id="j-DOlCZ1fkCH3H0b3F_s-39" value="" style="shape=tableRow;horizontal=0;startSize=0;swimlaneHead=0;swimlaneBody=0;fillColor=none;collapsible=0;dropTarget=0;points=[[0,0.5],[1,0.5]];portConstraint=eastwest;top=0;left=0;right=0;bottom=0;" parent="j-DOlCZ1fkCH3H0b3F_s-35" vertex="1">
          <mxGeometry y="60" width="180" height="30" as="geometry" />
        </mxCell>
        <mxCell id="j-DOlCZ1fkCH3H0b3F_s-40" value="" style="shape=partialRectangle;connectable=0;fillColor=none;top=0;left=0;bottom=0;right=0;editable=1;overflow=hidden;whiteSpace=wrap;html=1;" parent="j-DOlCZ1fkCH3H0b3F_s-39" vertex="1">
          <mxGeometry width="30" height="30" as="geometry">
            <mxRectangle width="30" height="30" as="alternateBounds" />
          </mxGeometry>
        </mxCell>
        <mxCell id="j-DOlCZ1fkCH3H0b3F_s-41" value="Date" style="shape=partialRectangle;connectable=0;fillColor=none;top=0;left=0;bottom=0;right=0;align=left;spacingLeft=6;overflow=hidden;whiteSpace=wrap;html=1;" parent="j-DOlCZ1fkCH3H0b3F_s-39" vertex="1">
          <mxGeometry x="30" width="150" height="30" as="geometry">
            <mxRectangle width="150" height="30" as="alternateBounds" />
          </mxGeometry>
        </mxCell>
        <mxCell id="j-DOlCZ1fkCH3H0b3F_s-42" value="" style="shape=tableRow;horizontal=0;startSize=0;swimlaneHead=0;swimlaneBody=0;fillColor=none;collapsible=0;dropTarget=0;points=[[0,0.5],[1,0.5]];portConstraint=eastwest;top=0;left=0;right=0;bottom=0;" parent="j-DOlCZ1fkCH3H0b3F_s-35" vertex="1">
          <mxGeometry y="90" width="180" height="30" as="geometry" />
        </mxCell>
        <mxCell id="j-DOlCZ1fkCH3H0b3F_s-43" value="" style="shape=partialRectangle;connectable=0;fillColor=none;top=0;left=0;bottom=0;right=0;editable=1;overflow=hidden;whiteSpace=wrap;html=1;" parent="j-DOlCZ1fkCH3H0b3F_s-42" vertex="1">
          <mxGeometry width="30" height="30" as="geometry">
            <mxRectangle width="30" height="30" as="alternateBounds" />
          </mxGeometry>
        </mxCell>
        <mxCell id="j-DOlCZ1fkCH3H0b3F_s-44" value="Time" style="shape=partialRectangle;connectable=0;fillColor=none;top=0;left=0;bottom=0;right=0;align=left;spacingLeft=6;overflow=hidden;whiteSpace=wrap;html=1;" parent="j-DOlCZ1fkCH3H0b3F_s-42" vertex="1">
          <mxGeometry x="30" width="150" height="30" as="geometry">
            <mxRectangle width="150" height="30" as="alternateBounds" />
          </mxGeometry>
        </mxCell>
        <mxCell id="j-DOlCZ1fkCH3H0b3F_s-45" value="" style="shape=tableRow;horizontal=0;startSize=0;swimlaneHead=0;swimlaneBody=0;fillColor=none;collapsible=0;dropTarget=0;points=[[0,0.5],[1,0.5]];portConstraint=eastwest;top=0;left=0;right=0;bottom=0;" parent="j-DOlCZ1fkCH3H0b3F_s-35" vertex="1">
          <mxGeometry y="120" width="180" height="30" as="geometry" />
        </mxCell>
        <mxCell id="j-DOlCZ1fkCH3H0b3F_s-46" value="FK" style="shape=partialRectangle;connectable=0;fillColor=none;top=0;left=0;bottom=0;right=0;editable=1;overflow=hidden;whiteSpace=wrap;html=1;" parent="j-DOlCZ1fkCH3H0b3F_s-45" vertex="1">
          <mxGeometry width="30" height="30" as="geometry">
            <mxRectangle width="30" height="30" as="alternateBounds" />
          </mxGeometry>
        </mxCell>
        <mxCell id="j-DOlCZ1fkCH3H0b3F_s-47" value="PatientID" style="shape=partialRectangle;connectable=0;fillColor=none;top=0;left=0;bottom=0;right=0;align=left;spacingLeft=6;overflow=hidden;whiteSpace=wrap;html=1;" parent="j-DOlCZ1fkCH3H0b3F_s-45" vertex="1">
          <mxGeometry x="30" width="150" height="30" as="geometry">
            <mxRectangle width="150" height="30" as="alternateBounds" />
          </mxGeometry>
        </mxCell>
        <mxCell id="j-DOlCZ1fkCH3H0b3F_s-48" value="Patient" style="shape=table;startSize=30;container=1;collapsible=1;childLayout=tableLayout;fixedRows=1;rowLines=0;fontStyle=1;align=center;resizeLast=1;html=1;" parent="1" vertex="1">
          <mxGeometry x="170" y="750" width="180" height="120" as="geometry" />
        </mxCell>
        <mxCell id="j-DOlCZ1fkCH3H0b3F_s-49" value="" style="shape=tableRow;horizontal=0;startSize=0;swimlaneHead=0;swimlaneBody=0;fillColor=none;collapsible=0;dropTarget=0;points=[[0,0.5],[1,0.5]];portConstraint=eastwest;top=0;left=0;right=0;bottom=1;" parent="j-DOlCZ1fkCH3H0b3F_s-48" vertex="1">
          <mxGeometry y="30" width="180" height="30" as="geometry" />
        </mxCell>
        <mxCell id="j-DOlCZ1fkCH3H0b3F_s-50" value="PK" style="shape=partialRectangle;connectable=0;fillColor=none;top=0;left=0;bottom=0;right=0;fontStyle=1;overflow=hidden;whiteSpace=wrap;html=1;" parent="j-DOlCZ1fkCH3H0b3F_s-49" vertex="1">
          <mxGeometry width="30" height="30" as="geometry">
            <mxRectangle width="30" height="30" as="alternateBounds" />
          </mxGeometry>
        </mxCell>
        <mxCell id="j-DOlCZ1fkCH3H0b3F_s-51" value="PatientID" style="shape=partialRectangle;connectable=0;fillColor=none;top=0;left=0;bottom=0;right=0;align=left;spacingLeft=6;fontStyle=5;overflow=hidden;whiteSpace=wrap;html=1;" parent="j-DOlCZ1fkCH3H0b3F_s-49" vertex="1">
          <mxGeometry x="30" width="150" height="30" as="geometry">
            <mxRectangle width="150" height="30" as="alternateBounds" />
          </mxGeometry>
        </mxCell>
        <mxCell id="j-DOlCZ1fkCH3H0b3F_s-52" value="" style="shape=tableRow;horizontal=0;startSize=0;swimlaneHead=0;swimlaneBody=0;fillColor=none;collapsible=0;dropTarget=0;points=[[0,0.5],[1,0.5]];portConstraint=eastwest;top=0;left=0;right=0;bottom=0;" parent="j-DOlCZ1fkCH3H0b3F_s-48" vertex="1">
          <mxGeometry y="60" width="180" height="30" as="geometry" />
        </mxCell>
        <mxCell id="j-DOlCZ1fkCH3H0b3F_s-53" value="" style="shape=partialRectangle;connectable=0;fillColor=none;top=0;left=0;bottom=0;right=0;editable=1;overflow=hidden;whiteSpace=wrap;html=1;" parent="j-DOlCZ1fkCH3H0b3F_s-52" vertex="1">
          <mxGeometry width="30" height="30" as="geometry">
            <mxRectangle width="30" height="30" as="alternateBounds" />
          </mxGeometry>
        </mxCell>
        <mxCell id="j-DOlCZ1fkCH3H0b3F_s-54" value="Name" style="shape=partialRectangle;connectable=0;fillColor=none;top=0;left=0;bottom=0;right=0;align=left;spacingLeft=6;overflow=hidden;whiteSpace=wrap;html=1;" parent="j-DOlCZ1fkCH3H0b3F_s-52" vertex="1">
          <mxGeometry x="30" width="150" height="30" as="geometry">
            <mxRectangle width="150" height="30" as="alternateBounds" />
          </mxGeometry>
        </mxCell>
        <mxCell id="j-DOlCZ1fkCH3H0b3F_s-55" value="" style="shape=tableRow;horizontal=0;startSize=0;swimlaneHead=0;swimlaneBody=0;fillColor=none;collapsible=0;dropTarget=0;points=[[0,0.5],[1,0.5]];portConstraint=eastwest;top=0;left=0;right=0;bottom=0;" parent="j-DOlCZ1fkCH3H0b3F_s-48" vertex="1">
          <mxGeometry y="90" width="180" height="30" as="geometry" />
        </mxCell>
        <mxCell id="j-DOlCZ1fkCH3H0b3F_s-56" value="" style="shape=partialRectangle;connectable=0;fillColor=none;top=0;left=0;bottom=0;right=0;editable=1;overflow=hidden;whiteSpace=wrap;html=1;" parent="j-DOlCZ1fkCH3H0b3F_s-55" vertex="1">
          <mxGeometry width="30" height="30" as="geometry">
            <mxRectangle width="30" height="30" as="alternateBounds" />
          </mxGeometry>
        </mxCell>
        <mxCell id="j-DOlCZ1fkCH3H0b3F_s-57" value="ContactNo" style="shape=partialRectangle;connectable=0;fillColor=none;top=0;left=0;bottom=0;right=0;align=left;spacingLeft=6;overflow=hidden;whiteSpace=wrap;html=1;" parent="j-DOlCZ1fkCH3H0b3F_s-55" vertex="1">
          <mxGeometry x="30" width="150" height="30" as="geometry">
            <mxRectangle width="150" height="30" as="alternateBounds" />
          </mxGeometry>
        </mxCell>
        <mxCell id="j-DOlCZ1fkCH3H0b3F_s-61" value="" style="fontSize=12;html=1;endArrow=ERzeroToMany;startArrow=ERmandOne;rounded=0;entryX=0;entryY=0.5;entryDx=0;entryDy=0;exitX=1;exitY=0.5;exitDx=0;exitDy=0;" parent="1" source="j-DOlCZ1fkCH3H0b3F_s-52" target="j-DOlCZ1fkCH3H0b3F_s-39" edge="1">
          <mxGeometry width="100" height="100" relative="1" as="geometry">
            <mxPoint x="349" y="840" as="sourcePoint" />
            <mxPoint x="470" y="840" as="targetPoint" />
          </mxGeometry>
        </mxCell>
        <mxCell id="j-DOlCZ1fkCH3H0b3F_s-63" value="&lt;font style=&quot;font-size: 14px;&quot;&gt;Make&lt;/font&gt;" style="edgeLabel;html=1;align=center;verticalAlign=middle;resizable=0;points=[];" parent="j-DOlCZ1fkCH3H0b3F_s-61" vertex="1" connectable="0">
          <mxGeometry x="-0.1125" y="-1" relative="1" as="geometry">
            <mxPoint as="offset" />
          </mxGeometry>
        </mxCell>
        <mxCell id="j-DOlCZ1fkCH3H0b3F_s-64" value="&lt;font style=&quot;font-size: 18px;&quot;&gt;One to many relationship crow&#39;s foot notation&lt;/font&gt;" style="text;html=1;align=center;verticalAlign=middle;resizable=0;points=[];autosize=1;strokeColor=none;fillColor=none;" parent="1" vertex="1">
          <mxGeometry x="20" y="630" width="380" height="40" as="geometry" />
        </mxCell>
      </root>
    </mxGraphModel>
  </diagram>
  <diagram id="4EBvI3JFKUYTx9M-8YmW" name="Page-3">
    <mxGraphModel dx="1221" dy="759" grid="1" gridSize="10" guides="1" tooltips="1" connect="1" arrows="1" fold="1" page="1" pageScale="1" pageWidth="850" pageHeight="1100" math="0" shadow="0">
      <root>
        <mxCell id="0" />
        <mxCell id="1" parent="0" />
        <mxCell id="jHam0zrDTH4rHdv-Llg2-1" value="&lt;font style=&quot;font-size: 18px;&quot;&gt;Chen&#39;s Notation&lt;/font&gt;" style="text;html=1;align=center;verticalAlign=middle;resizable=0;points=[];autosize=1;strokeColor=none;fillColor=none;" vertex="1" parent="1">
          <mxGeometry x="25" y="20" width="150" height="40" as="geometry" />
        </mxCell>
        <mxCell id="6oUkCAluqy-ZfQpx3r4_-2" value="Attribute" style="ellipse;whiteSpace=wrap;html=1;align=center;" vertex="1" parent="1">
          <mxGeometry x="160" y="210" width="100" height="40" as="geometry" />
        </mxCell>
        <mxCell id="6oUkCAluqy-ZfQpx3r4_-3" value="Attribute" style="ellipse;whiteSpace=wrap;html=1;align=center;fontStyle=4;" vertex="1" parent="1">
          <mxGeometry x="25" y="210" width="100" height="40" as="geometry" />
        </mxCell>
        <mxCell id="6oUkCAluqy-ZfQpx3r4_-5" value="Relationship" style="shape=rhombus;perimeter=rhombusPerimeter;whiteSpace=wrap;html=1;align=center;" vertex="1" parent="1">
          <mxGeometry x="280" y="100" width="120" height="60" as="geometry" />
        </mxCell>
        <mxCell id="6oUkCAluqy-ZfQpx3r4_-6" value="Entity" style="whiteSpace=wrap;html=1;align=center;" vertex="1" parent="1">
          <mxGeometry x="510" y="110" width="100" height="40" as="geometry" />
        </mxCell>
        <mxCell id="6oUkCAluqy-ZfQpx3r4_-7" value="Entity" style="whiteSpace=wrap;html=1;align=center;" vertex="1" parent="1">
          <mxGeometry x="90" y="110" width="100" height="40" as="geometry" />
        </mxCell>
        <mxCell id="6oUkCAluqy-ZfQpx3r4_-10" value="Attribute" style="ellipse;whiteSpace=wrap;html=1;align=center;" vertex="1" parent="1">
          <mxGeometry x="680" y="240" width="100" height="40" as="geometry" />
        </mxCell>
        <mxCell id="6oUkCAluqy-ZfQpx3r4_-11" value="Attribute" style="ellipse;whiteSpace=wrap;html=1;align=center;" vertex="1" parent="1">
          <mxGeometry x="690" y="150" width="100" height="40" as="geometry" />
        </mxCell>
        <mxCell id="6oUkCAluqy-ZfQpx3r4_-13" value="Attribute" style="ellipse;whiteSpace=wrap;html=1;align=center;fontStyle=4;" vertex="1" parent="1">
          <mxGeometry x="570" y="20" width="100" height="40" as="geometry" />
        </mxCell>
        <mxCell id="6oUkCAluqy-ZfQpx3r4_-14" value="&lt;i&gt;Attribute&lt;/i&gt;" style="ellipse;whiteSpace=wrap;html=1;align=center;" vertex="1" parent="1">
          <mxGeometry x="670" y="80" width="100" height="40" as="geometry" />
        </mxCell>
        <mxCell id="6oUkCAluqy-ZfQpx3r4_-16" value="Relationship" style="shape=rhombus;perimeter=rhombusPerimeter;whiteSpace=wrap;html=1;align=center;" vertex="1" parent="1">
          <mxGeometry x="500" y="330" width="120" height="60" as="geometry" />
        </mxCell>
        <mxCell id="6oUkCAluqy-ZfQpx3r4_-17" value="Entity" style="whiteSpace=wrap;html=1;align=center;" vertex="1" parent="1">
          <mxGeometry x="510" y="500" width="100" height="40" as="geometry" />
        </mxCell>
        <mxCell id="6oUkCAluqy-ZfQpx3r4_-18" value="Attribute" style="ellipse;whiteSpace=wrap;html=1;align=center;fontStyle=4;" vertex="1" parent="1">
          <mxGeometry x="360" y="500" width="100" height="40" as="geometry" />
        </mxCell>
        <mxCell id="6oUkCAluqy-ZfQpx3r4_-19" value="Attribute" style="ellipse;whiteSpace=wrap;html=1;align=center;" vertex="1" parent="1">
          <mxGeometry x="670" y="500" width="100" height="40" as="geometry" />
        </mxCell>
        <mxCell id="6oUkCAluqy-ZfQpx3r4_-20" value="Event" style="shape=table;startSize=30;container=1;collapsible=1;childLayout=tableLayout;fixedRows=1;rowLines=0;fontStyle=1;align=center;resizeLast=1;html=1;" vertex="1" parent="1">
          <mxGeometry x="30" y="760" width="180" height="150" as="geometry" />
        </mxCell>
        <mxCell id="6oUkCAluqy-ZfQpx3r4_-21" value="" style="shape=tableRow;horizontal=0;startSize=0;swimlaneHead=0;swimlaneBody=0;fillColor=none;collapsible=0;dropTarget=0;points=[[0,0.5],[1,0.5]];portConstraint=eastwest;top=0;left=0;right=0;bottom=1;" vertex="1" parent="6oUkCAluqy-ZfQpx3r4_-20">
          <mxGeometry y="30" width="180" height="30" as="geometry" />
        </mxCell>
        <mxCell id="6oUkCAluqy-ZfQpx3r4_-22" value="PK" style="shape=partialRectangle;connectable=0;fillColor=none;top=0;left=0;bottom=0;right=0;fontStyle=1;overflow=hidden;whiteSpace=wrap;html=1;" vertex="1" parent="6oUkCAluqy-ZfQpx3r4_-21">
          <mxGeometry width="30" height="30" as="geometry">
            <mxRectangle width="30" height="30" as="alternateBounds" />
          </mxGeometry>
        </mxCell>
        <mxCell id="6oUkCAluqy-ZfQpx3r4_-23" value="EventID" style="shape=partialRectangle;connectable=0;fillColor=none;top=0;left=0;bottom=0;right=0;align=left;spacingLeft=6;fontStyle=5;overflow=hidden;whiteSpace=wrap;html=1;" vertex="1" parent="6oUkCAluqy-ZfQpx3r4_-21">
          <mxGeometry x="30" width="150" height="30" as="geometry">
            <mxRectangle width="150" height="30" as="alternateBounds" />
          </mxGeometry>
        </mxCell>
        <mxCell id="6oUkCAluqy-ZfQpx3r4_-24" value="" style="shape=tableRow;horizontal=0;startSize=0;swimlaneHead=0;swimlaneBody=0;fillColor=none;collapsible=0;dropTarget=0;points=[[0,0.5],[1,0.5]];portConstraint=eastwest;top=0;left=0;right=0;bottom=0;" vertex="1" parent="6oUkCAluqy-ZfQpx3r4_-20">
          <mxGeometry y="60" width="180" height="30" as="geometry" />
        </mxCell>
        <mxCell id="6oUkCAluqy-ZfQpx3r4_-25" value="" style="shape=partialRectangle;connectable=0;fillColor=none;top=0;left=0;bottom=0;right=0;editable=1;overflow=hidden;whiteSpace=wrap;html=1;" vertex="1" parent="6oUkCAluqy-ZfQpx3r4_-24">
          <mxGeometry width="30" height="30" as="geometry">
            <mxRectangle width="30" height="30" as="alternateBounds" />
          </mxGeometry>
        </mxCell>
        <mxCell id="6oUkCAluqy-ZfQpx3r4_-26" value="Name" style="shape=partialRectangle;connectable=0;fillColor=none;top=0;left=0;bottom=0;right=0;align=left;spacingLeft=6;overflow=hidden;whiteSpace=wrap;html=1;" vertex="1" parent="6oUkCAluqy-ZfQpx3r4_-24">
          <mxGeometry x="30" width="150" height="30" as="geometry">
            <mxRectangle width="150" height="30" as="alternateBounds" />
          </mxGeometry>
        </mxCell>
        <mxCell id="6oUkCAluqy-ZfQpx3r4_-27" value="" style="shape=tableRow;horizontal=0;startSize=0;swimlaneHead=0;swimlaneBody=0;fillColor=none;collapsible=0;dropTarget=0;points=[[0,0.5],[1,0.5]];portConstraint=eastwest;top=0;left=0;right=0;bottom=0;" vertex="1" parent="6oUkCAluqy-ZfQpx3r4_-20">
          <mxGeometry y="90" width="180" height="30" as="geometry" />
        </mxCell>
        <mxCell id="6oUkCAluqy-ZfQpx3r4_-28" value="" style="shape=partialRectangle;connectable=0;fillColor=none;top=0;left=0;bottom=0;right=0;editable=1;overflow=hidden;whiteSpace=wrap;html=1;" vertex="1" parent="6oUkCAluqy-ZfQpx3r4_-27">
          <mxGeometry width="30" height="30" as="geometry">
            <mxRectangle width="30" height="30" as="alternateBounds" />
          </mxGeometry>
        </mxCell>
        <mxCell id="6oUkCAluqy-ZfQpx3r4_-29" value="Date" style="shape=partialRectangle;connectable=0;fillColor=none;top=0;left=0;bottom=0;right=0;align=left;spacingLeft=6;overflow=hidden;whiteSpace=wrap;html=1;" vertex="1" parent="6oUkCAluqy-ZfQpx3r4_-27">
          <mxGeometry x="30" width="150" height="30" as="geometry">
            <mxRectangle width="150" height="30" as="alternateBounds" />
          </mxGeometry>
        </mxCell>
        <mxCell id="6oUkCAluqy-ZfQpx3r4_-30" value="" style="shape=tableRow;horizontal=0;startSize=0;swimlaneHead=0;swimlaneBody=0;fillColor=none;collapsible=0;dropTarget=0;points=[[0,0.5],[1,0.5]];portConstraint=eastwest;top=0;left=0;right=0;bottom=0;" vertex="1" parent="6oUkCAluqy-ZfQpx3r4_-20">
          <mxGeometry y="120" width="180" height="30" as="geometry" />
        </mxCell>
        <mxCell id="6oUkCAluqy-ZfQpx3r4_-31" value="" style="shape=partialRectangle;connectable=0;fillColor=none;top=0;left=0;bottom=0;right=0;editable=1;overflow=hidden;whiteSpace=wrap;html=1;" vertex="1" parent="6oUkCAluqy-ZfQpx3r4_-30">
          <mxGeometry width="30" height="30" as="geometry">
            <mxRectangle width="30" height="30" as="alternateBounds" />
          </mxGeometry>
        </mxCell>
        <mxCell id="6oUkCAluqy-ZfQpx3r4_-32" value="Budget" style="shape=partialRectangle;connectable=0;fillColor=none;top=0;left=0;bottom=0;right=0;align=left;spacingLeft=6;overflow=hidden;whiteSpace=wrap;html=1;" vertex="1" parent="6oUkCAluqy-ZfQpx3r4_-30">
          <mxGeometry x="30" width="150" height="30" as="geometry">
            <mxRectangle width="150" height="30" as="alternateBounds" />
          </mxGeometry>
        </mxCell>
        <mxCell id="_MgJeWuDD2L2epAQm4j1-1" value="&lt;font style=&quot;font-size: 18px;&quot;&gt;Crow&#39;s foot notation&lt;/font&gt;" style="text;html=1;align=center;verticalAlign=middle;resizable=0;points=[];autosize=1;strokeColor=none;fillColor=none;" vertex="1" parent="1">
          <mxGeometry x="20" y="680" width="180" height="40" as="geometry" />
        </mxCell>
        <mxCell id="_MgJeWuDD2L2epAQm4j1-2" value="Emp_Hand_Event" style="shape=table;startSize=30;container=1;collapsible=1;childLayout=tableLayout;fixedRows=1;rowLines=0;fontStyle=1;align=center;resizeLast=1;html=1;" vertex="1" parent="1">
          <mxGeometry x="335" y="760" width="180" height="150" as="geometry" />
        </mxCell>
        <mxCell id="_MgJeWuDD2L2epAQm4j1-3" value="" style="shape=tableRow;horizontal=0;startSize=0;swimlaneHead=0;swimlaneBody=0;fillColor=none;collapsible=0;dropTarget=0;points=[[0,0.5],[1,0.5]];portConstraint=eastwest;top=0;left=0;right=0;bottom=1;" vertex="1" parent="_MgJeWuDD2L2epAQm4j1-2">
          <mxGeometry y="30" width="180" height="30" as="geometry" />
        </mxCell>
        <mxCell id="_MgJeWuDD2L2epAQm4j1-4" value="PK" style="shape=partialRectangle;connectable=0;fillColor=none;top=0;left=0;bottom=0;right=0;fontStyle=1;overflow=hidden;whiteSpace=wrap;html=1;" vertex="1" parent="_MgJeWuDD2L2epAQm4j1-3">
          <mxGeometry width="30" height="30" as="geometry">
            <mxRectangle width="30" height="30" as="alternateBounds" />
          </mxGeometry>
        </mxCell>
        <mxCell id="_MgJeWuDD2L2epAQm4j1-5" value="HandleID" style="shape=partialRectangle;connectable=0;fillColor=none;top=0;left=0;bottom=0;right=0;align=left;spacingLeft=6;fontStyle=5;overflow=hidden;whiteSpace=wrap;html=1;" vertex="1" parent="_MgJeWuDD2L2epAQm4j1-3">
          <mxGeometry x="30" width="150" height="30" as="geometry">
            <mxRectangle width="150" height="30" as="alternateBounds" />
          </mxGeometry>
        </mxCell>
        <mxCell id="_MgJeWuDD2L2epAQm4j1-6" value="" style="shape=tableRow;horizontal=0;startSize=0;swimlaneHead=0;swimlaneBody=0;fillColor=none;collapsible=0;dropTarget=0;points=[[0,0.5],[1,0.5]];portConstraint=eastwest;top=0;left=0;right=0;bottom=0;" vertex="1" parent="_MgJeWuDD2L2epAQm4j1-2">
          <mxGeometry y="60" width="180" height="30" as="geometry" />
        </mxCell>
        <mxCell id="_MgJeWuDD2L2epAQm4j1-7" value="" style="shape=partialRectangle;connectable=0;fillColor=none;top=0;left=0;bottom=0;right=0;editable=1;overflow=hidden;whiteSpace=wrap;html=1;" vertex="1" parent="_MgJeWuDD2L2epAQm4j1-6">
          <mxGeometry width="30" height="30" as="geometry">
            <mxRectangle width="30" height="30" as="alternateBounds" />
          </mxGeometry>
        </mxCell>
        <mxCell id="_MgJeWuDD2L2epAQm4j1-8" value="Status_Progress" style="shape=partialRectangle;connectable=0;fillColor=none;top=0;left=0;bottom=0;right=0;align=left;spacingLeft=6;overflow=hidden;whiteSpace=wrap;html=1;" vertex="1" parent="_MgJeWuDD2L2epAQm4j1-6">
          <mxGeometry x="30" width="150" height="30" as="geometry">
            <mxRectangle width="150" height="30" as="alternateBounds" />
          </mxGeometry>
        </mxCell>
        <mxCell id="_MgJeWuDD2L2epAQm4j1-9" value="" style="shape=tableRow;horizontal=0;startSize=0;swimlaneHead=0;swimlaneBody=0;fillColor=none;collapsible=0;dropTarget=0;points=[[0,0.5],[1,0.5]];portConstraint=eastwest;top=0;left=0;right=0;bottom=0;" vertex="1" parent="_MgJeWuDD2L2epAQm4j1-2">
          <mxGeometry y="90" width="180" height="30" as="geometry" />
        </mxCell>
        <mxCell id="_MgJeWuDD2L2epAQm4j1-10" value="" style="shape=partialRectangle;connectable=0;fillColor=none;top=0;left=0;bottom=0;right=0;editable=1;overflow=hidden;whiteSpace=wrap;html=1;" vertex="1" parent="_MgJeWuDD2L2epAQm4j1-9">
          <mxGeometry width="30" height="30" as="geometry">
            <mxRectangle width="30" height="30" as="alternateBounds" />
          </mxGeometry>
        </mxCell>
        <mxCell id="_MgJeWuDD2L2epAQm4j1-11" value="EmployeeID" style="shape=partialRectangle;connectable=0;fillColor=none;top=0;left=0;bottom=0;right=0;align=left;spacingLeft=6;overflow=hidden;whiteSpace=wrap;html=1;" vertex="1" parent="_MgJeWuDD2L2epAQm4j1-9">
          <mxGeometry x="30" width="150" height="30" as="geometry">
            <mxRectangle width="150" height="30" as="alternateBounds" />
          </mxGeometry>
        </mxCell>
        <mxCell id="_MgJeWuDD2L2epAQm4j1-12" value="" style="shape=tableRow;horizontal=0;startSize=0;swimlaneHead=0;swimlaneBody=0;fillColor=none;collapsible=0;dropTarget=0;points=[[0,0.5],[1,0.5]];portConstraint=eastwest;top=0;left=0;right=0;bottom=0;" vertex="1" parent="_MgJeWuDD2L2epAQm4j1-2">
          <mxGeometry y="120" width="180" height="30" as="geometry" />
        </mxCell>
        <mxCell id="_MgJeWuDD2L2epAQm4j1-13" value="" style="shape=partialRectangle;connectable=0;fillColor=none;top=0;left=0;bottom=0;right=0;editable=1;overflow=hidden;whiteSpace=wrap;html=1;" vertex="1" parent="_MgJeWuDD2L2epAQm4j1-12">
          <mxGeometry width="30" height="30" as="geometry">
            <mxRectangle width="30" height="30" as="alternateBounds" />
          </mxGeometry>
        </mxCell>
        <mxCell id="_MgJeWuDD2L2epAQm4j1-14" value="IYKYK" style="shape=partialRectangle;connectable=0;fillColor=none;top=0;left=0;bottom=0;right=0;align=left;spacingLeft=6;overflow=hidden;whiteSpace=wrap;html=1;" vertex="1" parent="_MgJeWuDD2L2epAQm4j1-12">
          <mxGeometry x="30" width="150" height="30" as="geometry">
            <mxRectangle width="150" height="30" as="alternateBounds" />
          </mxGeometry>
        </mxCell>
        <mxCell id="_MgJeWuDD2L2epAQm4j1-15" value="Employee" style="shape=table;startSize=30;container=1;collapsible=1;childLayout=tableLayout;fixedRows=1;rowLines=0;fontStyle=1;align=center;resizeLast=1;html=1;" vertex="1" parent="1">
          <mxGeometry x="640" y="760" width="180" height="150" as="geometry" />
        </mxCell>
        <mxCell id="_MgJeWuDD2L2epAQm4j1-16" value="" style="shape=tableRow;horizontal=0;startSize=0;swimlaneHead=0;swimlaneBody=0;fillColor=none;collapsible=0;dropTarget=0;points=[[0,0.5],[1,0.5]];portConstraint=eastwest;top=0;left=0;right=0;bottom=1;" vertex="1" parent="_MgJeWuDD2L2epAQm4j1-15">
          <mxGeometry y="30" width="180" height="30" as="geometry" />
        </mxCell>
        <mxCell id="_MgJeWuDD2L2epAQm4j1-17" value="PK" style="shape=partialRectangle;connectable=0;fillColor=none;top=0;left=0;bottom=0;right=0;fontStyle=1;overflow=hidden;whiteSpace=wrap;html=1;" vertex="1" parent="_MgJeWuDD2L2epAQm4j1-16">
          <mxGeometry width="30" height="30" as="geometry">
            <mxRectangle width="30" height="30" as="alternateBounds" />
          </mxGeometry>
        </mxCell>
        <mxCell id="_MgJeWuDD2L2epAQm4j1-18" value="EmployeeID" style="shape=partialRectangle;connectable=0;fillColor=none;top=0;left=0;bottom=0;right=0;align=left;spacingLeft=6;fontStyle=5;overflow=hidden;whiteSpace=wrap;html=1;" vertex="1" parent="_MgJeWuDD2L2epAQm4j1-16">
          <mxGeometry x="30" width="150" height="30" as="geometry">
            <mxRectangle width="150" height="30" as="alternateBounds" />
          </mxGeometry>
        </mxCell>
        <mxCell id="_MgJeWuDD2L2epAQm4j1-19" value="" style="shape=tableRow;horizontal=0;startSize=0;swimlaneHead=0;swimlaneBody=0;fillColor=none;collapsible=0;dropTarget=0;points=[[0,0.5],[1,0.5]];portConstraint=eastwest;top=0;left=0;right=0;bottom=0;" vertex="1" parent="_MgJeWuDD2L2epAQm4j1-15">
          <mxGeometry y="60" width="180" height="30" as="geometry" />
        </mxCell>
        <mxCell id="_MgJeWuDD2L2epAQm4j1-20" value="" style="shape=partialRectangle;connectable=0;fillColor=none;top=0;left=0;bottom=0;right=0;editable=1;overflow=hidden;whiteSpace=wrap;html=1;" vertex="1" parent="_MgJeWuDD2L2epAQm4j1-19">
          <mxGeometry width="30" height="30" as="geometry">
            <mxRectangle width="30" height="30" as="alternateBounds" />
          </mxGeometry>
        </mxCell>
        <mxCell id="_MgJeWuDD2L2epAQm4j1-21" value="Row 1" style="shape=partialRectangle;connectable=0;fillColor=none;top=0;left=0;bottom=0;right=0;align=left;spacingLeft=6;overflow=hidden;whiteSpace=wrap;html=1;" vertex="1" parent="_MgJeWuDD2L2epAQm4j1-19">
          <mxGeometry x="30" width="150" height="30" as="geometry">
            <mxRectangle width="150" height="30" as="alternateBounds" />
          </mxGeometry>
        </mxCell>
        <mxCell id="_MgJeWuDD2L2epAQm4j1-22" value="" style="shape=tableRow;horizontal=0;startSize=0;swimlaneHead=0;swimlaneBody=0;fillColor=none;collapsible=0;dropTarget=0;points=[[0,0.5],[1,0.5]];portConstraint=eastwest;top=0;left=0;right=0;bottom=0;" vertex="1" parent="_MgJeWuDD2L2epAQm4j1-15">
          <mxGeometry y="90" width="180" height="30" as="geometry" />
        </mxCell>
        <mxCell id="_MgJeWuDD2L2epAQm4j1-23" value="" style="shape=partialRectangle;connectable=0;fillColor=none;top=0;left=0;bottom=0;right=0;editable=1;overflow=hidden;whiteSpace=wrap;html=1;" vertex="1" parent="_MgJeWuDD2L2epAQm4j1-22">
          <mxGeometry width="30" height="30" as="geometry">
            <mxRectangle width="30" height="30" as="alternateBounds" />
          </mxGeometry>
        </mxCell>
        <mxCell id="_MgJeWuDD2L2epAQm4j1-24" value="Row 2" style="shape=partialRectangle;connectable=0;fillColor=none;top=0;left=0;bottom=0;right=0;align=left;spacingLeft=6;overflow=hidden;whiteSpace=wrap;html=1;" vertex="1" parent="_MgJeWuDD2L2epAQm4j1-22">
          <mxGeometry x="30" width="150" height="30" as="geometry">
            <mxRectangle width="150" height="30" as="alternateBounds" />
          </mxGeometry>
        </mxCell>
        <mxCell id="_MgJeWuDD2L2epAQm4j1-25" value="" style="shape=tableRow;horizontal=0;startSize=0;swimlaneHead=0;swimlaneBody=0;fillColor=none;collapsible=0;dropTarget=0;points=[[0,0.5],[1,0.5]];portConstraint=eastwest;top=0;left=0;right=0;bottom=0;" vertex="1" parent="_MgJeWuDD2L2epAQm4j1-15">
          <mxGeometry y="120" width="180" height="30" as="geometry" />
        </mxCell>
        <mxCell id="_MgJeWuDD2L2epAQm4j1-26" value="" style="shape=partialRectangle;connectable=0;fillColor=none;top=0;left=0;bottom=0;right=0;editable=1;overflow=hidden;whiteSpace=wrap;html=1;" vertex="1" parent="_MgJeWuDD2L2epAQm4j1-25">
          <mxGeometry width="30" height="30" as="geometry">
            <mxRectangle width="30" height="30" as="alternateBounds" />
          </mxGeometry>
        </mxCell>
        <mxCell id="_MgJeWuDD2L2epAQm4j1-27" value="Row 3" style="shape=partialRectangle;connectable=0;fillColor=none;top=0;left=0;bottom=0;right=0;align=left;spacingLeft=6;overflow=hidden;whiteSpace=wrap;html=1;" vertex="1" parent="_MgJeWuDD2L2epAQm4j1-25">
          <mxGeometry x="30" width="150" height="30" as="geometry">
            <mxRectangle width="150" height="30" as="alternateBounds" />
          </mxGeometry>
        </mxCell>
      </root>
    </mxGraphModel>
  </diagram>
  <diagram id="1YjHrMm1P8K5kKJy1q-e" name="Page-4">
    <mxGraphModel dx="2071" dy="759" grid="1" gridSize="10" guides="1" tooltips="1" connect="1" arrows="1" fold="1" page="1" pageScale="1" pageWidth="850" pageHeight="1100" math="0" shadow="0">
      <root>
        <mxCell id="0" />
        <mxCell id="1" parent="0" />
        <mxCell id="mEAoFZNLnI7TbArWBrGF-14" value="Musician" style="shape=table;startSize=30;container=1;collapsible=1;childLayout=tableLayout;fixedRows=1;rowLines=0;fontStyle=1;align=center;resizeLast=1;html=1;" parent="1" vertex="1">
          <mxGeometry x="40" y="80" width="180" height="150" as="geometry" />
        </mxCell>
        <mxCell id="mEAoFZNLnI7TbArWBrGF-15" value="" style="shape=tableRow;horizontal=0;startSize=0;swimlaneHead=0;swimlaneBody=0;fillColor=none;collapsible=0;dropTarget=0;points=[[0,0.5],[1,0.5]];portConstraint=eastwest;top=0;left=0;right=0;bottom=1;" parent="mEAoFZNLnI7TbArWBrGF-14" vertex="1">
          <mxGeometry y="30" width="180" height="30" as="geometry" />
        </mxCell>
        <mxCell id="mEAoFZNLnI7TbArWBrGF-16" value="PK" style="shape=partialRectangle;connectable=0;fillColor=none;top=0;left=0;bottom=0;right=0;fontStyle=1;overflow=hidden;whiteSpace=wrap;html=1;" parent="mEAoFZNLnI7TbArWBrGF-15" vertex="1">
          <mxGeometry width="30" height="30" as="geometry">
            <mxRectangle width="30" height="30" as="alternateBounds" />
          </mxGeometry>
        </mxCell>
        <mxCell id="mEAoFZNLnI7TbArWBrGF-17" value="MusicianSSN" style="shape=partialRectangle;connectable=0;fillColor=none;top=0;left=0;bottom=0;right=0;align=left;spacingLeft=6;fontStyle=5;overflow=hidden;whiteSpace=wrap;html=1;" parent="mEAoFZNLnI7TbArWBrGF-15" vertex="1">
          <mxGeometry x="30" width="150" height="30" as="geometry">
            <mxRectangle width="150" height="30" as="alternateBounds" />
          </mxGeometry>
        </mxCell>
        <mxCell id="mEAoFZNLnI7TbArWBrGF-18" value="" style="shape=tableRow;horizontal=0;startSize=0;swimlaneHead=0;swimlaneBody=0;fillColor=none;collapsible=0;dropTarget=0;points=[[0,0.5],[1,0.5]];portConstraint=eastwest;top=0;left=0;right=0;bottom=0;" parent="mEAoFZNLnI7TbArWBrGF-14" vertex="1">
          <mxGeometry y="60" width="180" height="30" as="geometry" />
        </mxCell>
        <mxCell id="mEAoFZNLnI7TbArWBrGF-19" value="" style="shape=partialRectangle;connectable=0;fillColor=none;top=0;left=0;bottom=0;right=0;editable=1;overflow=hidden;whiteSpace=wrap;html=1;" parent="mEAoFZNLnI7TbArWBrGF-18" vertex="1">
          <mxGeometry width="30" height="30" as="geometry">
            <mxRectangle width="30" height="30" as="alternateBounds" />
          </mxGeometry>
        </mxCell>
        <mxCell id="mEAoFZNLnI7TbArWBrGF-20" value="Name" style="shape=partialRectangle;connectable=0;fillColor=none;top=0;left=0;bottom=0;right=0;align=left;spacingLeft=6;overflow=hidden;whiteSpace=wrap;html=1;" parent="mEAoFZNLnI7TbArWBrGF-18" vertex="1">
          <mxGeometry x="30" width="150" height="30" as="geometry">
            <mxRectangle width="150" height="30" as="alternateBounds" />
          </mxGeometry>
        </mxCell>
        <mxCell id="mEAoFZNLnI7TbArWBrGF-21" value="" style="shape=tableRow;horizontal=0;startSize=0;swimlaneHead=0;swimlaneBody=0;fillColor=none;collapsible=0;dropTarget=0;points=[[0,0.5],[1,0.5]];portConstraint=eastwest;top=0;left=0;right=0;bottom=0;" parent="mEAoFZNLnI7TbArWBrGF-14" vertex="1">
          <mxGeometry y="90" width="180" height="30" as="geometry" />
        </mxCell>
        <mxCell id="mEAoFZNLnI7TbArWBrGF-22" value="" style="shape=partialRectangle;connectable=0;fillColor=none;top=0;left=0;bottom=0;right=0;editable=1;overflow=hidden;whiteSpace=wrap;html=1;" parent="mEAoFZNLnI7TbArWBrGF-21" vertex="1">
          <mxGeometry width="30" height="30" as="geometry">
            <mxRectangle width="30" height="30" as="alternateBounds" />
          </mxGeometry>
        </mxCell>
        <mxCell id="mEAoFZNLnI7TbArWBrGF-23" value="Address" style="shape=partialRectangle;connectable=0;fillColor=none;top=0;left=0;bottom=0;right=0;align=left;spacingLeft=6;overflow=hidden;whiteSpace=wrap;html=1;" parent="mEAoFZNLnI7TbArWBrGF-21" vertex="1">
          <mxGeometry x="30" width="150" height="30" as="geometry">
            <mxRectangle width="150" height="30" as="alternateBounds" />
          </mxGeometry>
        </mxCell>
        <mxCell id="mEAoFZNLnI7TbArWBrGF-24" value="" style="shape=tableRow;horizontal=0;startSize=0;swimlaneHead=0;swimlaneBody=0;fillColor=none;collapsible=0;dropTarget=0;points=[[0,0.5],[1,0.5]];portConstraint=eastwest;top=0;left=0;right=0;bottom=0;" parent="mEAoFZNLnI7TbArWBrGF-14" vertex="1">
          <mxGeometry y="120" width="180" height="30" as="geometry" />
        </mxCell>
        <mxCell id="mEAoFZNLnI7TbArWBrGF-25" value="" style="shape=partialRectangle;connectable=0;fillColor=none;top=0;left=0;bottom=0;right=0;editable=1;overflow=hidden;whiteSpace=wrap;html=1;" parent="mEAoFZNLnI7TbArWBrGF-24" vertex="1">
          <mxGeometry width="30" height="30" as="geometry">
            <mxRectangle width="30" height="30" as="alternateBounds" />
          </mxGeometry>
        </mxCell>
        <mxCell id="mEAoFZNLnI7TbArWBrGF-26" value="PhoneNum" style="shape=partialRectangle;connectable=0;fillColor=none;top=0;left=0;bottom=0;right=0;align=left;spacingLeft=6;overflow=hidden;whiteSpace=wrap;html=1;" parent="mEAoFZNLnI7TbArWBrGF-24" vertex="1">
          <mxGeometry x="30" width="150" height="30" as="geometry">
            <mxRectangle width="150" height="30" as="alternateBounds" />
          </mxGeometry>
        </mxCell>
        <mxCell id="mEAoFZNLnI7TbArWBrGF-27" value="Instrument" style="shape=table;startSize=30;container=1;collapsible=1;childLayout=tableLayout;fixedRows=1;rowLines=0;fontStyle=1;align=center;resizeLast=1;html=1;" parent="1" vertex="1">
          <mxGeometry x="620" y="80" width="180" height="120" as="geometry" />
        </mxCell>
        <mxCell id="mEAoFZNLnI7TbArWBrGF-28" value="" style="shape=tableRow;horizontal=0;startSize=0;swimlaneHead=0;swimlaneBody=0;fillColor=none;collapsible=0;dropTarget=0;points=[[0,0.5],[1,0.5]];portConstraint=eastwest;top=0;left=0;right=0;bottom=1;" parent="mEAoFZNLnI7TbArWBrGF-27" vertex="1">
          <mxGeometry y="30" width="180" height="30" as="geometry" />
        </mxCell>
        <mxCell id="mEAoFZNLnI7TbArWBrGF-29" value="PK" style="shape=partialRectangle;connectable=0;fillColor=none;top=0;left=0;bottom=0;right=0;fontStyle=1;overflow=hidden;whiteSpace=wrap;html=1;" parent="mEAoFZNLnI7TbArWBrGF-28" vertex="1">
          <mxGeometry width="30" height="30" as="geometry">
            <mxRectangle width="30" height="30" as="alternateBounds" />
          </mxGeometry>
        </mxCell>
        <mxCell id="mEAoFZNLnI7TbArWBrGF-30" value="IntrumentID" style="shape=partialRectangle;connectable=0;fillColor=none;top=0;left=0;bottom=0;right=0;align=left;spacingLeft=6;fontStyle=5;overflow=hidden;whiteSpace=wrap;html=1;" parent="mEAoFZNLnI7TbArWBrGF-28" vertex="1">
          <mxGeometry x="30" width="150" height="30" as="geometry">
            <mxRectangle width="150" height="30" as="alternateBounds" />
          </mxGeometry>
        </mxCell>
        <mxCell id="mEAoFZNLnI7TbArWBrGF-31" value="" style="shape=tableRow;horizontal=0;startSize=0;swimlaneHead=0;swimlaneBody=0;fillColor=none;collapsible=0;dropTarget=0;points=[[0,0.5],[1,0.5]];portConstraint=eastwest;top=0;left=0;right=0;bottom=0;" parent="mEAoFZNLnI7TbArWBrGF-27" vertex="1">
          <mxGeometry y="60" width="180" height="30" as="geometry" />
        </mxCell>
        <mxCell id="mEAoFZNLnI7TbArWBrGF-32" value="" style="shape=partialRectangle;connectable=0;fillColor=none;top=0;left=0;bottom=0;right=0;editable=1;overflow=hidden;whiteSpace=wrap;html=1;" parent="mEAoFZNLnI7TbArWBrGF-31" vertex="1">
          <mxGeometry width="30" height="30" as="geometry">
            <mxRectangle width="30" height="30" as="alternateBounds" />
          </mxGeometry>
        </mxCell>
        <mxCell id="mEAoFZNLnI7TbArWBrGF-33" value="Name" style="shape=partialRectangle;connectable=0;fillColor=none;top=0;left=0;bottom=0;right=0;align=left;spacingLeft=6;overflow=hidden;whiteSpace=wrap;html=1;" parent="mEAoFZNLnI7TbArWBrGF-31" vertex="1">
          <mxGeometry x="30" width="150" height="30" as="geometry">
            <mxRectangle width="150" height="30" as="alternateBounds" />
          </mxGeometry>
        </mxCell>
        <mxCell id="mEAoFZNLnI7TbArWBrGF-34" value="" style="shape=tableRow;horizontal=0;startSize=0;swimlaneHead=0;swimlaneBody=0;fillColor=none;collapsible=0;dropTarget=0;points=[[0,0.5],[1,0.5]];portConstraint=eastwest;top=0;left=0;right=0;bottom=0;" parent="mEAoFZNLnI7TbArWBrGF-27" vertex="1">
          <mxGeometry y="90" width="180" height="30" as="geometry" />
        </mxCell>
        <mxCell id="mEAoFZNLnI7TbArWBrGF-35" value="" style="shape=partialRectangle;connectable=0;fillColor=none;top=0;left=0;bottom=0;right=0;editable=1;overflow=hidden;whiteSpace=wrap;html=1;" parent="mEAoFZNLnI7TbArWBrGF-34" vertex="1">
          <mxGeometry width="30" height="30" as="geometry">
            <mxRectangle width="30" height="30" as="alternateBounds" />
          </mxGeometry>
        </mxCell>
        <mxCell id="mEAoFZNLnI7TbArWBrGF-36" value="MusicianKey" style="shape=partialRectangle;connectable=0;fillColor=none;top=0;left=0;bottom=0;right=0;align=left;spacingLeft=6;overflow=hidden;whiteSpace=wrap;html=1;" parent="mEAoFZNLnI7TbArWBrGF-34" vertex="1">
          <mxGeometry x="30" width="150" height="30" as="geometry">
            <mxRectangle width="150" height="30" as="alternateBounds" />
          </mxGeometry>
        </mxCell>
        <mxCell id="mEAoFZNLnI7TbArWBrGF-40" value="MusPlayIntru" style="shape=table;startSize=30;container=1;collapsible=1;childLayout=tableLayout;fixedRows=1;rowLines=0;fontStyle=1;align=center;resizeLast=1;html=1;" parent="1" vertex="1">
          <mxGeometry x="330" y="80" width="180" height="120" as="geometry" />
        </mxCell>
        <mxCell id="mEAoFZNLnI7TbArWBrGF-41" value="" style="shape=tableRow;horizontal=0;startSize=0;swimlaneHead=0;swimlaneBody=0;fillColor=none;collapsible=0;dropTarget=0;points=[[0,0.5],[1,0.5]];portConstraint=eastwest;top=0;left=0;right=0;bottom=1;" parent="mEAoFZNLnI7TbArWBrGF-40" vertex="1">
          <mxGeometry y="30" width="180" height="30" as="geometry" />
        </mxCell>
        <mxCell id="mEAoFZNLnI7TbArWBrGF-42" value="PK" style="shape=partialRectangle;connectable=0;fillColor=none;top=0;left=0;bottom=0;right=0;fontStyle=1;overflow=hidden;whiteSpace=wrap;html=1;" parent="mEAoFZNLnI7TbArWBrGF-41" vertex="1">
          <mxGeometry width="30" height="30" as="geometry">
            <mxRectangle width="30" height="30" as="alternateBounds" />
          </mxGeometry>
        </mxCell>
        <mxCell id="mEAoFZNLnI7TbArWBrGF-43" value="PlayID" style="shape=partialRectangle;connectable=0;fillColor=none;top=0;left=0;bottom=0;right=0;align=left;spacingLeft=6;fontStyle=5;overflow=hidden;whiteSpace=wrap;html=1;" parent="mEAoFZNLnI7TbArWBrGF-41" vertex="1">
          <mxGeometry x="30" width="150" height="30" as="geometry">
            <mxRectangle width="150" height="30" as="alternateBounds" />
          </mxGeometry>
        </mxCell>
        <mxCell id="mEAoFZNLnI7TbArWBrGF-44" value="" style="shape=tableRow;horizontal=0;startSize=0;swimlaneHead=0;swimlaneBody=0;fillColor=none;collapsible=0;dropTarget=0;points=[[0,0.5],[1,0.5]];portConstraint=eastwest;top=0;left=0;right=0;bottom=0;" parent="mEAoFZNLnI7TbArWBrGF-40" vertex="1">
          <mxGeometry y="60" width="180" height="30" as="geometry" />
        </mxCell>
        <mxCell id="mEAoFZNLnI7TbArWBrGF-45" value="&lt;i&gt;FK&lt;/i&gt;" style="shape=partialRectangle;connectable=0;fillColor=none;top=0;left=0;bottom=0;right=0;editable=1;overflow=hidden;whiteSpace=wrap;html=1;" parent="mEAoFZNLnI7TbArWBrGF-44" vertex="1">
          <mxGeometry width="30" height="30" as="geometry">
            <mxRectangle width="30" height="30" as="alternateBounds" />
          </mxGeometry>
        </mxCell>
        <mxCell id="mEAoFZNLnI7TbArWBrGF-46" value="&lt;i&gt;Musician&lt;/i&gt;" style="shape=partialRectangle;connectable=0;fillColor=none;top=0;left=0;bottom=0;right=0;align=left;spacingLeft=6;overflow=hidden;whiteSpace=wrap;html=1;" parent="mEAoFZNLnI7TbArWBrGF-44" vertex="1">
          <mxGeometry x="30" width="150" height="30" as="geometry">
            <mxRectangle width="150" height="30" as="alternateBounds" />
          </mxGeometry>
        </mxCell>
        <mxCell id="mEAoFZNLnI7TbArWBrGF-47" value="" style="shape=tableRow;horizontal=0;startSize=0;swimlaneHead=0;swimlaneBody=0;fillColor=none;collapsible=0;dropTarget=0;points=[[0,0.5],[1,0.5]];portConstraint=eastwest;top=0;left=0;right=0;bottom=0;" parent="mEAoFZNLnI7TbArWBrGF-40" vertex="1">
          <mxGeometry y="90" width="180" height="30" as="geometry" />
        </mxCell>
        <mxCell id="mEAoFZNLnI7TbArWBrGF-48" value="&lt;i&gt;FK&lt;/i&gt;" style="shape=partialRectangle;connectable=0;fillColor=none;top=0;left=0;bottom=0;right=0;editable=1;overflow=hidden;whiteSpace=wrap;html=1;" parent="mEAoFZNLnI7TbArWBrGF-47" vertex="1">
          <mxGeometry width="30" height="30" as="geometry">
            <mxRectangle width="30" height="30" as="alternateBounds" />
          </mxGeometry>
        </mxCell>
        <mxCell id="mEAoFZNLnI7TbArWBrGF-49" value="&lt;i&gt;InstrumentID&lt;/i&gt;" style="shape=partialRectangle;connectable=0;fillColor=none;top=0;left=0;bottom=0;right=0;align=left;spacingLeft=6;overflow=hidden;whiteSpace=wrap;html=1;" parent="mEAoFZNLnI7TbArWBrGF-47" vertex="1">
          <mxGeometry x="30" width="150" height="30" as="geometry">
            <mxRectangle width="150" height="30" as="alternateBounds" />
          </mxGeometry>
        </mxCell>
        <mxCell id="mEAoFZNLnI7TbArWBrGF-53" value="" style="fontSize=12;html=1;endArrow=ERoneToMany;startArrow=ERmandOne;rounded=0;exitX=1;exitY=0.5;exitDx=0;exitDy=0;entryX=0;entryY=0.5;entryDx=0;entryDy=0;" parent="1" source="mEAoFZNLnI7TbArWBrGF-18" target="mEAoFZNLnI7TbArWBrGF-44" edge="1">
          <mxGeometry width="100" height="100" relative="1" as="geometry">
            <mxPoint x="230" y="250" as="sourcePoint" />
            <mxPoint x="330" y="150" as="targetPoint" />
          </mxGeometry>
        </mxCell>
        <mxCell id="mEAoFZNLnI7TbArWBrGF-100" value="play" style="edgeLabel;html=1;align=center;verticalAlign=middle;resizable=0;points=[];" parent="mEAoFZNLnI7TbArWBrGF-53" vertex="1" connectable="0">
          <mxGeometry x="-0.1333" y="-3" relative="1" as="geometry">
            <mxPoint as="offset" />
          </mxGeometry>
        </mxCell>
        <mxCell id="mEAoFZNLnI7TbArWBrGF-54" value="" style="fontSize=12;html=1;endArrow=ERoneToMany;startArrow=ERmandOne;rounded=0;entryX=1;entryY=0.5;entryDx=0;entryDy=0;exitX=0;exitY=0.5;exitDx=0;exitDy=0;" parent="1" source="mEAoFZNLnI7TbArWBrGF-31" target="mEAoFZNLnI7TbArWBrGF-44" edge="1">
          <mxGeometry width="100" height="100" relative="1" as="geometry">
            <mxPoint x="690" y="220" as="sourcePoint" />
            <mxPoint x="510" y="240" as="targetPoint" />
          </mxGeometry>
        </mxCell>
        <mxCell id="mEAoFZNLnI7TbArWBrGF-101" value="play" style="edgeLabel;html=1;align=center;verticalAlign=middle;resizable=0;points=[];" parent="mEAoFZNLnI7TbArWBrGF-54" vertex="1" connectable="0">
          <mxGeometry x="0.1152" y="-3" relative="1" as="geometry">
            <mxPoint as="offset" />
          </mxGeometry>
        </mxCell>
        <mxCell id="mEAoFZNLnI7TbArWBrGF-55" value="Song" style="shape=table;startSize=30;container=1;collapsible=1;childLayout=tableLayout;fixedRows=1;rowLines=0;fontStyle=1;align=center;resizeLast=1;html=1;" parent="1" vertex="1">
          <mxGeometry x="-250" y="350" width="180" height="120" as="geometry" />
        </mxCell>
        <mxCell id="mEAoFZNLnI7TbArWBrGF-56" value="" style="shape=tableRow;horizontal=0;startSize=0;swimlaneHead=0;swimlaneBody=0;fillColor=none;collapsible=0;dropTarget=0;points=[[0,0.5],[1,0.5]];portConstraint=eastwest;top=0;left=0;right=0;bottom=1;" parent="mEAoFZNLnI7TbArWBrGF-55" vertex="1">
          <mxGeometry y="30" width="180" height="30" as="geometry" />
        </mxCell>
        <mxCell id="mEAoFZNLnI7TbArWBrGF-57" value="PK" style="shape=partialRectangle;connectable=0;fillColor=none;top=0;left=0;bottom=0;right=0;fontStyle=1;overflow=hidden;whiteSpace=wrap;html=1;" parent="mEAoFZNLnI7TbArWBrGF-56" vertex="1">
          <mxGeometry width="30" height="30" as="geometry">
            <mxRectangle width="30" height="30" as="alternateBounds" />
          </mxGeometry>
        </mxCell>
        <mxCell id="mEAoFZNLnI7TbArWBrGF-58" value="SongID" style="shape=partialRectangle;connectable=0;fillColor=none;top=0;left=0;bottom=0;right=0;align=left;spacingLeft=6;fontStyle=5;overflow=hidden;whiteSpace=wrap;html=1;" parent="mEAoFZNLnI7TbArWBrGF-56" vertex="1">
          <mxGeometry x="30" width="150" height="30" as="geometry">
            <mxRectangle width="150" height="30" as="alternateBounds" />
          </mxGeometry>
        </mxCell>
        <mxCell id="mEAoFZNLnI7TbArWBrGF-59" value="" style="shape=tableRow;horizontal=0;startSize=0;swimlaneHead=0;swimlaneBody=0;fillColor=none;collapsible=0;dropTarget=0;points=[[0,0.5],[1,0.5]];portConstraint=eastwest;top=0;left=0;right=0;bottom=0;" parent="mEAoFZNLnI7TbArWBrGF-55" vertex="1">
          <mxGeometry y="60" width="180" height="30" as="geometry" />
        </mxCell>
        <mxCell id="mEAoFZNLnI7TbArWBrGF-60" value="&lt;i&gt;FK&lt;/i&gt;" style="shape=partialRectangle;connectable=0;fillColor=none;top=0;left=0;bottom=0;right=0;editable=1;overflow=hidden;whiteSpace=wrap;html=1;" parent="mEAoFZNLnI7TbArWBrGF-59" vertex="1">
          <mxGeometry width="30" height="30" as="geometry">
            <mxRectangle width="30" height="30" as="alternateBounds" />
          </mxGeometry>
        </mxCell>
        <mxCell id="mEAoFZNLnI7TbArWBrGF-61" value="Title" style="shape=partialRectangle;connectable=0;fillColor=none;top=0;left=0;bottom=0;right=0;align=left;spacingLeft=6;overflow=hidden;whiteSpace=wrap;html=1;" parent="mEAoFZNLnI7TbArWBrGF-59" vertex="1">
          <mxGeometry x="30" width="150" height="30" as="geometry">
            <mxRectangle width="150" height="30" as="alternateBounds" />
          </mxGeometry>
        </mxCell>
        <mxCell id="mEAoFZNLnI7TbArWBrGF-62" value="" style="shape=tableRow;horizontal=0;startSize=0;swimlaneHead=0;swimlaneBody=0;fillColor=none;collapsible=0;dropTarget=0;points=[[0,0.5],[1,0.5]];portConstraint=eastwest;top=0;left=0;right=0;bottom=0;" parent="mEAoFZNLnI7TbArWBrGF-55" vertex="1">
          <mxGeometry y="90" width="180" height="30" as="geometry" />
        </mxCell>
        <mxCell id="mEAoFZNLnI7TbArWBrGF-63" value="&lt;i&gt;FK&lt;/i&gt;" style="shape=partialRectangle;connectable=0;fillColor=none;top=0;left=0;bottom=0;right=0;editable=1;overflow=hidden;whiteSpace=wrap;html=1;" parent="mEAoFZNLnI7TbArWBrGF-62" vertex="1">
          <mxGeometry width="30" height="30" as="geometry">
            <mxRectangle width="30" height="30" as="alternateBounds" />
          </mxGeometry>
        </mxCell>
        <mxCell id="mEAoFZNLnI7TbArWBrGF-64" value="Author" style="shape=partialRectangle;connectable=0;fillColor=none;top=0;left=0;bottom=0;right=0;align=left;spacingLeft=6;overflow=hidden;whiteSpace=wrap;html=1;" parent="mEAoFZNLnI7TbArWBrGF-62" vertex="1">
          <mxGeometry x="30" width="150" height="30" as="geometry">
            <mxRectangle width="150" height="30" as="alternateBounds" />
          </mxGeometry>
        </mxCell>
        <mxCell id="mEAoFZNLnI7TbArWBrGF-68" value="MusPerformingSong" style="shape=table;startSize=30;container=1;collapsible=1;childLayout=tableLayout;fixedRows=1;rowLines=0;fontStyle=1;align=center;resizeLast=1;html=1;" parent="1" vertex="1">
          <mxGeometry x="40" y="360" width="180" height="120" as="geometry" />
        </mxCell>
        <mxCell id="mEAoFZNLnI7TbArWBrGF-69" value="" style="shape=tableRow;horizontal=0;startSize=0;swimlaneHead=0;swimlaneBody=0;fillColor=none;collapsible=0;dropTarget=0;points=[[0,0.5],[1,0.5]];portConstraint=eastwest;top=0;left=0;right=0;bottom=1;" parent="mEAoFZNLnI7TbArWBrGF-68" vertex="1">
          <mxGeometry y="30" width="180" height="30" as="geometry" />
        </mxCell>
        <mxCell id="mEAoFZNLnI7TbArWBrGF-70" value="PK" style="shape=partialRectangle;connectable=0;fillColor=none;top=0;left=0;bottom=0;right=0;fontStyle=1;overflow=hidden;whiteSpace=wrap;html=1;" parent="mEAoFZNLnI7TbArWBrGF-69" vertex="1">
          <mxGeometry width="30" height="30" as="geometry">
            <mxRectangle width="30" height="30" as="alternateBounds" />
          </mxGeometry>
        </mxCell>
        <mxCell id="mEAoFZNLnI7TbArWBrGF-71" value="PerformID" style="shape=partialRectangle;connectable=0;fillColor=none;top=0;left=0;bottom=0;right=0;align=left;spacingLeft=6;fontStyle=5;overflow=hidden;whiteSpace=wrap;html=1;" parent="mEAoFZNLnI7TbArWBrGF-69" vertex="1">
          <mxGeometry x="30" width="150" height="30" as="geometry">
            <mxRectangle width="150" height="30" as="alternateBounds" />
          </mxGeometry>
        </mxCell>
        <mxCell id="mEAoFZNLnI7TbArWBrGF-72" value="" style="shape=tableRow;horizontal=0;startSize=0;swimlaneHead=0;swimlaneBody=0;fillColor=none;collapsible=0;dropTarget=0;points=[[0,0.5],[1,0.5]];portConstraint=eastwest;top=0;left=0;right=0;bottom=0;" parent="mEAoFZNLnI7TbArWBrGF-68" vertex="1">
          <mxGeometry y="60" width="180" height="30" as="geometry" />
        </mxCell>
        <mxCell id="mEAoFZNLnI7TbArWBrGF-73" value="&lt;i&gt;FK&lt;/i&gt;" style="shape=partialRectangle;connectable=0;fillColor=none;top=0;left=0;bottom=0;right=0;editable=1;overflow=hidden;whiteSpace=wrap;html=1;" parent="mEAoFZNLnI7TbArWBrGF-72" vertex="1">
          <mxGeometry width="30" height="30" as="geometry">
            <mxRectangle width="30" height="30" as="alternateBounds" />
          </mxGeometry>
        </mxCell>
        <mxCell id="mEAoFZNLnI7TbArWBrGF-74" value="MusicianSSN" style="shape=partialRectangle;connectable=0;fillColor=none;top=0;left=0;bottom=0;right=0;align=left;spacingLeft=6;overflow=hidden;whiteSpace=wrap;html=1;" parent="mEAoFZNLnI7TbArWBrGF-72" vertex="1">
          <mxGeometry x="30" width="150" height="30" as="geometry">
            <mxRectangle width="150" height="30" as="alternateBounds" />
          </mxGeometry>
        </mxCell>
        <mxCell id="mEAoFZNLnI7TbArWBrGF-75" value="" style="shape=tableRow;horizontal=0;startSize=0;swimlaneHead=0;swimlaneBody=0;fillColor=none;collapsible=0;dropTarget=0;points=[[0,0.5],[1,0.5]];portConstraint=eastwest;top=0;left=0;right=0;bottom=0;" parent="mEAoFZNLnI7TbArWBrGF-68" vertex="1">
          <mxGeometry y="90" width="180" height="30" as="geometry" />
        </mxCell>
        <mxCell id="mEAoFZNLnI7TbArWBrGF-76" value="&lt;i&gt;FK&lt;/i&gt;" style="shape=partialRectangle;connectable=0;fillColor=none;top=0;left=0;bottom=0;right=0;editable=1;overflow=hidden;whiteSpace=wrap;html=1;" parent="mEAoFZNLnI7TbArWBrGF-75" vertex="1">
          <mxGeometry width="30" height="30" as="geometry">
            <mxRectangle width="30" height="30" as="alternateBounds" />
          </mxGeometry>
        </mxCell>
        <mxCell id="mEAoFZNLnI7TbArWBrGF-77" value="SongID" style="shape=partialRectangle;connectable=0;fillColor=none;top=0;left=0;bottom=0;right=0;align=left;spacingLeft=6;overflow=hidden;whiteSpace=wrap;html=1;" parent="mEAoFZNLnI7TbArWBrGF-75" vertex="1">
          <mxGeometry x="30" width="150" height="30" as="geometry">
            <mxRectangle width="150" height="30" as="alternateBounds" />
          </mxGeometry>
        </mxCell>
        <mxCell id="mEAoFZNLnI7TbArWBrGF-95" value="" style="fontSize=12;html=1;endArrow=ERoneToMany;startArrow=ERmandOne;rounded=0;exitX=-0.013;exitY=0.167;exitDx=0;exitDy=0;exitPerimeter=0;" parent="1" source="mEAoFZNLnI7TbArWBrGF-72" target="mEAoFZNLnI7TbArWBrGF-59" edge="1">
          <mxGeometry width="100" height="100" relative="1" as="geometry">
            <mxPoint x="230" y="390" as="sourcePoint" />
            <mxPoint x="-80" y="420" as="targetPoint" />
          </mxGeometry>
        </mxCell>
        <mxCell id="mEAoFZNLnI7TbArWBrGF-99" value="perform" style="edgeLabel;html=1;align=center;verticalAlign=middle;resizable=0;points=[];" parent="mEAoFZNLnI7TbArWBrGF-95" vertex="1" connectable="0">
          <mxGeometry x="0.0216" y="1" relative="1" as="geometry">
            <mxPoint as="offset" />
          </mxGeometry>
        </mxCell>
        <mxCell id="mEAoFZNLnI7TbArWBrGF-96" value="" style="fontSize=12;html=1;endArrow=ERoneToMany;startArrow=ERmandOne;rounded=0;entryX=0.5;entryY=0;entryDx=0;entryDy=0;" parent="1" source="mEAoFZNLnI7TbArWBrGF-24" target="mEAoFZNLnI7TbArWBrGF-68" edge="1">
          <mxGeometry width="100" height="100" relative="1" as="geometry">
            <mxPoint x="360" y="370" as="sourcePoint" />
            <mxPoint x="260" y="280" as="targetPoint" />
          </mxGeometry>
        </mxCell>
        <mxCell id="mEAoFZNLnI7TbArWBrGF-98" value="perform" style="edgeLabel;html=1;align=center;verticalAlign=middle;resizable=0;points=[];" parent="mEAoFZNLnI7TbArWBrGF-96" vertex="1" connectable="0">
          <mxGeometry x="0.0103" y="-1" relative="1" as="geometry">
            <mxPoint as="offset" />
          </mxGeometry>
        </mxCell>
        <mxCell id="mEAoFZNLnI7TbArWBrGF-81" value="Album" style="shape=table;startSize=30;container=1;collapsible=1;childLayout=tableLayout;fixedRows=1;rowLines=0;fontStyle=1;align=center;resizeLast=1;html=1;" parent="1" vertex="1">
          <mxGeometry x="-250" y="80" width="180" height="180" as="geometry" />
        </mxCell>
        <mxCell id="mEAoFZNLnI7TbArWBrGF-82" value="" style="shape=tableRow;horizontal=0;startSize=0;swimlaneHead=0;swimlaneBody=0;fillColor=none;collapsible=0;dropTarget=0;points=[[0,0.5],[1,0.5]];portConstraint=eastwest;top=0;left=0;right=0;bottom=1;" parent="mEAoFZNLnI7TbArWBrGF-81" vertex="1">
          <mxGeometry y="30" width="180" height="30" as="geometry" />
        </mxCell>
        <mxCell id="mEAoFZNLnI7TbArWBrGF-83" value="PK" style="shape=partialRectangle;connectable=0;fillColor=none;top=0;left=0;bottom=0;right=0;fontStyle=1;overflow=hidden;whiteSpace=wrap;html=1;" parent="mEAoFZNLnI7TbArWBrGF-82" vertex="1">
          <mxGeometry width="30" height="30" as="geometry">
            <mxRectangle width="30" height="30" as="alternateBounds" />
          </mxGeometry>
        </mxCell>
        <mxCell id="mEAoFZNLnI7TbArWBrGF-84" value="AlbumID" style="shape=partialRectangle;connectable=0;fillColor=none;top=0;left=0;bottom=0;right=0;align=left;spacingLeft=6;fontStyle=5;overflow=hidden;whiteSpace=wrap;html=1;" parent="mEAoFZNLnI7TbArWBrGF-82" vertex="1">
          <mxGeometry x="30" width="150" height="30" as="geometry">
            <mxRectangle width="150" height="30" as="alternateBounds" />
          </mxGeometry>
        </mxCell>
        <mxCell id="mEAoFZNLnI7TbArWBrGF-85" value="" style="shape=tableRow;horizontal=0;startSize=0;swimlaneHead=0;swimlaneBody=0;fillColor=none;collapsible=0;dropTarget=0;points=[[0,0.5],[1,0.5]];portConstraint=eastwest;top=0;left=0;right=0;bottom=0;" parent="mEAoFZNLnI7TbArWBrGF-81" vertex="1">
          <mxGeometry y="60" width="180" height="30" as="geometry" />
        </mxCell>
        <mxCell id="mEAoFZNLnI7TbArWBrGF-86" value="" style="shape=partialRectangle;connectable=0;fillColor=none;top=0;left=0;bottom=0;right=0;editable=1;overflow=hidden;whiteSpace=wrap;html=1;" parent="mEAoFZNLnI7TbArWBrGF-85" vertex="1">
          <mxGeometry width="30" height="30" as="geometry">
            <mxRectangle width="30" height="30" as="alternateBounds" />
          </mxGeometry>
        </mxCell>
        <mxCell id="mEAoFZNLnI7TbArWBrGF-87" value="Title" style="shape=partialRectangle;connectable=0;fillColor=none;top=0;left=0;bottom=0;right=0;align=left;spacingLeft=6;overflow=hidden;whiteSpace=wrap;html=1;" parent="mEAoFZNLnI7TbArWBrGF-85" vertex="1">
          <mxGeometry x="30" width="150" height="30" as="geometry">
            <mxRectangle width="150" height="30" as="alternateBounds" />
          </mxGeometry>
        </mxCell>
        <mxCell id="mEAoFZNLnI7TbArWBrGF-88" value="" style="shape=tableRow;horizontal=0;startSize=0;swimlaneHead=0;swimlaneBody=0;fillColor=none;collapsible=0;dropTarget=0;points=[[0,0.5],[1,0.5]];portConstraint=eastwest;top=0;left=0;right=0;bottom=0;" parent="mEAoFZNLnI7TbArWBrGF-81" vertex="1">
          <mxGeometry y="90" width="180" height="30" as="geometry" />
        </mxCell>
        <mxCell id="mEAoFZNLnI7TbArWBrGF-89" value="" style="shape=partialRectangle;connectable=0;fillColor=none;top=0;left=0;bottom=0;right=0;editable=1;overflow=hidden;whiteSpace=wrap;html=1;" parent="mEAoFZNLnI7TbArWBrGF-88" vertex="1">
          <mxGeometry width="30" height="30" as="geometry">
            <mxRectangle width="30" height="30" as="alternateBounds" />
          </mxGeometry>
        </mxCell>
        <mxCell id="mEAoFZNLnI7TbArWBrGF-90" value="CopyRightDate" style="shape=partialRectangle;connectable=0;fillColor=none;top=0;left=0;bottom=0;right=0;align=left;spacingLeft=6;overflow=hidden;whiteSpace=wrap;html=1;" parent="mEAoFZNLnI7TbArWBrGF-88" vertex="1">
          <mxGeometry x="30" width="150" height="30" as="geometry">
            <mxRectangle width="150" height="30" as="alternateBounds" />
          </mxGeometry>
        </mxCell>
        <mxCell id="mEAoFZNLnI7TbArWBrGF-91" value="" style="shape=tableRow;horizontal=0;startSize=0;swimlaneHead=0;swimlaneBody=0;fillColor=none;collapsible=0;dropTarget=0;points=[[0,0.5],[1,0.5]];portConstraint=eastwest;top=0;left=0;right=0;bottom=0;" parent="mEAoFZNLnI7TbArWBrGF-81" vertex="1">
          <mxGeometry y="120" width="180" height="30" as="geometry" />
        </mxCell>
        <mxCell id="mEAoFZNLnI7TbArWBrGF-92" value="" style="shape=partialRectangle;connectable=0;fillColor=none;top=0;left=0;bottom=0;right=0;editable=1;overflow=hidden;whiteSpace=wrap;html=1;" parent="mEAoFZNLnI7TbArWBrGF-91" vertex="1">
          <mxGeometry width="30" height="30" as="geometry">
            <mxRectangle width="30" height="30" as="alternateBounds" />
          </mxGeometry>
        </mxCell>
        <mxCell id="mEAoFZNLnI7TbArWBrGF-93" value="Format" style="shape=partialRectangle;connectable=0;fillColor=none;top=0;left=0;bottom=0;right=0;align=left;spacingLeft=6;overflow=hidden;whiteSpace=wrap;html=1;" parent="mEAoFZNLnI7TbArWBrGF-91" vertex="1">
          <mxGeometry x="30" width="150" height="30" as="geometry">
            <mxRectangle width="150" height="30" as="alternateBounds" />
          </mxGeometry>
        </mxCell>
        <mxCell id="mEAoFZNLnI7TbArWBrGF-102" value="" style="fontSize=12;html=1;endArrow=ERoneToMany;startArrow=ERmandOne;rounded=0;" parent="1" target="mEAoFZNLnI7TbArWBrGF-55" edge="1">
          <mxGeometry width="100" height="100" relative="1" as="geometry">
            <mxPoint x="-160" y="260" as="sourcePoint" />
            <mxPoint x="-160.5" y="360" as="targetPoint" />
          </mxGeometry>
        </mxCell>
        <mxCell id="mEAoFZNLnI7TbArWBrGF-103" value="perform" style="edgeLabel;html=1;align=center;verticalAlign=middle;resizable=0;points=[];" parent="mEAoFZNLnI7TbArWBrGF-102" vertex="1" connectable="0">
          <mxGeometry x="0.0103" y="-1" relative="1" as="geometry">
            <mxPoint as="offset" />
          </mxGeometry>
        </mxCell>
        <mxCell id="mEAoFZNLnI7TbArWBrGF-104" value="" style="fontSize=12;html=1;endArrow=ERoneToMany;startArrow=ERmandOne;rounded=0;exitX=0;exitY=0.5;exitDx=0;exitDy=0;entryX=1;entryY=0.5;entryDx=0;entryDy=0;" parent="1" source="mEAoFZNLnI7TbArWBrGF-18" target="mEAoFZNLnI7TbArWBrGF-85" edge="1">
          <mxGeometry width="100" height="100" relative="1" as="geometry">
            <mxPoint x="38" y="154.5" as="sourcePoint" />
            <mxPoint x="-70" y="154.5" as="targetPoint" />
          </mxGeometry>
        </mxCell>
        <mxCell id="mEAoFZNLnI7TbArWBrGF-105" value="perform" style="edgeLabel;html=1;align=center;verticalAlign=middle;resizable=0;points=[];" parent="mEAoFZNLnI7TbArWBrGF-104" vertex="1" connectable="0">
          <mxGeometry x="0.0216" y="1" relative="1" as="geometry">
            <mxPoint as="offset" />
          </mxGeometry>
        </mxCell>
        <mxCell id="mEAoFZNLnI7TbArWBrGF-111" value="MusicianSSN" style="shape=partialRectangle;connectable=0;fillColor=none;top=0;left=0;bottom=0;right=0;align=left;spacingLeft=6;overflow=hidden;whiteSpace=wrap;html=1;" parent="1" vertex="1">
          <mxGeometry x="-220" y="230" width="150" height="30" as="geometry">
            <mxRectangle width="150" height="30" as="alternateBounds" />
          </mxGeometry>
        </mxCell>
        <mxCell id="mEAoFZNLnI7TbArWBrGF-112" value="&lt;i&gt;FK&lt;/i&gt;" style="shape=partialRectangle;connectable=0;fillColor=none;top=0;left=0;bottom=0;right=0;editable=1;overflow=hidden;whiteSpace=wrap;html=1;" parent="1" vertex="1">
          <mxGeometry x="-250" y="230" width="30" height="30" as="geometry">
            <mxRectangle width="30" height="30" as="alternateBounds" />
          </mxGeometry>
        </mxCell>
      </root>
    </mxGraphModel>
  </diagram>
  <diagram id="YCgQCGpqv334AEFsSiE3" name="Page-5">
    <mxGraphModel dx="2071" dy="759" grid="1" gridSize="10" guides="1" tooltips="1" connect="1" arrows="1" fold="1" page="1" pageScale="1" pageWidth="850" pageHeight="1100" math="0" shadow="0">
      <root>
        <mxCell id="0" />
        <mxCell id="1" parent="0" />
        <mxCell id="clL4XsLrLGnqJoo1Gu7V-1" value="Customer" style="shape=table;startSize=30;container=1;collapsible=1;childLayout=tableLayout;fixedRows=1;rowLines=0;fontStyle=1;align=center;resizeLast=1;html=1;" parent="1" vertex="1">
          <mxGeometry x="-680" y="460" width="180" height="180" as="geometry" />
        </mxCell>
        <mxCell id="clL4XsLrLGnqJoo1Gu7V-2" value="" style="shape=tableRow;horizontal=0;startSize=0;swimlaneHead=0;swimlaneBody=0;fillColor=none;collapsible=0;dropTarget=0;points=[[0,0.5],[1,0.5]];portConstraint=eastwest;top=0;left=0;right=0;bottom=1;" parent="clL4XsLrLGnqJoo1Gu7V-1" vertex="1">
          <mxGeometry y="30" width="180" height="30" as="geometry" />
        </mxCell>
        <mxCell id="clL4XsLrLGnqJoo1Gu7V-3" value="PK" style="shape=partialRectangle;connectable=0;fillColor=none;top=0;left=0;bottom=0;right=0;fontStyle=1;overflow=hidden;whiteSpace=wrap;html=1;" parent="clL4XsLrLGnqJoo1Gu7V-2" vertex="1">
          <mxGeometry width="30" height="30" as="geometry">
            <mxRectangle width="30" height="30" as="alternateBounds" />
          </mxGeometry>
        </mxCell>
        <mxCell id="clL4XsLrLGnqJoo1Gu7V-4" value="Customer_ID" style="shape=partialRectangle;connectable=0;fillColor=none;top=0;left=0;bottom=0;right=0;align=left;spacingLeft=6;fontStyle=5;overflow=hidden;whiteSpace=wrap;html=1;" parent="clL4XsLrLGnqJoo1Gu7V-2" vertex="1">
          <mxGeometry x="30" width="150" height="30" as="geometry">
            <mxRectangle width="150" height="30" as="alternateBounds" />
          </mxGeometry>
        </mxCell>
        <mxCell id="clL4XsLrLGnqJoo1Gu7V-5" value="" style="shape=tableRow;horizontal=0;startSize=0;swimlaneHead=0;swimlaneBody=0;fillColor=none;collapsible=0;dropTarget=0;points=[[0,0.5],[1,0.5]];portConstraint=eastwest;top=0;left=0;right=0;bottom=0;" parent="clL4XsLrLGnqJoo1Gu7V-1" vertex="1">
          <mxGeometry y="60" width="180" height="30" as="geometry" />
        </mxCell>
        <mxCell id="clL4XsLrLGnqJoo1Gu7V-6" value="" style="shape=partialRectangle;connectable=0;fillColor=none;top=0;left=0;bottom=0;right=0;editable=1;overflow=hidden;whiteSpace=wrap;html=1;" parent="clL4XsLrLGnqJoo1Gu7V-5" vertex="1">
          <mxGeometry width="30" height="30" as="geometry">
            <mxRectangle width="30" height="30" as="alternateBounds" />
          </mxGeometry>
        </mxCell>
        <mxCell id="clL4XsLrLGnqJoo1Gu7V-7" value="Customer Name" style="shape=partialRectangle;connectable=0;fillColor=none;top=0;left=0;bottom=0;right=0;align=left;spacingLeft=6;overflow=hidden;whiteSpace=wrap;html=1;" parent="clL4XsLrLGnqJoo1Gu7V-5" vertex="1">
          <mxGeometry x="30" width="150" height="30" as="geometry">
            <mxRectangle width="150" height="30" as="alternateBounds" />
          </mxGeometry>
        </mxCell>
        <mxCell id="clL4XsLrLGnqJoo1Gu7V-8" value="" style="shape=tableRow;horizontal=0;startSize=0;swimlaneHead=0;swimlaneBody=0;fillColor=none;collapsible=0;dropTarget=0;points=[[0,0.5],[1,0.5]];portConstraint=eastwest;top=0;left=0;right=0;bottom=0;" parent="clL4XsLrLGnqJoo1Gu7V-1" vertex="1">
          <mxGeometry y="90" width="180" height="30" as="geometry" />
        </mxCell>
        <mxCell id="clL4XsLrLGnqJoo1Gu7V-9" value="" style="shape=partialRectangle;connectable=0;fillColor=none;top=0;left=0;bottom=0;right=0;editable=1;overflow=hidden;whiteSpace=wrap;html=1;" parent="clL4XsLrLGnqJoo1Gu7V-8" vertex="1">
          <mxGeometry width="30" height="30" as="geometry">
            <mxRectangle width="30" height="30" as="alternateBounds" />
          </mxGeometry>
        </mxCell>
        <mxCell id="clL4XsLrLGnqJoo1Gu7V-10" value="Customer TP number" style="shape=partialRectangle;connectable=0;fillColor=none;top=0;left=0;bottom=0;right=0;align=left;spacingLeft=6;overflow=hidden;whiteSpace=wrap;html=1;" parent="clL4XsLrLGnqJoo1Gu7V-8" vertex="1">
          <mxGeometry x="30" width="150" height="30" as="geometry">
            <mxRectangle width="150" height="30" as="alternateBounds" />
          </mxGeometry>
        </mxCell>
        <mxCell id="clL4XsLrLGnqJoo1Gu7V-11" value="" style="shape=tableRow;horizontal=0;startSize=0;swimlaneHead=0;swimlaneBody=0;fillColor=none;collapsible=0;dropTarget=0;points=[[0,0.5],[1,0.5]];portConstraint=eastwest;top=0;left=0;right=0;bottom=0;" parent="clL4XsLrLGnqJoo1Gu7V-1" vertex="1">
          <mxGeometry y="120" width="180" height="30" as="geometry" />
        </mxCell>
        <mxCell id="clL4XsLrLGnqJoo1Gu7V-12" value="&lt;i&gt;FK&lt;/i&gt;" style="shape=partialRectangle;connectable=0;fillColor=none;top=0;left=0;bottom=0;right=0;editable=1;overflow=hidden;whiteSpace=wrap;html=1;" parent="clL4XsLrLGnqJoo1Gu7V-11" vertex="1">
          <mxGeometry width="30" height="30" as="geometry">
            <mxRectangle width="30" height="30" as="alternateBounds" />
          </mxGeometry>
        </mxCell>
        <mxCell id="clL4XsLrLGnqJoo1Gu7V-13" value="&lt;i&gt;Order_ID&lt;/i&gt;" style="shape=partialRectangle;connectable=0;fillColor=none;top=0;left=0;bottom=0;right=0;align=left;spacingLeft=6;overflow=hidden;whiteSpace=wrap;html=1;" parent="clL4XsLrLGnqJoo1Gu7V-11" vertex="1">
          <mxGeometry x="30" width="150" height="30" as="geometry">
            <mxRectangle width="150" height="30" as="alternateBounds" />
          </mxGeometry>
        </mxCell>
        <mxCell id="clL4XsLrLGnqJoo1Gu7V-14" value="" style="shape=tableRow;horizontal=0;startSize=0;swimlaneHead=0;swimlaneBody=0;fillColor=none;collapsible=0;dropTarget=0;points=[[0,0.5],[1,0.5]];portConstraint=eastwest;top=0;left=0;right=0;bottom=0;" parent="clL4XsLrLGnqJoo1Gu7V-1" vertex="1">
          <mxGeometry y="150" width="180" height="30" as="geometry" />
        </mxCell>
        <mxCell id="clL4XsLrLGnqJoo1Gu7V-15" value="" style="shape=partialRectangle;connectable=0;fillColor=none;top=0;left=0;bottom=0;right=0;editable=1;overflow=hidden;whiteSpace=wrap;html=1;" parent="clL4XsLrLGnqJoo1Gu7V-14" vertex="1">
          <mxGeometry width="30" height="30" as="geometry">
            <mxRectangle width="30" height="30" as="alternateBounds" />
          </mxGeometry>
        </mxCell>
        <mxCell id="clL4XsLrLGnqJoo1Gu7V-16" value="Customer Wallet Balance" style="shape=partialRectangle;connectable=0;fillColor=none;top=0;left=0;bottom=0;right=0;align=left;spacingLeft=6;overflow=hidden;whiteSpace=wrap;html=1;" parent="clL4XsLrLGnqJoo1Gu7V-14" vertex="1">
          <mxGeometry x="30" width="150" height="30" as="geometry">
            <mxRectangle width="150" height="30" as="alternateBounds" />
          </mxGeometry>
        </mxCell>
        <mxCell id="clL4XsLrLGnqJoo1Gu7V-17" value="Table" style="shape=table;startSize=30;container=1;collapsible=1;childLayout=tableLayout;fixedRows=1;rowLines=0;fontStyle=1;align=center;resizeLast=1;html=1;" parent="1" vertex="1">
          <mxGeometry x="-60" y="470" width="180" height="210" as="geometry" />
        </mxCell>
        <mxCell id="clL4XsLrLGnqJoo1Gu7V-18" value="" style="shape=tableRow;horizontal=0;startSize=0;swimlaneHead=0;swimlaneBody=0;fillColor=none;collapsible=0;dropTarget=0;points=[[0,0.5],[1,0.5]];portConstraint=eastwest;top=0;left=0;right=0;bottom=1;" parent="clL4XsLrLGnqJoo1Gu7V-17" vertex="1">
          <mxGeometry y="30" width="180" height="30" as="geometry" />
        </mxCell>
        <mxCell id="clL4XsLrLGnqJoo1Gu7V-19" value="PK" style="shape=partialRectangle;connectable=0;fillColor=none;top=0;left=0;bottom=0;right=0;fontStyle=1;overflow=hidden;whiteSpace=wrap;html=1;" parent="clL4XsLrLGnqJoo1Gu7V-18" vertex="1">
          <mxGeometry width="30" height="30" as="geometry">
            <mxRectangle width="30" height="30" as="alternateBounds" />
          </mxGeometry>
        </mxCell>
        <mxCell id="clL4XsLrLGnqJoo1Gu7V-20" value="UniqueID" style="shape=partialRectangle;connectable=0;fillColor=none;top=0;left=0;bottom=0;right=0;align=left;spacingLeft=6;fontStyle=5;overflow=hidden;whiteSpace=wrap;html=1;" parent="clL4XsLrLGnqJoo1Gu7V-18" vertex="1">
          <mxGeometry x="30" width="150" height="30" as="geometry">
            <mxRectangle width="150" height="30" as="alternateBounds" />
          </mxGeometry>
        </mxCell>
        <mxCell id="clL4XsLrLGnqJoo1Gu7V-21" value="" style="shape=tableRow;horizontal=0;startSize=0;swimlaneHead=0;swimlaneBody=0;fillColor=none;collapsible=0;dropTarget=0;points=[[0,0.5],[1,0.5]];portConstraint=eastwest;top=0;left=0;right=0;bottom=0;" parent="clL4XsLrLGnqJoo1Gu7V-17" vertex="1">
          <mxGeometry y="60" width="180" height="30" as="geometry" />
        </mxCell>
        <mxCell id="clL4XsLrLGnqJoo1Gu7V-22" value="" style="shape=partialRectangle;connectable=0;fillColor=none;top=0;left=0;bottom=0;right=0;editable=1;overflow=hidden;whiteSpace=wrap;html=1;" parent="clL4XsLrLGnqJoo1Gu7V-21" vertex="1">
          <mxGeometry width="30" height="30" as="geometry">
            <mxRectangle width="30" height="30" as="alternateBounds" />
          </mxGeometry>
        </mxCell>
        <mxCell id="clL4XsLrLGnqJoo1Gu7V-23" value="Row 1" style="shape=partialRectangle;connectable=0;fillColor=none;top=0;left=0;bottom=0;right=0;align=left;spacingLeft=6;overflow=hidden;whiteSpace=wrap;html=1;" parent="clL4XsLrLGnqJoo1Gu7V-21" vertex="1">
          <mxGeometry x="30" width="150" height="30" as="geometry">
            <mxRectangle width="150" height="30" as="alternateBounds" />
          </mxGeometry>
        </mxCell>
        <mxCell id="clL4XsLrLGnqJoo1Gu7V-24" value="" style="shape=tableRow;horizontal=0;startSize=0;swimlaneHead=0;swimlaneBody=0;fillColor=none;collapsible=0;dropTarget=0;points=[[0,0.5],[1,0.5]];portConstraint=eastwest;top=0;left=0;right=0;bottom=0;" parent="clL4XsLrLGnqJoo1Gu7V-17" vertex="1">
          <mxGeometry y="90" width="180" height="30" as="geometry" />
        </mxCell>
        <mxCell id="clL4XsLrLGnqJoo1Gu7V-25" value="" style="shape=partialRectangle;connectable=0;fillColor=none;top=0;left=0;bottom=0;right=0;editable=1;overflow=hidden;whiteSpace=wrap;html=1;" parent="clL4XsLrLGnqJoo1Gu7V-24" vertex="1">
          <mxGeometry width="30" height="30" as="geometry">
            <mxRectangle width="30" height="30" as="alternateBounds" />
          </mxGeometry>
        </mxCell>
        <mxCell id="clL4XsLrLGnqJoo1Gu7V-26" value="Row 2" style="shape=partialRectangle;connectable=0;fillColor=none;top=0;left=0;bottom=0;right=0;align=left;spacingLeft=6;overflow=hidden;whiteSpace=wrap;html=1;" parent="clL4XsLrLGnqJoo1Gu7V-24" vertex="1">
          <mxGeometry x="30" width="150" height="30" as="geometry">
            <mxRectangle width="150" height="30" as="alternateBounds" />
          </mxGeometry>
        </mxCell>
        <mxCell id="clL4XsLrLGnqJoo1Gu7V-27" value="" style="shape=tableRow;horizontal=0;startSize=0;swimlaneHead=0;swimlaneBody=0;fillColor=none;collapsible=0;dropTarget=0;points=[[0,0.5],[1,0.5]];portConstraint=eastwest;top=0;left=0;right=0;bottom=0;" parent="clL4XsLrLGnqJoo1Gu7V-17" vertex="1">
          <mxGeometry y="120" width="180" height="30" as="geometry" />
        </mxCell>
        <mxCell id="clL4XsLrLGnqJoo1Gu7V-28" value="" style="shape=partialRectangle;connectable=0;fillColor=none;top=0;left=0;bottom=0;right=0;editable=1;overflow=hidden;whiteSpace=wrap;html=1;" parent="clL4XsLrLGnqJoo1Gu7V-27" vertex="1">
          <mxGeometry width="30" height="30" as="geometry">
            <mxRectangle width="30" height="30" as="alternateBounds" />
          </mxGeometry>
        </mxCell>
        <mxCell id="clL4XsLrLGnqJoo1Gu7V-29" value="Row 3" style="shape=partialRectangle;connectable=0;fillColor=none;top=0;left=0;bottom=0;right=0;align=left;spacingLeft=6;overflow=hidden;whiteSpace=wrap;html=1;" parent="clL4XsLrLGnqJoo1Gu7V-27" vertex="1">
          <mxGeometry x="30" width="150" height="30" as="geometry">
            <mxRectangle width="150" height="30" as="alternateBounds" />
          </mxGeometry>
        </mxCell>
        <mxCell id="clL4XsLrLGnqJoo1Gu7V-65" value="" style="shape=tableRow;horizontal=0;startSize=0;swimlaneHead=0;swimlaneBody=0;fillColor=none;collapsible=0;dropTarget=0;points=[[0,0.5],[1,0.5]];portConstraint=eastwest;top=0;left=0;right=0;bottom=0;" parent="clL4XsLrLGnqJoo1Gu7V-17" vertex="1">
          <mxGeometry y="150" width="180" height="30" as="geometry" />
        </mxCell>
        <mxCell id="clL4XsLrLGnqJoo1Gu7V-66" value="" style="shape=partialRectangle;connectable=0;fillColor=none;top=0;left=0;bottom=0;right=0;editable=1;overflow=hidden;whiteSpace=wrap;html=1;" parent="clL4XsLrLGnqJoo1Gu7V-65" vertex="1">
          <mxGeometry width="30" height="30" as="geometry">
            <mxRectangle width="30" height="30" as="alternateBounds" />
          </mxGeometry>
        </mxCell>
        <mxCell id="clL4XsLrLGnqJoo1Gu7V-67" value="Row 3" style="shape=partialRectangle;connectable=0;fillColor=none;top=0;left=0;bottom=0;right=0;align=left;spacingLeft=6;overflow=hidden;whiteSpace=wrap;html=1;" parent="clL4XsLrLGnqJoo1Gu7V-65" vertex="1">
          <mxGeometry x="30" width="150" height="30" as="geometry">
            <mxRectangle width="150" height="30" as="alternateBounds" />
          </mxGeometry>
        </mxCell>
        <mxCell id="clL4XsLrLGnqJoo1Gu7V-62" value="" style="shape=tableRow;horizontal=0;startSize=0;swimlaneHead=0;swimlaneBody=0;fillColor=none;collapsible=0;dropTarget=0;points=[[0,0.5],[1,0.5]];portConstraint=eastwest;top=0;left=0;right=0;bottom=0;" parent="clL4XsLrLGnqJoo1Gu7V-17" vertex="1">
          <mxGeometry y="180" width="180" height="30" as="geometry" />
        </mxCell>
        <mxCell id="clL4XsLrLGnqJoo1Gu7V-63" value="" style="shape=partialRectangle;connectable=0;fillColor=none;top=0;left=0;bottom=0;right=0;editable=1;overflow=hidden;whiteSpace=wrap;html=1;" parent="clL4XsLrLGnqJoo1Gu7V-62" vertex="1">
          <mxGeometry width="30" height="30" as="geometry">
            <mxRectangle width="30" height="30" as="alternateBounds" />
          </mxGeometry>
        </mxCell>
        <mxCell id="clL4XsLrLGnqJoo1Gu7V-64" value="Row 3" style="shape=partialRectangle;connectable=0;fillColor=none;top=0;left=0;bottom=0;right=0;align=left;spacingLeft=6;overflow=hidden;whiteSpace=wrap;html=1;" parent="clL4XsLrLGnqJoo1Gu7V-62" vertex="1">
          <mxGeometry x="30" width="150" height="30" as="geometry">
            <mxRectangle width="150" height="30" as="alternateBounds" />
          </mxGeometry>
        </mxCell>
        <mxCell id="clL4XsLrLGnqJoo1Gu7V-30" value="Table" style="shape=table;startSize=30;container=1;collapsible=1;childLayout=tableLayout;fixedRows=1;rowLines=0;fontStyle=1;align=center;resizeLast=1;html=1;" parent="1" vertex="1">
          <mxGeometry x="-380" y="260" width="180" height="210" as="geometry" />
        </mxCell>
        <mxCell id="clL4XsLrLGnqJoo1Gu7V-31" value="" style="shape=tableRow;horizontal=0;startSize=0;swimlaneHead=0;swimlaneBody=0;fillColor=none;collapsible=0;dropTarget=0;points=[[0,0.5],[1,0.5]];portConstraint=eastwest;top=0;left=0;right=0;bottom=1;" parent="clL4XsLrLGnqJoo1Gu7V-30" vertex="1">
          <mxGeometry y="30" width="180" height="30" as="geometry" />
        </mxCell>
        <mxCell id="clL4XsLrLGnqJoo1Gu7V-32" value="PK" style="shape=partialRectangle;connectable=0;fillColor=none;top=0;left=0;bottom=0;right=0;fontStyle=1;overflow=hidden;whiteSpace=wrap;html=1;" parent="clL4XsLrLGnqJoo1Gu7V-31" vertex="1">
          <mxGeometry width="30" height="30" as="geometry">
            <mxRectangle width="30" height="30" as="alternateBounds" />
          </mxGeometry>
        </mxCell>
        <mxCell id="clL4XsLrLGnqJoo1Gu7V-33" value="Order_ID" style="shape=partialRectangle;connectable=0;fillColor=none;top=0;left=0;bottom=0;right=0;align=left;spacingLeft=6;fontStyle=5;overflow=hidden;whiteSpace=wrap;html=1;" parent="clL4XsLrLGnqJoo1Gu7V-31" vertex="1">
          <mxGeometry x="30" width="150" height="30" as="geometry">
            <mxRectangle width="150" height="30" as="alternateBounds" />
          </mxGeometry>
        </mxCell>
        <mxCell id="clL4XsLrLGnqJoo1Gu7V-34" value="" style="shape=tableRow;horizontal=0;startSize=0;swimlaneHead=0;swimlaneBody=0;fillColor=none;collapsible=0;dropTarget=0;points=[[0,0.5],[1,0.5]];portConstraint=eastwest;top=0;left=0;right=0;bottom=0;" parent="clL4XsLrLGnqJoo1Gu7V-30" vertex="1">
          <mxGeometry y="60" width="180" height="30" as="geometry" />
        </mxCell>
        <mxCell id="clL4XsLrLGnqJoo1Gu7V-35" value="" style="shape=partialRectangle;connectable=0;fillColor=none;top=0;left=0;bottom=0;right=0;editable=1;overflow=hidden;whiteSpace=wrap;html=1;" parent="clL4XsLrLGnqJoo1Gu7V-34" vertex="1">
          <mxGeometry width="30" height="30" as="geometry">
            <mxRectangle width="30" height="30" as="alternateBounds" />
          </mxGeometry>
        </mxCell>
        <mxCell id="clL4XsLrLGnqJoo1Gu7V-36" value="F&amp;amp;B Cost" style="shape=partialRectangle;connectable=0;fillColor=none;top=0;left=0;bottom=0;right=0;align=left;spacingLeft=6;overflow=hidden;whiteSpace=wrap;html=1;" parent="clL4XsLrLGnqJoo1Gu7V-34" vertex="1">
          <mxGeometry x="30" width="150" height="30" as="geometry">
            <mxRectangle width="150" height="30" as="alternateBounds" />
          </mxGeometry>
        </mxCell>
        <mxCell id="clL4XsLrLGnqJoo1Gu7V-37" value="" style="shape=tableRow;horizontal=0;startSize=0;swimlaneHead=0;swimlaneBody=0;fillColor=none;collapsible=0;dropTarget=0;points=[[0,0.5],[1,0.5]];portConstraint=eastwest;top=0;left=0;right=0;bottom=0;" parent="clL4XsLrLGnqJoo1Gu7V-30" vertex="1">
          <mxGeometry y="90" width="180" height="30" as="geometry" />
        </mxCell>
        <mxCell id="clL4XsLrLGnqJoo1Gu7V-38" value="" style="shape=partialRectangle;connectable=0;fillColor=none;top=0;left=0;bottom=0;right=0;editable=1;overflow=hidden;whiteSpace=wrap;html=1;" parent="clL4XsLrLGnqJoo1Gu7V-37" vertex="1">
          <mxGeometry width="30" height="30" as="geometry">
            <mxRectangle width="30" height="30" as="alternateBounds" />
          </mxGeometry>
        </mxCell>
        <mxCell id="clL4XsLrLGnqJoo1Gu7V-39" value="Order Time" style="shape=partialRectangle;connectable=0;fillColor=none;top=0;left=0;bottom=0;right=0;align=left;spacingLeft=6;overflow=hidden;whiteSpace=wrap;html=1;" parent="clL4XsLrLGnqJoo1Gu7V-37" vertex="1">
          <mxGeometry x="30" width="150" height="30" as="geometry">
            <mxRectangle width="150" height="30" as="alternateBounds" />
          </mxGeometry>
        </mxCell>
        <mxCell id="clL4XsLrLGnqJoo1Gu7V-40" value="" style="shape=tableRow;horizontal=0;startSize=0;swimlaneHead=0;swimlaneBody=0;fillColor=none;collapsible=0;dropTarget=0;points=[[0,0.5],[1,0.5]];portConstraint=eastwest;top=0;left=0;right=0;bottom=0;" parent="clL4XsLrLGnqJoo1Gu7V-30" vertex="1">
          <mxGeometry y="120" width="180" height="30" as="geometry" />
        </mxCell>
        <mxCell id="clL4XsLrLGnqJoo1Gu7V-41" value="" style="shape=partialRectangle;connectable=0;fillColor=none;top=0;left=0;bottom=0;right=0;editable=1;overflow=hidden;whiteSpace=wrap;html=1;" parent="clL4XsLrLGnqJoo1Gu7V-40" vertex="1">
          <mxGeometry width="30" height="30" as="geometry">
            <mxRectangle width="30" height="30" as="alternateBounds" />
          </mxGeometry>
        </mxCell>
        <mxCell id="clL4XsLrLGnqJoo1Gu7V-42" value="Taken Time" style="shape=partialRectangle;connectable=0;fillColor=none;top=0;left=0;bottom=0;right=0;align=left;spacingLeft=6;overflow=hidden;whiteSpace=wrap;html=1;" parent="clL4XsLrLGnqJoo1Gu7V-40" vertex="1">
          <mxGeometry x="30" width="150" height="30" as="geometry">
            <mxRectangle width="150" height="30" as="alternateBounds" />
          </mxGeometry>
        </mxCell>
        <mxCell id="clL4XsLrLGnqJoo1Gu7V-68" value="" style="shape=tableRow;horizontal=0;startSize=0;swimlaneHead=0;swimlaneBody=0;fillColor=none;collapsible=0;dropTarget=0;points=[[0,0.5],[1,0.5]];portConstraint=eastwest;top=0;left=0;right=0;bottom=0;" parent="clL4XsLrLGnqJoo1Gu7V-30" vertex="1">
          <mxGeometry y="150" width="180" height="30" as="geometry" />
        </mxCell>
        <mxCell id="clL4XsLrLGnqJoo1Gu7V-69" value="" style="shape=partialRectangle;connectable=0;fillColor=none;top=0;left=0;bottom=0;right=0;editable=1;overflow=hidden;whiteSpace=wrap;html=1;" parent="clL4XsLrLGnqJoo1Gu7V-68" vertex="1">
          <mxGeometry width="30" height="30" as="geometry">
            <mxRectangle width="30" height="30" as="alternateBounds" />
          </mxGeometry>
        </mxCell>
        <mxCell id="clL4XsLrLGnqJoo1Gu7V-70" value="Estimate Ready TIme" style="shape=partialRectangle;connectable=0;fillColor=none;top=0;left=0;bottom=0;right=0;align=left;spacingLeft=6;overflow=hidden;whiteSpace=wrap;html=1;" parent="clL4XsLrLGnqJoo1Gu7V-68" vertex="1">
          <mxGeometry x="30" width="150" height="30" as="geometry">
            <mxRectangle width="150" height="30" as="alternateBounds" />
          </mxGeometry>
        </mxCell>
        <mxCell id="clL4XsLrLGnqJoo1Gu7V-43" value="" style="shape=tableRow;horizontal=0;startSize=0;swimlaneHead=0;swimlaneBody=0;fillColor=none;collapsible=0;dropTarget=0;points=[[0,0.5],[1,0.5]];portConstraint=eastwest;top=0;left=0;right=0;bottom=0;" parent="clL4XsLrLGnqJoo1Gu7V-30" vertex="1">
          <mxGeometry y="180" width="180" height="30" as="geometry" />
        </mxCell>
        <mxCell id="clL4XsLrLGnqJoo1Gu7V-44" value="&lt;i&gt;FK&lt;/i&gt;" style="shape=partialRectangle;connectable=0;fillColor=none;top=0;left=0;bottom=0;right=0;editable=1;overflow=hidden;whiteSpace=wrap;html=1;" parent="clL4XsLrLGnqJoo1Gu7V-43" vertex="1">
          <mxGeometry width="30" height="30" as="geometry">
            <mxRectangle width="30" height="30" as="alternateBounds" />
          </mxGeometry>
        </mxCell>
        <mxCell id="clL4XsLrLGnqJoo1Gu7V-45" value="&lt;i&gt;Customer_ID&lt;/i&gt;" style="shape=partialRectangle;connectable=0;fillColor=none;top=0;left=0;bottom=0;right=0;align=left;spacingLeft=6;overflow=hidden;whiteSpace=wrap;html=1;" parent="clL4XsLrLGnqJoo1Gu7V-43" vertex="1">
          <mxGeometry x="30" width="150" height="30" as="geometry">
            <mxRectangle width="150" height="30" as="alternateBounds" />
          </mxGeometry>
        </mxCell>
      </root>
    </mxGraphModel>
  </diagram>
  <diagram id="_IkbRisXnEnNpBMq6ns3" name="Page-7">
    <mxGraphModel dx="1221" dy="759" grid="1" gridSize="10" guides="1" tooltips="1" connect="1" arrows="1" fold="1" page="1" pageScale="1" pageWidth="850" pageHeight="1100" math="0" shadow="0">
      <root>
        <mxCell id="0" />
        <mxCell id="1" parent="0" />
        <mxCell id="oBc1JcWxAvhCmwhDGRI7-1" value="" style="edgeStyle=orthogonalEdgeStyle;rounded=0;orthogonalLoop=1;jettySize=auto;html=1;" parent="1" source="oBc1JcWxAvhCmwhDGRI7-2" target="oBc1JcWxAvhCmwhDGRI7-4" edge="1">
          <mxGeometry relative="1" as="geometry" />
        </mxCell>
        <mxCell id="oBc1JcWxAvhCmwhDGRI7-2" value="Start" style="ellipse;whiteSpace=wrap;html=1;" parent="1" vertex="1">
          <mxGeometry x="1240" y="220" width="120" height="80" as="geometry" />
        </mxCell>
        <mxCell id="oBc1JcWxAvhCmwhDGRI7-3" value="" style="edgeStyle=orthogonalEdgeStyle;rounded=0;orthogonalLoop=1;jettySize=auto;html=1;" parent="1" source="oBc1JcWxAvhCmwhDGRI7-4" target="oBc1JcWxAvhCmwhDGRI7-10" edge="1">
          <mxGeometry relative="1" as="geometry" />
        </mxCell>
        <mxCell id="oBc1JcWxAvhCmwhDGRI7-4" value="Declare &quot;num1, num2&quot;" style="whiteSpace=wrap;html=1;" parent="1" vertex="1">
          <mxGeometry x="1020" y="350" width="560" height="60" as="geometry" />
        </mxCell>
        <mxCell id="oBc1JcWxAvhCmwhDGRI7-5" value="" style="edgeStyle=orthogonalEdgeStyle;rounded=0;orthogonalLoop=1;jettySize=auto;html=1;" parent="1" source="oBc1JcWxAvhCmwhDGRI7-6" target="oBc1JcWxAvhCmwhDGRI7-15" edge="1">
          <mxGeometry relative="1" as="geometry" />
        </mxCell>
        <mxCell id="oBc1JcWxAvhCmwhDGRI7-6" value="Input &quot;sum = num1 + num2&quot;" style="whiteSpace=wrap;html=1;" parent="1" vertex="1">
          <mxGeometry x="1020" y="790" width="560" height="60" as="geometry" />
        </mxCell>
        <mxCell id="oBc1JcWxAvhCmwhDGRI7-7" style="edgeStyle=orthogonalEdgeStyle;rounded=0;orthogonalLoop=1;jettySize=auto;html=1;" parent="1" source="oBc1JcWxAvhCmwhDGRI7-8" target="oBc1JcWxAvhCmwhDGRI7-6" edge="1">
          <mxGeometry relative="1" as="geometry" />
        </mxCell>
        <mxCell id="oBc1JcWxAvhCmwhDGRI7-8" value="Read &quot;num1, num2&quot;" style="whiteSpace=wrap;html=1;" parent="1" vertex="1">
          <mxGeometry x="1020" y="680" width="560" height="60" as="geometry" />
        </mxCell>
        <mxCell id="oBc1JcWxAvhCmwhDGRI7-9" value="" style="edgeStyle=orthogonalEdgeStyle;rounded=0;orthogonalLoop=1;jettySize=auto;html=1;" parent="1" source="oBc1JcWxAvhCmwhDGRI7-10" target="oBc1JcWxAvhCmwhDGRI7-12" edge="1">
          <mxGeometry relative="1" as="geometry" />
        </mxCell>
        <mxCell id="oBc1JcWxAvhCmwhDGRI7-10" value="Get &quot;Please enter your first number&quot;, num1" style="shape=parallelogram;perimeter=parallelogramPerimeter;whiteSpace=wrap;html=1;fixedSize=1;" parent="1" vertex="1">
          <mxGeometry x="1020" y="460" width="560" height="60" as="geometry" />
        </mxCell>
        <mxCell id="oBc1JcWxAvhCmwhDGRI7-11" style="edgeStyle=orthogonalEdgeStyle;rounded=0;orthogonalLoop=1;jettySize=auto;html=1;" parent="1" source="oBc1JcWxAvhCmwhDGRI7-12" target="oBc1JcWxAvhCmwhDGRI7-8" edge="1">
          <mxGeometry relative="1" as="geometry" />
        </mxCell>
        <mxCell id="oBc1JcWxAvhCmwhDGRI7-12" value="Get &quot;Please enter your first number&quot;, num2" style="shape=parallelogram;perimeter=parallelogramPerimeter;whiteSpace=wrap;html=1;fixedSize=1;" parent="1" vertex="1">
          <mxGeometry x="1020" y="570" width="560" height="60" as="geometry" />
        </mxCell>
        <mxCell id="oBc1JcWxAvhCmwhDGRI7-13" value="" style="edgeStyle=orthogonalEdgeStyle;rounded=0;orthogonalLoop=1;jettySize=auto;html=1;" parent="1" source="oBc1JcWxAvhCmwhDGRI7-15" target="oBc1JcWxAvhCmwhDGRI7-21" edge="1">
          <mxGeometry relative="1" as="geometry" />
        </mxCell>
        <mxCell id="oBc1JcWxAvhCmwhDGRI7-14" style="edgeStyle=orthogonalEdgeStyle;rounded=0;orthogonalLoop=1;jettySize=auto;html=1;" parent="1" source="oBc1JcWxAvhCmwhDGRI7-15" target="oBc1JcWxAvhCmwhDGRI7-17" edge="1">
          <mxGeometry relative="1" as="geometry" />
        </mxCell>
        <mxCell id="oBc1JcWxAvhCmwhDGRI7-15" value="10 &amp;lt;= sum &amp;lt;= 20" style="rhombus;whiteSpace=wrap;html=1;" parent="1" vertex="1">
          <mxGeometry x="1070" y="900" width="460" height="80" as="geometry" />
        </mxCell>
        <mxCell id="oBc1JcWxAvhCmwhDGRI7-16" style="edgeStyle=orthogonalEdgeStyle;rounded=0;orthogonalLoop=1;jettySize=auto;html=1;entryX=0;entryY=0.5;entryDx=0;entryDy=0;" parent="1" source="oBc1JcWxAvhCmwhDGRI7-17" target="oBc1JcWxAvhCmwhDGRI7-22" edge="1">
          <mxGeometry relative="1" as="geometry" />
        </mxCell>
        <mxCell id="oBc1JcWxAvhCmwhDGRI7-17" value="Print &quot;Your number {sum} is not in the range of10 until 20&quot;" style="whiteSpace=wrap;html=1;" parent="1" vertex="1">
          <mxGeometry x="710" y="1030" width="330" height="60" as="geometry" />
        </mxCell>
        <mxCell id="oBc1JcWxAvhCmwhDGRI7-18" value="T&lt;span style=&quot;background-color: initial;&quot;&gt;rue&lt;/span&gt;" style="text;html=1;align=center;verticalAlign=middle;whiteSpace=wrap;rounded=0;" parent="1" vertex="1">
          <mxGeometry x="1620" y="890" width="60" height="30" as="geometry" />
        </mxCell>
        <mxCell id="oBc1JcWxAvhCmwhDGRI7-19" value="False" style="text;html=1;align=center;verticalAlign=middle;whiteSpace=wrap;rounded=0;" parent="1" vertex="1">
          <mxGeometry x="940" y="890" width="60" height="30" as="geometry" />
        </mxCell>
        <mxCell id="oBc1JcWxAvhCmwhDGRI7-20" style="edgeStyle=orthogonalEdgeStyle;rounded=0;orthogonalLoop=1;jettySize=auto;html=1;entryX=1;entryY=0.5;entryDx=0;entryDy=0;" parent="1" source="oBc1JcWxAvhCmwhDGRI7-21" target="oBc1JcWxAvhCmwhDGRI7-22" edge="1">
          <mxGeometry relative="1" as="geometry" />
        </mxCell>
        <mxCell id="oBc1JcWxAvhCmwhDGRI7-21" value="Print &quot;Your number {sum} is in the range of10 until 20&quot;" style="whiteSpace=wrap;html=1;" parent="1" vertex="1">
          <mxGeometry x="1570" y="1040" width="330" height="60" as="geometry" />
        </mxCell>
        <mxCell id="oBc1JcWxAvhCmwhDGRI7-22" value="End" style="ellipse;whiteSpace=wrap;html=1;" parent="1" vertex="1">
          <mxGeometry x="1240" y="1220" width="120" height="80" as="geometry" />
        </mxCell>
      </root>
    </mxGraphModel>
  </diagram>
  <diagram id="fBMphlNLCzB3ZshK01gj" name="Page-8">
    <mxGraphModel dx="1221" dy="759" grid="1" gridSize="10" guides="1" tooltips="1" connect="1" arrows="1" fold="1" page="1" pageScale="1" pageWidth="850" pageHeight="1100" math="0" shadow="0">
      <root>
        <mxCell id="0" />
        <mxCell id="1" parent="0" />
        <mxCell id="Qq7tmiBG1oYd_p8euZBM-3" value="" style="edgeStyle=orthogonalEdgeStyle;rounded=0;orthogonalLoop=1;jettySize=auto;html=1;" edge="1" parent="1" source="Qq7tmiBG1oYd_p8euZBM-1" target="Qq7tmiBG1oYd_p8euZBM-2">
          <mxGeometry relative="1" as="geometry" />
        </mxCell>
        <mxCell id="Qq7tmiBG1oYd_p8euZBM-1" value="Start" style="ellipse;whiteSpace=wrap;html=1;" vertex="1" parent="1">
          <mxGeometry x="365" y="20" width="120" height="80" as="geometry" />
        </mxCell>
        <mxCell id="Qq7tmiBG1oYd_p8euZBM-5" value="" style="edgeStyle=orthogonalEdgeStyle;rounded=0;orthogonalLoop=1;jettySize=auto;html=1;" edge="1" parent="1" source="Qq7tmiBG1oYd_p8euZBM-2" target="Qq7tmiBG1oYd_p8euZBM-4">
          <mxGeometry relative="1" as="geometry" />
        </mxCell>
        <mxCell id="Qq7tmiBG1oYd_p8euZBM-2" value="Input &quot;employee_name = Jamal&quot;" style="shape=parallelogram;perimeter=parallelogramPerimeter;whiteSpace=wrap;html=1;fixedSize=1;" vertex="1" parent="1">
          <mxGeometry x="260" y="130" width="330" height="60" as="geometry" />
        </mxCell>
        <mxCell id="Qq7tmiBG1oYd_p8euZBM-8" value="" style="edgeStyle=orthogonalEdgeStyle;rounded=0;orthogonalLoop=1;jettySize=auto;html=1;" edge="1" parent="1" source="Qq7tmiBG1oYd_p8euZBM-4" target="Qq7tmiBG1oYd_p8euZBM-7">
          <mxGeometry relative="1" as="geometry" />
        </mxCell>
        <mxCell id="Qq7tmiBG1oYd_p8euZBM-4" value="Input &quot;employee_salary = 3000&quot;" style="shape=parallelogram;perimeter=parallelogramPerimeter;whiteSpace=wrap;html=1;fixedSize=1;" vertex="1" parent="1">
          <mxGeometry x="260" y="220" width="330" height="60" as="geometry" />
        </mxCell>
        <mxCell id="Qq7tmiBG1oYd_p8euZBM-10" value="" style="edgeStyle=orthogonalEdgeStyle;rounded=0;orthogonalLoop=1;jettySize=auto;html=1;" edge="1" parent="1" source="Qq7tmiBG1oYd_p8euZBM-7" target="Qq7tmiBG1oYd_p8euZBM-9">
          <mxGeometry relative="1" as="geometry" />
        </mxCell>
        <mxCell id="Qq7tmiBG1oYd_p8euZBM-7" value="Input &quot;num_of_kids = 2&quot;" style="shape=parallelogram;perimeter=parallelogramPerimeter;whiteSpace=wrap;html=1;fixedSize=1;" vertex="1" parent="1">
          <mxGeometry x="260" y="310" width="330" height="60" as="geometry" />
        </mxCell>
        <mxCell id="Qq7tmiBG1oYd_p8euZBM-15" value="" style="edgeStyle=orthogonalEdgeStyle;rounded=0;orthogonalLoop=1;jettySize=auto;html=1;" edge="1" parent="1" source="Qq7tmiBG1oYd_p8euZBM-9" target="Qq7tmiBG1oYd_p8euZBM-14">
          <mxGeometry relative="1" as="geometry" />
        </mxCell>
        <mxCell id="Qq7tmiBG1oYd_p8euZBM-9" value="Input &quot;tax = 0.25 * (monthly_income * 11 - num_of_kids * 450)" style="shape=parallelogram;perimeter=parallelogramPerimeter;whiteSpace=wrap;html=1;fixedSize=1;" vertex="1" parent="1">
          <mxGeometry x="200" y="400" width="450" height="60" as="geometry" />
        </mxCell>
        <mxCell id="Qq7tmiBG1oYd_p8euZBM-17" value="" style="edgeStyle=orthogonalEdgeStyle;rounded=0;orthogonalLoop=1;jettySize=auto;html=1;" edge="1" parent="1" source="Qq7tmiBG1oYd_p8euZBM-14" target="Qq7tmiBG1oYd_p8euZBM-16">
          <mxGeometry relative="1" as="geometry" />
        </mxCell>
        <mxCell id="Qq7tmiBG1oYd_p8euZBM-14" value="Print &quot;Employee Name: employee_name&quot;" style="shape=parallelogram;perimeter=parallelogramPerimeter;whiteSpace=wrap;html=1;fixedSize=1;" vertex="1" parent="1">
          <mxGeometry x="240" y="490" width="370" height="60" as="geometry" />
        </mxCell>
        <mxCell id="Qq7tmiBG1oYd_p8euZBM-19" value="" style="edgeStyle=orthogonalEdgeStyle;rounded=0;orthogonalLoop=1;jettySize=auto;html=1;" edge="1" parent="1" source="Qq7tmiBG1oYd_p8euZBM-16" target="Qq7tmiBG1oYd_p8euZBM-18">
          <mxGeometry relative="1" as="geometry" />
        </mxCell>
        <mxCell id="Qq7tmiBG1oYd_p8euZBM-16" value="Print &quot;Monthly Income: monthly_income&amp;nbsp;" style="shape=parallelogram;perimeter=parallelogramPerimeter;whiteSpace=wrap;html=1;fixedSize=1;" vertex="1" parent="1">
          <mxGeometry x="240" y="580" width="370" height="60" as="geometry" />
        </mxCell>
        <mxCell id="Qq7tmiBG1oYd_p8euZBM-25" value="" style="edgeStyle=orthogonalEdgeStyle;rounded=0;orthogonalLoop=1;jettySize=auto;html=1;" edge="1" parent="1" source="Qq7tmiBG1oYd_p8euZBM-18" target="Qq7tmiBG1oYd_p8euZBM-24">
          <mxGeometry relative="1" as="geometry" />
        </mxCell>
        <mxCell id="Qq7tmiBG1oYd_p8euZBM-18" value="Print &quot;Number of Kids: num_of_kids" style="shape=parallelogram;perimeter=parallelogramPerimeter;whiteSpace=wrap;html=1;fixedSize=1;" vertex="1" parent="1">
          <mxGeometry x="240" y="670" width="370" height="60" as="geometry" />
        </mxCell>
        <mxCell id="Qq7tmiBG1oYd_p8euZBM-27" style="edgeStyle=orthogonalEdgeStyle;rounded=0;orthogonalLoop=1;jettySize=auto;html=1;" edge="1" parent="1" source="Qq7tmiBG1oYd_p8euZBM-24" target="Qq7tmiBG1oYd_p8euZBM-26">
          <mxGeometry relative="1" as="geometry" />
        </mxCell>
        <mxCell id="Qq7tmiBG1oYd_p8euZBM-24" value="Print &quot;Income tax: tax" style="shape=parallelogram;perimeter=parallelogramPerimeter;whiteSpace=wrap;html=1;fixedSize=1;" vertex="1" parent="1">
          <mxGeometry x="250" y="760" width="350" height="60" as="geometry" />
        </mxCell>
        <mxCell id="Qq7tmiBG1oYd_p8euZBM-26" value="End" style="ellipse;whiteSpace=wrap;html=1;" vertex="1" parent="1">
          <mxGeometry x="365" y="870" width="120" height="80" as="geometry" />
        </mxCell>
      </root>
    </mxGraphModel>
  </diagram>
  <diagram id="aorWkzqXJ3oXPGi_N134" name="Page-9">
    <mxGraphModel dx="1221" dy="759" grid="1" gridSize="10" guides="1" tooltips="1" connect="1" arrows="1" fold="1" page="1" pageScale="1" pageWidth="850" pageHeight="1100" math="0" shadow="0">
      <root>
        <mxCell id="0" />
        <mxCell id="1" parent="0" />
        <mxCell id="IlA4tFnxiyJOlzHiVQCs-3" value="" style="edgeStyle=orthogonalEdgeStyle;rounded=0;orthogonalLoop=1;jettySize=auto;html=1;" edge="1" parent="1" source="IlA4tFnxiyJOlzHiVQCs-1" target="IlA4tFnxiyJOlzHiVQCs-2">
          <mxGeometry relative="1" as="geometry" />
        </mxCell>
        <mxCell id="IlA4tFnxiyJOlzHiVQCs-1" value="Start" style="ellipse;whiteSpace=wrap;html=1;" vertex="1" parent="1">
          <mxGeometry x="365" y="20" width="120" height="80" as="geometry" />
        </mxCell>
        <mxCell id="IlA4tFnxiyJOlzHiVQCs-5" value="" style="edgeStyle=orthogonalEdgeStyle;rounded=0;orthogonalLoop=1;jettySize=auto;html=1;" edge="1" parent="1" source="IlA4tFnxiyJOlzHiVQCs-2" target="IlA4tFnxiyJOlzHiVQCs-4">
          <mxGeometry relative="1" as="geometry" />
        </mxCell>
        <mxCell id="IlA4tFnxiyJOlzHiVQCs-2" value="Declare &quot;pi = 3.14159" style="shape=parallelogram;perimeter=parallelogramPerimeter;whiteSpace=wrap;html=1;fixedSize=1;" vertex="1" parent="1">
          <mxGeometry x="290" y="130" width="270" height="60" as="geometry" />
        </mxCell>
        <mxCell id="IlA4tFnxiyJOlzHiVQCs-4" value="" style="shape=parallelogram;perimeter=parallelogramPerimeter;whiteSpace=wrap;html=1;fixedSize=1;" vertex="1" parent="1">
          <mxGeometry x="290" y="220" width="270" height="60" as="geometry" />
        </mxCell>
      </root>
    </mxGraphModel>
  </diagram>
  <diagram id="rnGbKKczsHRxMEJqWY5H" name="Data Flow Diagram">
    <mxGraphModel dx="2442" dy="1518" grid="1" gridSize="10" guides="1" tooltips="1" connect="1" arrows="1" fold="1" page="1" pageScale="1" pageWidth="850" pageHeight="1100" math="0" shadow="0">
      <root>
        <mxCell id="0" />
        <mxCell id="1" parent="0" />
        <mxCell id="EyHcURF7eq4IpKubThhp-2" value="Element /&lt;div&gt;External Entity&lt;/div&gt;" style="shape=cube;whiteSpace=wrap;html=1;boundedLbl=1;backgroundOutline=1;darkOpacity=0.05;darkOpacity2=0.1;" parent="1" vertex="1">
          <mxGeometry x="220" y="600" width="120" height="110" as="geometry" />
        </mxCell>
        <mxCell id="EyHcURF7eq4IpKubThhp-8" value="" style="endArrow=classic;html=1;rounded=0;" parent="1" edge="1">
          <mxGeometry width="50" height="50" relative="1" as="geometry">
            <mxPoint x="150" y="420" as="sourcePoint" />
            <mxPoint x="410" y="420" as="targetPoint" />
          </mxGeometry>
        </mxCell>
        <mxCell id="EyHcURF7eq4IpKubThhp-9" value="Data flow" style="text;html=1;align=center;verticalAlign=middle;resizable=0;points=[];autosize=1;strokeColor=none;fillColor=none;" parent="1" vertex="1">
          <mxGeometry x="255" y="388" width="70" height="30" as="geometry" />
        </mxCell>
        <mxCell id="EyHcURF7eq4IpKubThhp-44" value="" style="group" parent="1" vertex="1" connectable="0">
          <mxGeometry x="950" y="140" width="160" height="90" as="geometry" />
        </mxCell>
        <mxCell id="EyHcURF7eq4IpKubThhp-14" value="&lt;font style=&quot;font-size: 14px;&quot;&gt;Register/Login&lt;/font&gt;" style="rounded=1;whiteSpace=wrap;html=1;" parent="EyHcURF7eq4IpKubThhp-44" vertex="1">
          <mxGeometry width="160" height="90" as="geometry" />
        </mxCell>
        <mxCell id="EyHcURF7eq4IpKubThhp-15" value="" style="endArrow=none;html=1;rounded=0;exitX=0;exitY=0.25;exitDx=0;exitDy=0;entryX=1;entryY=0.25;entryDx=0;entryDy=0;" parent="EyHcURF7eq4IpKubThhp-44" source="EyHcURF7eq4IpKubThhp-14" target="EyHcURF7eq4IpKubThhp-14" edge="1">
          <mxGeometry width="50" height="50" relative="1" as="geometry">
            <mxPoint x="220" y="110.76923076923075" as="sourcePoint" />
            <mxPoint x="270" y="80" as="targetPoint" />
          </mxGeometry>
        </mxCell>
        <mxCell id="EyHcURF7eq4IpKubThhp-16" value="&lt;span style=&quot;font-size: 16px;&quot;&gt;6.1&lt;/span&gt;" style="text;html=1;align=center;verticalAlign=middle;whiteSpace=wrap;rounded=0;" parent="EyHcURF7eq4IpKubThhp-44" vertex="1">
          <mxGeometry x="50" y="0.6153846153846153" width="60" height="18.46153846153846" as="geometry" />
        </mxCell>
        <mxCell id="EyHcURF7eq4IpKubThhp-45" value="" style="group" parent="1" vertex="1" connectable="0">
          <mxGeometry x="200" y="210" width="160" height="130" as="geometry" />
        </mxCell>
        <mxCell id="EyHcURF7eq4IpKubThhp-3" value="&lt;font style=&quot;font-size: 14px;&quot;&gt;Process&lt;/font&gt;" style="rounded=1;whiteSpace=wrap;html=1;" parent="EyHcURF7eq4IpKubThhp-45" vertex="1">
          <mxGeometry width="160" height="130" as="geometry" />
        </mxCell>
        <mxCell id="EyHcURF7eq4IpKubThhp-4" value="" style="endArrow=none;html=1;rounded=0;exitX=0;exitY=0.25;exitDx=0;exitDy=0;entryX=1;entryY=0.25;entryDx=0;entryDy=0;" parent="EyHcURF7eq4IpKubThhp-45" source="EyHcURF7eq4IpKubThhp-3" target="EyHcURF7eq4IpKubThhp-3" edge="1">
          <mxGeometry width="50" height="50" relative="1" as="geometry">
            <mxPoint x="220" y="180" as="sourcePoint" />
            <mxPoint x="270" y="130" as="targetPoint" />
          </mxGeometry>
        </mxCell>
        <mxCell id="EyHcURF7eq4IpKubThhp-13" value="&lt;span style=&quot;font-size: 16px;&quot;&gt;1.0&lt;/span&gt;" style="text;html=1;align=center;verticalAlign=middle;whiteSpace=wrap;rounded=0;" parent="EyHcURF7eq4IpKubThhp-45" vertex="1">
          <mxGeometry x="50" y="1" width="60" height="30" as="geometry" />
        </mxCell>
        <mxCell id="EyHcURF7eq4IpKubThhp-48" value="" style="group" parent="1" vertex="1" connectable="0">
          <mxGeometry x="160" y="470" width="240" height="60" as="geometry" />
        </mxCell>
        <mxCell id="EyHcURF7eq4IpKubThhp-5" value="Data Store" style="shape=partialRectangle;whiteSpace=wrap;html=1;bottom=0;right=0;fillColor=none;container=0;" parent="EyHcURF7eq4IpKubThhp-48" vertex="1">
          <mxGeometry width="240" height="60" as="geometry" />
        </mxCell>
        <mxCell id="EyHcURF7eq4IpKubThhp-6" value="" style="endArrow=none;html=1;rounded=0;exitX=0;exitY=1;exitDx=0;exitDy=0;entryX=1;entryY=1;entryDx=0;entryDy=0;" parent="EyHcURF7eq4IpKubThhp-48" source="EyHcURF7eq4IpKubThhp-5" target="EyHcURF7eq4IpKubThhp-5" edge="1">
          <mxGeometry width="50" height="50" relative="1" as="geometry">
            <mxPoint x="-30" y="110" as="sourcePoint" />
            <mxPoint x="20" y="60" as="targetPoint" />
          </mxGeometry>
        </mxCell>
        <mxCell id="EyHcURF7eq4IpKubThhp-7" value="" style="endArrow=none;html=1;rounded=0;entryX=0.25;entryY=0;entryDx=0;entryDy=0;exitX=0.25;exitY=1;exitDx=0;exitDy=0;" parent="EyHcURF7eq4IpKubThhp-48" source="EyHcURF7eq4IpKubThhp-5" target="EyHcURF7eq4IpKubThhp-5" edge="1">
          <mxGeometry width="50" height="50" relative="1" as="geometry">
            <mxPoint x="-30" y="110" as="sourcePoint" />
            <mxPoint x="20" y="60" as="targetPoint" />
            <Array as="points" />
          </mxGeometry>
        </mxCell>
        <mxCell id="EyHcURF7eq4IpKubThhp-47" value="&lt;font style=&quot;font-size: 16px;&quot;&gt;A1&lt;/font&gt;" style="text;html=1;align=center;verticalAlign=middle;whiteSpace=wrap;rounded=0;container=0;" parent="EyHcURF7eq4IpKubThhp-48" vertex="1">
          <mxGeometry y="15" width="60" height="30" as="geometry" />
        </mxCell>
        <mxCell id="EyHcURF7eq4IpKubThhp-77" value="" style="group" parent="1" vertex="1" connectable="0">
          <mxGeometry x="1200" y="140" width="160" height="90" as="geometry" />
        </mxCell>
        <mxCell id="EyHcURF7eq4IpKubThhp-78" value="&lt;span style=&quot;font-size: 14px;&quot;&gt;Browse Books&lt;/span&gt;" style="rounded=1;whiteSpace=wrap;html=1;" parent="EyHcURF7eq4IpKubThhp-77" vertex="1">
          <mxGeometry width="160" height="90" as="geometry" />
        </mxCell>
        <mxCell id="EyHcURF7eq4IpKubThhp-79" value="" style="endArrow=none;html=1;rounded=0;exitX=0;exitY=0.25;exitDx=0;exitDy=0;entryX=1;entryY=0.25;entryDx=0;entryDy=0;" parent="EyHcURF7eq4IpKubThhp-77" source="EyHcURF7eq4IpKubThhp-78" target="EyHcURF7eq4IpKubThhp-78" edge="1">
          <mxGeometry width="50" height="50" relative="1" as="geometry">
            <mxPoint x="220" y="124.61538461538464" as="sourcePoint" />
            <mxPoint x="270" y="90" as="targetPoint" />
          </mxGeometry>
        </mxCell>
        <mxCell id="EyHcURF7eq4IpKubThhp-80" value="&lt;span style=&quot;font-size: 16px;&quot;&gt;6.2&lt;/span&gt;" style="text;html=1;align=center;verticalAlign=middle;whiteSpace=wrap;rounded=0;" parent="EyHcURF7eq4IpKubThhp-77" vertex="1">
          <mxGeometry x="50" y="0.6923076923076924" width="60" height="20.76923076923077" as="geometry" />
        </mxCell>
        <mxCell id="EyHcURF7eq4IpKubThhp-84" value="" style="group" parent="1" vertex="1" connectable="0">
          <mxGeometry x="1460" y="140" width="160" height="90" as="geometry" />
        </mxCell>
        <mxCell id="EyHcURF7eq4IpKubThhp-85" value="&lt;font style=&quot;font-size: 14px;&quot;&gt;Purchase Books&lt;/font&gt;" style="rounded=1;whiteSpace=wrap;html=1;" parent="EyHcURF7eq4IpKubThhp-84" vertex="1">
          <mxGeometry width="160" height="90" as="geometry" />
        </mxCell>
        <mxCell id="EyHcURF7eq4IpKubThhp-86" value="" style="endArrow=none;html=1;rounded=0;exitX=0;exitY=0.25;exitDx=0;exitDy=0;entryX=1;entryY=0.25;entryDx=0;entryDy=0;" parent="EyHcURF7eq4IpKubThhp-84" source="EyHcURF7eq4IpKubThhp-85" target="EyHcURF7eq4IpKubThhp-85" edge="1">
          <mxGeometry width="50" height="50" relative="1" as="geometry">
            <mxPoint x="220" y="124.61538461538464" as="sourcePoint" />
            <mxPoint x="270" y="90" as="targetPoint" />
          </mxGeometry>
        </mxCell>
        <mxCell id="EyHcURF7eq4IpKubThhp-87" value="&lt;span style=&quot;font-size: 16px;&quot;&gt;6.3&lt;/span&gt;" style="text;html=1;align=center;verticalAlign=middle;whiteSpace=wrap;rounded=0;" parent="EyHcURF7eq4IpKubThhp-84" vertex="1">
          <mxGeometry x="50" y="0.6923076923076924" width="60" height="20.76923076923077" as="geometry" />
        </mxCell>
        <mxCell id="EyHcURF7eq4IpKubThhp-89" value="" style="group" parent="1" vertex="1" connectable="0">
          <mxGeometry x="950" y="290" width="160" height="90" as="geometry" />
        </mxCell>
        <mxCell id="EyHcURF7eq4IpKubThhp-90" value="&lt;span style=&quot;font-size: 14px;&quot;&gt;E-book Viewing&lt;/span&gt;" style="rounded=1;whiteSpace=wrap;html=1;" parent="EyHcURF7eq4IpKubThhp-89" vertex="1">
          <mxGeometry width="160" height="90" as="geometry" />
        </mxCell>
        <mxCell id="EyHcURF7eq4IpKubThhp-91" value="" style="endArrow=none;html=1;rounded=0;exitX=0;exitY=0.25;exitDx=0;exitDy=0;entryX=1;entryY=0.25;entryDx=0;entryDy=0;" parent="EyHcURF7eq4IpKubThhp-89" source="EyHcURF7eq4IpKubThhp-90" target="EyHcURF7eq4IpKubThhp-90" edge="1">
          <mxGeometry width="50" height="50" relative="1" as="geometry">
            <mxPoint x="220" y="110.76923076923075" as="sourcePoint" />
            <mxPoint x="270" y="80" as="targetPoint" />
          </mxGeometry>
        </mxCell>
        <mxCell id="EyHcURF7eq4IpKubThhp-92" value="&lt;span style=&quot;font-size: 16px;&quot;&gt;6.4&lt;/span&gt;" style="text;html=1;align=center;verticalAlign=middle;whiteSpace=wrap;rounded=0;" parent="EyHcURF7eq4IpKubThhp-89" vertex="1">
          <mxGeometry x="50" y="0.6153846153846153" width="60" height="18.46153846153846" as="geometry" />
        </mxCell>
        <mxCell id="EyHcURF7eq4IpKubThhp-93" value="" style="group" parent="1" vertex="1" connectable="0">
          <mxGeometry x="1200" y="280" width="160" height="90" as="geometry" />
        </mxCell>
        <mxCell id="EyHcURF7eq4IpKubThhp-94" value="&lt;span style=&quot;font-size: 14px;&quot;&gt;In-house Reading Reservation&lt;/span&gt;" style="rounded=1;whiteSpace=wrap;html=1;" parent="EyHcURF7eq4IpKubThhp-93" vertex="1">
          <mxGeometry width="160" height="90" as="geometry" />
        </mxCell>
        <mxCell id="EyHcURF7eq4IpKubThhp-95" value="" style="endArrow=none;html=1;rounded=0;exitX=0;exitY=0.25;exitDx=0;exitDy=0;entryX=1;entryY=0.25;entryDx=0;entryDy=0;" parent="EyHcURF7eq4IpKubThhp-93" source="EyHcURF7eq4IpKubThhp-94" target="EyHcURF7eq4IpKubThhp-94" edge="1">
          <mxGeometry width="50" height="50" relative="1" as="geometry">
            <mxPoint x="220" y="124.61538461538464" as="sourcePoint" />
            <mxPoint x="270" y="90" as="targetPoint" />
          </mxGeometry>
        </mxCell>
        <mxCell id="EyHcURF7eq4IpKubThhp-96" value="&lt;span style=&quot;font-size: 16px;&quot;&gt;6.5&lt;/span&gt;" style="text;html=1;align=center;verticalAlign=middle;whiteSpace=wrap;rounded=0;" parent="EyHcURF7eq4IpKubThhp-93" vertex="1">
          <mxGeometry x="50" y="0.6923076923076924" width="60" height="20.76923076923077" as="geometry" />
        </mxCell>
        <mxCell id="EyHcURF7eq4IpKubThhp-97" value="" style="group" parent="1" vertex="1" connectable="0">
          <mxGeometry x="1470" y="280" width="160" height="90" as="geometry" />
        </mxCell>
        <mxCell id="EyHcURF7eq4IpKubThhp-98" value="&lt;span style=&quot;font-size: 14px;&quot;&gt;Apply Discounts&lt;/span&gt;" style="rounded=1;whiteSpace=wrap;html=1;" parent="EyHcURF7eq4IpKubThhp-97" vertex="1">
          <mxGeometry width="160" height="90" as="geometry" />
        </mxCell>
        <mxCell id="EyHcURF7eq4IpKubThhp-99" value="" style="endArrow=none;html=1;rounded=0;exitX=0;exitY=0.25;exitDx=0;exitDy=0;entryX=1;entryY=0.25;entryDx=0;entryDy=0;" parent="EyHcURF7eq4IpKubThhp-97" source="EyHcURF7eq4IpKubThhp-98" target="EyHcURF7eq4IpKubThhp-98" edge="1">
          <mxGeometry width="50" height="50" relative="1" as="geometry">
            <mxPoint x="220" y="124.61538461538464" as="sourcePoint" />
            <mxPoint x="270" y="90" as="targetPoint" />
          </mxGeometry>
        </mxCell>
        <mxCell id="EyHcURF7eq4IpKubThhp-100" value="&lt;span style=&quot;font-size: 16px;&quot;&gt;6.6&lt;/span&gt;" style="text;html=1;align=center;verticalAlign=middle;whiteSpace=wrap;rounded=0;" parent="EyHcURF7eq4IpKubThhp-97" vertex="1">
          <mxGeometry x="50" y="0.6923076923076924" width="60" height="20.76923076923077" as="geometry" />
        </mxCell>
        <mxCell id="EyHcURF7eq4IpKubThhp-101" value="" style="group" parent="1" vertex="1" connectable="0">
          <mxGeometry x="1210" y="450" width="160" height="90" as="geometry" />
        </mxCell>
        <mxCell id="EyHcURF7eq4IpKubThhp-102" value="&lt;span style=&quot;font-size: 14px;&quot;&gt;Manage Inventory&lt;/span&gt;" style="rounded=1;whiteSpace=wrap;html=1;" parent="EyHcURF7eq4IpKubThhp-101" vertex="1">
          <mxGeometry width="160" height="90" as="geometry" />
        </mxCell>
        <mxCell id="EyHcURF7eq4IpKubThhp-103" value="" style="endArrow=none;html=1;rounded=0;exitX=0;exitY=0.25;exitDx=0;exitDy=0;entryX=1;entryY=0.25;entryDx=0;entryDy=0;" parent="EyHcURF7eq4IpKubThhp-101" source="EyHcURF7eq4IpKubThhp-102" target="EyHcURF7eq4IpKubThhp-102" edge="1">
          <mxGeometry width="50" height="50" relative="1" as="geometry">
            <mxPoint x="220" y="110.76923076923075" as="sourcePoint" />
            <mxPoint x="270" y="80" as="targetPoint" />
          </mxGeometry>
        </mxCell>
        <mxCell id="EyHcURF7eq4IpKubThhp-104" value="&lt;span style=&quot;font-size: 16px;&quot;&gt;6.8&lt;/span&gt;" style="text;html=1;align=center;verticalAlign=middle;whiteSpace=wrap;rounded=0;" parent="EyHcURF7eq4IpKubThhp-101" vertex="1">
          <mxGeometry x="50" y="0.6153846153846153" width="60" height="18.46153846153846" as="geometry" />
        </mxCell>
        <mxCell id="EyHcURF7eq4IpKubThhp-105" value="" style="group" parent="1" vertex="1" connectable="0">
          <mxGeometry x="1460" y="450" width="160" height="90" as="geometry" />
        </mxCell>
        <mxCell id="EyHcURF7eq4IpKubThhp-106" value="&lt;span style=&quot;font-size: 14px;&quot;&gt;Generate Report&lt;/span&gt;" style="rounded=1;whiteSpace=wrap;html=1;" parent="EyHcURF7eq4IpKubThhp-105" vertex="1">
          <mxGeometry width="160" height="90" as="geometry" />
        </mxCell>
        <mxCell id="EyHcURF7eq4IpKubThhp-107" value="" style="endArrow=none;html=1;rounded=0;exitX=0;exitY=0.25;exitDx=0;exitDy=0;entryX=1;entryY=0.25;entryDx=0;entryDy=0;" parent="EyHcURF7eq4IpKubThhp-105" source="EyHcURF7eq4IpKubThhp-106" target="EyHcURF7eq4IpKubThhp-106" edge="1">
          <mxGeometry width="50" height="50" relative="1" as="geometry">
            <mxPoint x="220" y="124.61538461538464" as="sourcePoint" />
            <mxPoint x="270" y="90" as="targetPoint" />
          </mxGeometry>
        </mxCell>
        <mxCell id="EyHcURF7eq4IpKubThhp-108" value="&lt;span style=&quot;font-size: 16px;&quot;&gt;6.9&lt;/span&gt;" style="text;html=1;align=center;verticalAlign=middle;whiteSpace=wrap;rounded=0;" parent="EyHcURF7eq4IpKubThhp-105" vertex="1">
          <mxGeometry x="50" y="0.6923076923076924" width="60" height="20.76923076923077" as="geometry" />
        </mxCell>
        <mxCell id="EyHcURF7eq4IpKubThhp-109" value="" style="group" parent="1" vertex="1" connectable="0">
          <mxGeometry x="950" y="450" width="160" height="90" as="geometry" />
        </mxCell>
        <mxCell id="EyHcURF7eq4IpKubThhp-110" value="&lt;span style=&quot;font-size: 14px;&quot;&gt;Rent Books&lt;/span&gt;" style="rounded=1;whiteSpace=wrap;html=1;" parent="EyHcURF7eq4IpKubThhp-109" vertex="1">
          <mxGeometry width="160" height="90" as="geometry" />
        </mxCell>
        <mxCell id="EyHcURF7eq4IpKubThhp-111" value="" style="endArrow=none;html=1;rounded=0;exitX=0;exitY=0.25;exitDx=0;exitDy=0;entryX=1;entryY=0.25;entryDx=0;entryDy=0;" parent="EyHcURF7eq4IpKubThhp-109" source="EyHcURF7eq4IpKubThhp-110" target="EyHcURF7eq4IpKubThhp-110" edge="1">
          <mxGeometry width="50" height="50" relative="1" as="geometry">
            <mxPoint x="220" y="124.61538461538464" as="sourcePoint" />
            <mxPoint x="270" y="90" as="targetPoint" />
          </mxGeometry>
        </mxCell>
        <mxCell id="EyHcURF7eq4IpKubThhp-112" value="&lt;span style=&quot;font-size: 16px;&quot;&gt;6.7&lt;/span&gt;" style="text;html=1;align=center;verticalAlign=middle;whiteSpace=wrap;rounded=0;" parent="EyHcURF7eq4IpKubThhp-109" vertex="1">
          <mxGeometry x="50" y="0.6923076923076924" width="60" height="20.76923076923077" as="geometry" />
        </mxCell>
        <mxCell id="EyHcURF7eq4IpKubThhp-114" value="" style="group" parent="1" vertex="1" connectable="0">
          <mxGeometry x="970" y="610" width="240" height="60" as="geometry" />
        </mxCell>
        <mxCell id="EyHcURF7eq4IpKubThhp-115" value="" style="shape=partialRectangle;whiteSpace=wrap;html=1;bottom=0;right=0;fillColor=none;container=0;" parent="EyHcURF7eq4IpKubThhp-114" vertex="1">
          <mxGeometry width="240" height="60" as="geometry" />
        </mxCell>
        <mxCell id="EyHcURF7eq4IpKubThhp-116" value="" style="endArrow=none;html=1;rounded=0;exitX=0;exitY=1;exitDx=0;exitDy=0;entryX=1;entryY=1;entryDx=0;entryDy=0;" parent="EyHcURF7eq4IpKubThhp-114" source="EyHcURF7eq4IpKubThhp-115" target="EyHcURF7eq4IpKubThhp-115" edge="1">
          <mxGeometry width="50" height="50" relative="1" as="geometry">
            <mxPoint x="-30" y="110" as="sourcePoint" />
            <mxPoint x="20" y="60" as="targetPoint" />
          </mxGeometry>
        </mxCell>
        <mxCell id="EyHcURF7eq4IpKubThhp-117" value="" style="endArrow=none;html=1;rounded=0;entryX=0.25;entryY=0;entryDx=0;entryDy=0;exitX=0.25;exitY=1;exitDx=0;exitDy=0;" parent="EyHcURF7eq4IpKubThhp-114" source="EyHcURF7eq4IpKubThhp-115" target="EyHcURF7eq4IpKubThhp-115" edge="1">
          <mxGeometry width="50" height="50" relative="1" as="geometry">
            <mxPoint x="-30" y="110" as="sourcePoint" />
            <mxPoint x="20" y="60" as="targetPoint" />
            <Array as="points" />
          </mxGeometry>
        </mxCell>
        <mxCell id="EyHcURF7eq4IpKubThhp-118" value="&lt;span style=&quot;font-size: 16px;&quot;&gt;D 6.1&lt;/span&gt;" style="text;html=1;align=center;verticalAlign=middle;whiteSpace=wrap;rounded=0;container=0;" parent="EyHcURF7eq4IpKubThhp-114" vertex="1">
          <mxGeometry y="15" width="60" height="30" as="geometry" />
        </mxCell>
        <mxCell id="EyHcURF7eq4IpKubThhp-124" value="" style="group" parent="1" vertex="1" connectable="0">
          <mxGeometry x="1390" y="640" width="240" height="60" as="geometry" />
        </mxCell>
        <mxCell id="EyHcURF7eq4IpKubThhp-125" value="Data Store" style="shape=partialRectangle;whiteSpace=wrap;html=1;bottom=0;right=0;fillColor=none;container=0;" parent="EyHcURF7eq4IpKubThhp-124" vertex="1">
          <mxGeometry width="240" height="60" as="geometry" />
        </mxCell>
        <mxCell id="EyHcURF7eq4IpKubThhp-126" value="" style="endArrow=none;html=1;rounded=0;exitX=0;exitY=1;exitDx=0;exitDy=0;entryX=1;entryY=1;entryDx=0;entryDy=0;" parent="EyHcURF7eq4IpKubThhp-124" source="EyHcURF7eq4IpKubThhp-125" target="EyHcURF7eq4IpKubThhp-125" edge="1">
          <mxGeometry width="50" height="50" relative="1" as="geometry">
            <mxPoint x="-30" y="110" as="sourcePoint" />
            <mxPoint x="20" y="60" as="targetPoint" />
          </mxGeometry>
        </mxCell>
        <mxCell id="EyHcURF7eq4IpKubThhp-127" value="" style="endArrow=none;html=1;rounded=0;entryX=0.25;entryY=0;entryDx=0;entryDy=0;exitX=0.25;exitY=1;exitDx=0;exitDy=0;" parent="EyHcURF7eq4IpKubThhp-124" source="EyHcURF7eq4IpKubThhp-125" target="EyHcURF7eq4IpKubThhp-125" edge="1">
          <mxGeometry width="50" height="50" relative="1" as="geometry">
            <mxPoint x="-30" y="110" as="sourcePoint" />
            <mxPoint x="20" y="60" as="targetPoint" />
            <Array as="points" />
          </mxGeometry>
        </mxCell>
        <mxCell id="EyHcURF7eq4IpKubThhp-128" value="&lt;span style=&quot;font-size: 16px;&quot;&gt;D 6.1&lt;/span&gt;" style="text;html=1;align=center;verticalAlign=middle;whiteSpace=wrap;rounded=0;container=0;" parent="EyHcURF7eq4IpKubThhp-124" vertex="1">
          <mxGeometry y="15" width="60" height="30" as="geometry" />
        </mxCell>
        <mxCell id="EyHcURF7eq4IpKubThhp-129" value="" style="group" parent="1" vertex="1" connectable="0">
          <mxGeometry x="1390" y="790" width="240" height="60" as="geometry" />
        </mxCell>
        <mxCell id="EyHcURF7eq4IpKubThhp-130" value="Data Store" style="shape=partialRectangle;whiteSpace=wrap;html=1;bottom=0;right=0;fillColor=none;container=0;" parent="EyHcURF7eq4IpKubThhp-129" vertex="1">
          <mxGeometry width="240" height="60" as="geometry" />
        </mxCell>
        <mxCell id="EyHcURF7eq4IpKubThhp-131" value="" style="endArrow=none;html=1;rounded=0;exitX=0;exitY=1;exitDx=0;exitDy=0;entryX=1;entryY=1;entryDx=0;entryDy=0;" parent="EyHcURF7eq4IpKubThhp-129" source="EyHcURF7eq4IpKubThhp-130" target="EyHcURF7eq4IpKubThhp-130" edge="1">
          <mxGeometry width="50" height="50" relative="1" as="geometry">
            <mxPoint x="-30" y="110" as="sourcePoint" />
            <mxPoint x="20" y="60" as="targetPoint" />
          </mxGeometry>
        </mxCell>
        <mxCell id="EyHcURF7eq4IpKubThhp-132" value="" style="endArrow=none;html=1;rounded=0;entryX=0.25;entryY=0;entryDx=0;entryDy=0;exitX=0.25;exitY=1;exitDx=0;exitDy=0;" parent="EyHcURF7eq4IpKubThhp-129" source="EyHcURF7eq4IpKubThhp-130" target="EyHcURF7eq4IpKubThhp-130" edge="1">
          <mxGeometry width="50" height="50" relative="1" as="geometry">
            <mxPoint x="-30" y="110" as="sourcePoint" />
            <mxPoint x="20" y="60" as="targetPoint" />
            <Array as="points" />
          </mxGeometry>
        </mxCell>
        <mxCell id="EyHcURF7eq4IpKubThhp-133" value="&lt;span style=&quot;font-size: 16px;&quot;&gt;D 6.1&lt;/span&gt;" style="text;html=1;align=center;verticalAlign=middle;whiteSpace=wrap;rounded=0;container=0;" parent="EyHcURF7eq4IpKubThhp-129" vertex="1">
          <mxGeometry y="15" width="60" height="30" as="geometry" />
        </mxCell>
        <mxCell id="EyHcURF7eq4IpKubThhp-134" value="" style="group" parent="1" vertex="1" connectable="0">
          <mxGeometry x="1000" y="780" width="240" height="60" as="geometry" />
        </mxCell>
        <mxCell id="EyHcURF7eq4IpKubThhp-135" value="Data Store" style="shape=partialRectangle;whiteSpace=wrap;html=1;bottom=0;right=0;fillColor=none;container=0;" parent="EyHcURF7eq4IpKubThhp-134" vertex="1">
          <mxGeometry width="240" height="60" as="geometry" />
        </mxCell>
        <mxCell id="EyHcURF7eq4IpKubThhp-136" value="" style="endArrow=none;html=1;rounded=0;exitX=0;exitY=1;exitDx=0;exitDy=0;entryX=1;entryY=1;entryDx=0;entryDy=0;" parent="EyHcURF7eq4IpKubThhp-134" source="EyHcURF7eq4IpKubThhp-135" target="EyHcURF7eq4IpKubThhp-135" edge="1">
          <mxGeometry width="50" height="50" relative="1" as="geometry">
            <mxPoint x="-30" y="110" as="sourcePoint" />
            <mxPoint x="20" y="60" as="targetPoint" />
          </mxGeometry>
        </mxCell>
        <mxCell id="EyHcURF7eq4IpKubThhp-137" value="" style="endArrow=none;html=1;rounded=0;entryX=0.25;entryY=0;entryDx=0;entryDy=0;exitX=0.25;exitY=1;exitDx=0;exitDy=0;" parent="EyHcURF7eq4IpKubThhp-134" source="EyHcURF7eq4IpKubThhp-135" target="EyHcURF7eq4IpKubThhp-135" edge="1">
          <mxGeometry width="50" height="50" relative="1" as="geometry">
            <mxPoint x="-30" y="110" as="sourcePoint" />
            <mxPoint x="20" y="60" as="targetPoint" />
            <Array as="points" />
          </mxGeometry>
        </mxCell>
        <mxCell id="EyHcURF7eq4IpKubThhp-138" value="&lt;span style=&quot;font-size: 16px;&quot;&gt;D 6.1&lt;/span&gt;" style="text;html=1;align=center;verticalAlign=middle;whiteSpace=wrap;rounded=0;container=0;" parent="EyHcURF7eq4IpKubThhp-134" vertex="1">
          <mxGeometry y="15" width="60" height="30" as="geometry" />
        </mxCell>
      </root>
    </mxGraphModel>
  </diagram>
</mxfile>
